<svg xmlns="http://www.w3.org/2000/svg" viewBox="0 0 1671.31 962.32"><defs><style>.cls-1{fill:#b8babb;}.cls-2{fill:#7f7f81;}.cls-3{fill:#272425;}</style></defs><g id="Layer_2" data-name="Layer 2"><g id="Object"><path class="cls-1" d="M1381.69,202.36a2.71,2.71,0,0,1,3.51-2.05s24.48,7,47.74,13.64A101,101,0,0,0,1422,192.61a4.63,4.63,0,0,1-6.87-4.07,4.74,4.74,0,0,1,.41-1.89,67.25,67.25,0,0,1-5.17-4.46c-3.17-3.06.11-6.69-1.59-9.07s-3.63-3.86-5.55-6.69-4.43-5.9-6.7-9.87-1.13-10.32-1.13-10.32c1.48,7,4.88,9.75,4.88,9.75-1.93-2.15-3.75-10.32-3.75-10.32l1.71-1.7c2.94,1.93,9,16.1,8.39,14.18s-2.72-7.6-4-9.19a44.82,44.82,0,0,1-3.29-6l2.95-2.27,2.15,3.4s-1.24-3.51-.79-4.31a3.69,3.69,0,0,1,1.7-1.24s-.57-.8.91,1,2.61,9.41,2.61,9.41c1.24-4.2-.46-10.89-.46-10.89a22.4,22.4,0,0,1,2.16,10.89c-.23,4,3.4,10.43,3.4,10.43.91,3.75,2.72,8.28,3.4,10.32a13,13,0,0,1,.23,5.45c-.11,1.47.11,2.38,1.36,4.42a15.56,15.56,0,0,1,1.54,4.39,4.64,4.64,0,0,1,1.78,8.47,78.55,78.55,0,0,1,12.39,22c16.66,4.73,32.35,9.14,37.54,10.47,12.61,3.23,18.76,6.45,18.76,6.45-4.1,34.59-19,94.09-19,94.09-2.93-2.63-29.61-9.08-31.07-9.08s-7.62,1.46-8.8,1.17-2.34,1.47-17.58-1.76-21.4-13.48-21.4-13.48c-4.11-1.18-30.78-9.38-30.78-9.38S1380.81,205.29,1381.69,202.36Z"/><path class="cls-1" d="M1013.89,395.93c3.44-.94,2.5-3.44,2.5-3.44l-8.74-4.05s-10.3,4.68-13.42,8.11-3.12,1.87-3.12,1.87a5.66,5.66,0,0,1,1.25-4.68c1.87-2.49,1.87-6.24,2.49-9.05s2.19-10,4.06-10,14.05-2.81,17.17-3.43,4.68-5.93,7.8-10,15.92-22.16,17.17-23.73,5.31-7.49,7.18-8.42l26,33c.82-11.78-1-26-11.32-36.72-9.36-9.77-13.55-16.33-15.27-21.24h-.33a9.36,9.36,0,0,1-9.37-9.36,9,9,0,0,1,.17-1.74c-.91-1.11-1.87-2.34-2.8-3.7-3.38-4.9-2.51-5.74-3-10.17s-1-6.13-.87-9.14a27.51,27.51,0,0,0-1.25-8.57c-.76-2.64-.51-5-.88-7.63s-2-5.47-2.63-6.88a38.69,38.69,0,0,1-1.63-5c-.37-1.42.5-4.34.5-4.34s.38,1.42,1.25,5.09,1.76,2.73,2.88,3.86a8,8,0,0,1,2.13,4.71c.25,2,4.89,13.19,4,10.74a47.81,47.81,0,0,1-1.75-8.1c-.38-2.35-2.26-6-3.63-8.38s-2.26-7.54-1.63-8.29,5-.94,5-.94,3,5.93,3,5.46-1.75-5.56-1.75-5.56l1.75-.19s2-.19,2.38,1,.25,13.47.25,13.47l1,.47c.13-.38,1-1.79.13-5.84s.87-8.76.87-8.76a28.66,28.66,0,0,0,.13,5.75c.37,3.67,1.75,3.86,2.13,6.59.27,2-.44,5.74-.85,7.7a24.5,24.5,0,0,0,2.72-5.34,10,10,0,0,0-.5-8.39c1.76,1.79,3.63,1.32,1.26,7.16s-5.64,21,1.12,31.18c1.23,1.86,2.19,3.48,2.94,4.89a9.36,9.36,0,0,1-.42,17.81,40.83,40.83,0,0,0,9.2,14.44c11.79,12.08,18,22.05,15.74,44.77l23.28,29.52c12.8,16.24,10.3,20.61,8.11,25s-21.22,40.58-30.59,44.95l-16.86-22.17s-8.74,1.88-15.6-.62-14.67-5.62-18.11-7.18-11.24-4.68-14.36-6.24-15.29-16.55-17.17-18.42a7.66,7.66,0,0,0-3.43-2.19S1010.46,396.86,1013.89,395.93Z"/><path class="cls-1" d="M946.46,96.83c1.8-21.06,1.2-24.07,1.2-24.07s10.53-4.22,15.35-3.61c0,0,7.22-28.29,8.12-31.9s2.41-5.72,3-1.81c0,0,26.81,12.84,49.59,24.36,16.52-18.19,9.69-29.35,5-33.95a3.12,3.12,0,0,1-5.63-1.87,1.86,1.86,0,0,1,0-.34,21.39,21.39,0,0,0-5.92-4.37c-3.4-1.36-11.12-13.43-9.83-12.75s2.57,3.12,2.66,3.51,9.55,7.39,9.55,7.39-1.28-1.17-2.38-2.43a12.34,12.34,0,0,1-2.3-3.89c-.46-1.27-3-3.12-4.59-4s-1.47-3.8-1.47-3.8a21.12,21.12,0,0,1,3.49,2.53c.92.88,2.2,2.24,2.75,2.82a15.67,15.67,0,0,0,2.58,1.66c-1.2-1.07-1-1.27-3.49-4.19s-3.95-3.11-3.86-3.4S1012,0,1012,0a9.59,9.59,0,0,1,3,.58c.83.49.83,2.44,1.66,3.7s3.76,5.06,3.76,5.06c-.09-.68.74-2.62-.55-3.21s-3-5.55-3-5.55,3.67,4.29,4.59,5.75,1.2,4,1.56,6.23a12.44,12.44,0,0,0,3,6,5.62,5.62,0,0,1,1.18,2.46,3.12,3.12,0,0,1,2.07,2.93,2.85,2.85,0,0,1-.15.88c5.65,3.45,6.28,10.87,6.79,15.7.32,3-4.88,11.5-10.85,19.95,15.62,7.91,29,15.06,30,16.76,2.4,4.21.6,5.42.6,5.42l-3.31,12.94s-20.47,78.54-22,83.36c0,0-.6,2.41-5.12-.9s-45.14-22-51.76-26.49-26.48-13.24-26.48-13.24l2.41-10.53S944.65,117.9,946.46,96.83Z"/><path class="cls-1" d="M551.2,143.07c-1.45-3-1.09-4.58-1.09-7.47s-1.32-6.26-1-9.4-1.33-13-1.33-13a18.27,18.27,0,0,1,3.13,5.9c.61,1.81,1.57,5.18,1.21,8s1.57,11.44,1.57,11.44c-1.09-4.21,0-7.23-.12-9.88s-.61-8.55-1.57-10.84-2.17-4.46-2.17-4.46l3.25-1.81a12.5,12.5,0,0,1,3.14.48c.6.36,1.08,3.26,1.2,4.82s2.29,8.2,2.29,8.2-.48-3-1.08-5.67-1.33-7.35-1.33-7.35,2.17-.72,2-.36,2.17,4.94,2.41,7.23,3.13,4.82,4.34,8.92-.36,15.06-.36,15.06c1.56-2.17,2.77-11.08,2.77-11.08-.12,1.68.24,7.83-1.57,11.32s-1.32,7.71-.36,11.45a32.59,32.59,0,0,1,.5,8.13,4.54,4.54,0,0,1,1.52,8.13,1,1,0,0,1,0,.1c2.57,5.46,13.64,17.19,25.35,25.64,8.42,6.06,14.63,16.27,17.89,22.23,2-9.35,8.79-43,9.59-45.55l17.71,5.6-2.53,2.71-2.17,13s19.34,2.17,21.15,2.71,5.6,2.89,7.05,3.43S675,208.45,673.39,209s-4.7,2.17-5.07,2.71-.18,6.51-1.44,9.4-2,9-2.71,11.39a57.68,57.68,0,0,1-3.62,7.95c-.72,1.26-3.43,6-3.79,7.77s-2.35,7.41-2.17,9.58.54,9.94-.91,11.21-3.79.36-3.79.36l-1.81,2.71s-7.59-1.63-10.3-2-18.08-3.61-18.08-3.61-1.44,8.13-1.44,9.76.18,4.7.18,4.7l-17.54-.36s-.9-6.15,0-9.4,9.09-44,10.35-49.49a66.13,66.13,0,0,0-8.18-14c-6.87-9-15.9-15.18-21.33-18.8-5-3.33-13.35-15.54-14.64-17.45a4.84,4.84,0,0,1-1.08.14,4.54,4.54,0,0,1-4.52-4.25c-1.94-2-4.43-4.87-4.52-5.73a62,62,0,0,0-2.05-9.88c-1.08-3.25-12.77-15.3-12.77-15.3C546.74,138.49,552.64,146.09,551.2,143.07Z"/><path class="cls-1" d="M444.63,356.15l-9.48-23.84,87.79-27.64s14.63,37,22.67,57.18c9.83,2.43,19.15,7.29,24.71,16.5,12.06,20,23.57,39.13,30.54,48.37a7.73,7.73,0,0,1,4-1.14,7.84,7.84,0,0,1,7.66,6.18c4.58,3.07,11.82,9.59,12,19.85.25,14.7-7.95,34.95-6,48.93s.72,26-.48,29.4c0,0-1.69-19.76-2.17-25.55,0,0,.72,23.86-6,25.79l-6.74-1.45s2.16-10.36,3.61-17.59c0,0-4.82,12.29-7,16.39l-7.47-2.41s-2.49-4.46.48-12.45a33.46,33.46,0,0,1,1.93-4.18c5.78-10.6,12.05-20.24,12.29-24.34,0,0-15.18,21.45-17.35,29.4,0,0,2.89-18.07,8.92-27a39,39,0,0,0,6.74-19.76c0-1.93-3.13-9.89-3.13-14.46,0-2.86-.37-7.78-.54-11.83a7.82,7.82,0,0,1-2.23-12.62,16.15,16.15,0,0,1-2.05-3.27c-1.93-4.34-32-49.41-39.28-54.23a35,35,0,0,0-10.74-4.32c.87,2.2,1.63,4.1,2.2,5.52,5.42,13.55,16,40.37,16.26,41.19s-15.18,6.5-23,9.21-61.78,21.95-61.78,21.95l-8.4-20.05s-13.28-4.88-20.86-15.45-16.53-38.2-15.18-43.62Z"/><path class="cls-1" d="M191.41,174.82a16.76,16.76,0,0,1,2.91-1.94c1.55-.77,1.55-6.2-.39-13.76s5.81-18,5.81-18l24.81-11.83-5.62-51.55,34,33.74c.25-8.27-1.26-16-6.62-20-10.8-8.07-14.48-14.25-16-18.38a4.36,4.36,0,0,1-.62.07,4.44,4.44,0,0,1-4.44-4.44,4.37,4.37,0,0,1,1-2.82,60,60,0,0,1-1-7.86c0-1.75-2.32-6-4.36-9.31s-2.32-5.81-3.78-9.74-2-5.52-1.45-8.57a10.58,10.58,0,0,0-.87-6c1.89,1,2.61,1.16,2.76,4.21s5.52,12.21,5.52,12.21c-.14-.43-2-5.08-2.61-6.68A77.49,77.49,0,0,1,219,25.75l4.36-.29.58,6.39v-.73c0-1.59.73-5.81,1.17-5.81s2-.58,2,.44.15,9.59.15,9.59.43,2.76.29-.58,1.45-9.89,1.45-9.89l-.14,7.27c-.73,4.65,3.49,14.1,5.67,22.24a17.68,17.68,0,0,1-.9,12.39,4.32,4.32,0,0,1,.46,1.93,4.43,4.43,0,0,1-2.58,4c1.81,4.47,5.85,12,13.48,15.39,8.32,3.67,10.05,12.9,9.26,24.67l31.88,31.61-1.74,71.13s-32-21.9-32.37-22.48c0,0-12.79,6.78-19.77,7.94s-18.41-3.29-22.28-5.23S198.19,185.09,196.45,183a33.82,33.82,0,0,0-4.46-4.27l2.52-1.93Z"/><path class="cls-1" d="M783.55,738.3a16.58,16.58,0,0,0-2-2.27,98.13,98.13,0,0,1-9.79-1.21l-.14,2.2a7,7,0,0,1,1.84,1.13c.64.64.85,1.28,1.35,1.49a8.62,8.62,0,0,1,2.62,1.35c.57.64,1.28.71,2,1.21s4.25.85,5.6,1,3.55.43,3.55.43S784.33,739.43,783.55,738.3Z"/><path class="cls-1" d="M855.6,954.22c-1.53-5.37-1.92-6.14-1.53-11.13S853.3,927,853.3,927l5.76-7.68s-.39-5.76-.39-9.6-6.14-12.67-8.83-15.36-9.21-10.36-7.29-13.82,4.22-8.83,2.3-18-16.89-7.3-22.27-6.53-6.14-16.12-6.14-16.12a192.36,192.36,0,0,1-4.89-30.66l-.67-4.52s-6.45-40.53-7.33-46.12-2.94-13.81-4.41-16.46-7.93-7.64-10-8.23-9.7-5.29-10.29-6.76-6.17-5.29-6.17-5.29,4.41-10.87.88-13.22c-2.5-1.67-6.17,3.82-8.53,10.28s-2.64,10.88-2.35,13.52-.58,7.94.3,12.94,1.17,9.11,3.52,10.87,10,7.94,12.64,10.29a23.55,23.55,0,0,1,4.41,5.59s1.77,25,3.53,39.68,3.53,42.62,6.17,52,3.24,11.47,3.24,13.52-3.53,4.12-4.71,6.76-41.74,63.49-47.61,77.9a2.29,2.29,0,0,0-.1.23H856.37A25.64,25.64,0,0,0,855.6,954.22ZM785,743.19c-1.35-.14-4.89-.5-5.6-1s-1.42-.57-2-1.21a8.51,8.51,0,0,0-2.62-1.35c-.5-.21-.71-.85-1.35-1.49a7,7,0,0,0-1.84-1.13l.14-2.2a98.13,98.13,0,0,0,9.79,1.21,16.58,16.58,0,0,1,2,2.27c.78,1.13,5,5.32,5,5.32S786.39,743.33,785,743.19Z"/><path class="cls-1" d="M1007.21,900.4c-.86-12.39-7.27-33.76-5.56-45.73s3.42-17.52,1.28-27.35-1.71-13.24-4.7-16.66-4.7-4.28-4.7-4.28-3.85,6.84-6,6.41-1.28-42.3-3-53.41-2.14-60.26-4.7-65.38-5.56-15.39-3.85-23.51,4.7-16.24,5.13-20.08,6.84-14.53,9-17.52a102.5,102.5,0,0,0,5.56-9.83s-5.56-3.85-9-.43L993.53,609s-1.71-5.13-9.4-1.28-8.55,9-10.68,14.1-11.11,20.94-12.82,23.93-4.28,2.56-7.27,8.12a143,143,0,0,0-6,13.24s-5.13-15.38-12-13.67-5.12,2.56-2.13,7.69,7.26,14.53,8.12,18.38a42.85,42.85,0,0,0,6.83,14.1c3,3.85,6.84,3,7.7,10.68s-.43,47.44-.86,62-3,39.74-4.27,46.57-1.71,17.1-3,19.66S941,840.57,939.26,847s-9.83,17.09-9,31.62,2.13,12.82,2.13,12.82-5.55,9.83-4.27,16.24,3,6,2.14,8.12-6.84,7.27-8.55,11.54c0,.06,0,.1-.07.15q-.18,7.14-.54,14.29c2,3.42,4.16,7.23,3.6,8.64-.74,1.85-3.41.17-4.1.53q-.35,5.61-.75,11.23h103.85C1015.91,938.71,1007.79,908.84,1007.21,900.4Z"/><path class="cls-1" d="M1133,958.78c-2.14-.85-6-2.56-6-6s-1.28-12.39-2.56-13.67-2.14-4.28-3.85-6.84-5.55-9.83-8.12-13.67-10.68-11.54-10.68-11.54l-2.56-3.42s-9.41-31.2-12.4-49.14-4.27-44.45-4.27-46.58,3.42,0,3-3.42-2.56-3.85-1.71-6.84,3-9.4,5.13-11.54,6.84-11.11,8.55-13.67,4.27-18.38,6.83-21.8,7.27-6,7.27-7.26-4.27-4.27-8.55-1.28-10.68,10.68-10.68,10.68-4.27-29.91-10.68-29.91-2.14,10.25-.43,14.53S1083,751.1,1083,751.1l-.43,2.56L1080,751.1s-2.14-12.82-5.56-12.82-7.26,1.28-8.12,5.13c0,0-6.41-.86-7.69,3.42l-1.28,4.27s-4.7,0-6.41,2.56-3,9-2.14,10.69.43,12,.86,16.24S1051,793,1051,793l2.13,4.27s-4.27.86-3,4.28,3.85,2.56,3.85,2.56,1.71,8.12,1.28,12.39-3.85,43.16-3,50.86.43,35,2.14,41c0,0-27.78,26.92-26.93,31.62a212.45,212.45,0,0,0,5.26,22.18h102.19C1134.36,960.42,1133.72,959.06,1133,958.78Z"/><path class="cls-1" d="M596.53,961.67c-9-4.69-10-15.74-12.72-20.1S571.08,902.39,569.74,898s0-13.73,0-20.09-2.68-11.39-2.34-18.08,3.35-33.15,3.35-33.15a90.92,90.92,0,0,1-9-2.35s1-11,3.35-13.73,11.72-12,13.06-15.07,4.36-17.08,4.36-19.08a16.65,16.65,0,0,1,1-4.69s13.06-2.35,14.4-2.68c0,0,3-5.69-8.37-3.69l-5-2.34s16.74-1,20.42-1.67,4.69-4.69,0-5-14.73.34-14.73.34-1.34-4.69-4.35-4.36-8,3.69-11.39,3.69h-9.38s24.11-26.46,24.45-31.81c0,0-1.68-6.37-7.7,1S572.42,736,572.42,736s5-18.42,1.67-17.75-12.72,23.1-14.73,27.12-6,8.71-8,9.38-5.69,1.34-6.69,5.36a52.39,52.39,0,0,0-1.68,10c-.33,4-.67,15.07-2,20.76s-1.34,11-3.68,16.08-5.36,9.37-5,11.38-3-.67-3-.67-1.67,14.4-2,17.08-3.68,12.73-2.34,21.43-3,18.09-3,25.79,4.68,43.2,4.35,54.58c-.23,7.8-1.72,17.49-3.06,25.61h74.19C597.05,962,596.78,961.8,596.53,961.67Z"/><path class="cls-1" d="M255.29,741.14a10.82,10.82,0,0,0,2.78-1.1c.66-.22,1.83-.8,2.05-.88s-.14-.66-1.17-.88-11,.22-11,.22,2.92,2.42,3.87,3S253.9,741.36,255.29,741.14Z"/><path class="cls-1" d="M262,731.48a10.47,10.47,0,0,1,2.49,1.46c.22.22,1.54.44,1.83.15a21,21,0,0,1,1.76-1.83c.22-.07-.52-.8-1.76-1s-11.34-.3-11.34-.3a5.32,5.32,0,0,0,2.27,1A34.82,34.82,0,0,1,262,731.48Z"/><path class="cls-1" d="M252.18,959.07s-2.36-14.14-3.77-17.91-2.36-39.6-4.24-50.91-5.19-23.1-5.19-25-4.71-19.32-4.24-22.62-1.89-9.43-1.89-10.84,1-13.2,1-13.2-.47-10.37,1.41-12.73-1.41-8.48-1.41-8.48-.47-16,5.18-18.39,9-8.48,12.26-9.9,10.84-9.9,13.2-15.08.94-7.07,3.77-9,3.77-6.6,8.48-8.48,8.49-4.72,9.9-7.07-.81-10.4-9.44-5.11c0,0-5.1.19-7.51-.46s-10.76-1.77-12.15-2a21.41,21.41,0,0,1-4.37-1.49c-.92-.37-1.57-.37-.83-1.39s5.38-4.45,9.19-4.64,6.95-1.48,12.43-3.71,7-3.06,7.14-5.1-.28-5-3.15-3.71a19.18,19.18,0,0,1-6.87,1.76,45.59,45.59,0,0,0-7,1.3,48.8,48.8,0,0,1-5,1.39c-1,.09-2.5.74-3.52.74a14.26,14.26,0,0,0-3.53.47,3.88,3.88,0,0,1-2.6-.19,12.56,12.56,0,0,1,3.53-2.5c2-.93,2.13-2,2.69-2.23s7.05-.65,9.65-1.48,4.17-3.44,4.08-4.46a3.36,3.36,0,0,0-1.21-1.9s-4.84.14-7.33,0a13.22,13.22,0,0,0-6.75,1.32,74.34,74.34,0,0,1-10.41,3.52c-1.76.29-3.22,2-4.69,4.69s-5.28,12.76-7.77,13.93-6.9,2.35-8.07,4-2,6.16-2.64,9.68-4.55,27.42-6.6,33-5.72,10.7-8.06,14.37-1,5.86-1.76,9.68l-.74,3.81a11.56,11.56,0,0,0-2.49,4.55c-.88,2.93-4.84,17.15-4.84,18.18s-1.76.88-1.91,3.81-2.49,11.44-5.72,17.16a24.15,24.15,0,0,0-2.93,13.93c.15,3.23-1.32,7.78-3.81,12.18s-5,15.25-6.6,26.1-3.81,14.23-7.92,23.46-6.6,10.42-5.28,22c0,0,2.58,13.23,5,26.9h87.66A15.82,15.82,0,0,0,252.18,959.07Zm14.16-228.83c1.24.22,2,1,1.76,1a21,21,0,0,0-1.76,1.83c-.29.29-1.61.07-1.83-.15a10.47,10.47,0,0,0-2.49-1.46,34.82,34.82,0,0,0-4.75-.51,5.32,5.32,0,0,1-2.27-1S265.1,730,266.34,730.24Zm-7.39,8c1,.22,1.39.81,1.17.88s-1.39.66-2.05.88a10.82,10.82,0,0,1-2.78,1.1c-1.39.22-2.48,1-3.44.36s-3.87-3-3.87-3S257.93,738.07,259,738.28Z"/><path class="cls-1" d="M469.55,923.51c-2.49-3.33-2.15-6.78-.21-10.2-1.54-1.16-2.59-2.18-2.59-2.72,0-1.93-2.32-18.12-3.09-21.2s-1.16-4.63-1.16-4.63,18.13-44.73,26.61-59,18.12-18.12,22.36-18.89,10.8-7.33,13.88-13.11,6.56-9.64,6.17-12,.77-13.49,1.16-15-3.47-5-8.87,5.39-5,12.73-5,12.73-8.1-1.16-9.64-1.16-2.7-4.63-1.54-8.48.77-9.64,3.47-13.5,7.32-12.72,10.41-15,8.09-5.4,8.48-6.56,3.85-3.85-.77-5.4-12.34,5.79-18.51,10a51.12,51.12,0,0,0-8.87,7.33s-3.85-3.86,7.33-10.8,16.19-11.18,10.41-15c0,0-10.8,3.86-15,8.1,0,0-6.17.38-9.25,1.54a82.66,82.66,0,0,0-10.41,5.4c-1.16.77-7.71,15.81-9.64,18.89s-.77,6.56,0,8.87,6.17,11.95,3.85,15.42-4.62,4.24-6.55,8.49-14.27,17.35-17,20.43-13.89,14.27-13.89,14.27-.38-4.25-1.92-5,0-13.49-5-17.73-20.43-13.5-35.47-12-42,1.54-46.27,1.54-13.88-.77-13.88-.77-17,27-16.19,32.38-.38,9.64-.77,13.88,1.16,16.58,1.54,19.67,2.32,19.66,1.93,25.83,1.54,24.68,3.08,30.85,4.63,10.41,8.1,14.65,5.4,7.32,9.25,12.72,6.94,9.25,6.17,12a34.43,34.43,0,0,0-.9,6.46H479.09C482.08,950.07,480.15,937.06,469.55,923.51Z"/><path class="cls-1" d="M728.92,960.89c-2.55-5.87-3.32-7.15-4.08-6.38s-15.05-25-32.14-44.38-28.57-38.26-31.89-48-3.31-21.93-8.93-30.86-15-27.29-16.07-26.78c0,0-5.86-16.07-9.18-15.82,0,0,1.28-4.08-4.59-1.78s.26,25,2.81,34.18c0,0-5.87-12.76-8.68-20.41,0,0-9.43-5.61-3.06,18.37s7.4,25.5,7.15,26.78.25,8.93.25,8.93l-2.81.25s-4.84-11.48-10.2-17.09S594,831.31,596,837.43s3.32-2,6.89,13.26,4.85,11.74,6.38,16.33,9.43,10,13.26,12.75,12.5,5.1,19.13,13.27a185.39,185.39,0,0,1,18.11,28.06c4.08,7.9,15.31,25.5,19.39,39.28.18.63.35,1.2.53,1.78h49.85A13.73,13.73,0,0,1,728.92,960.89Z"/><path class="cls-1" d="M912.09,938.45c-4.08-6.6-7.54-14.46-7.85-16.66s-5-41.16-6-57.19-.95-53.42.94-58.14,6.6-10.05,7.54-15.4,0-9.42,3.46-15.08,8.8-12.26,11.31-16.65A44.06,44.06,0,0,0,925.61,749c.31-1.25-3.78-5-11,2.83s-8.17,14.14-14.14,14.77-10.06,1.89-11.63,0-8.17-8.48-8.17-9.42,5.65-12.89,4.71-15.4-4.4-4.09-4.71-1-2.2,5.35-3.14,6.92l-.95,1.57s-6.91-6-6.91-8.8,1.88-15.71-.94-19.17-4.4-2.2-4.4-2.2l-1,6.29s-1.57-15.4-9.74-12.57c-.94.32,1.57,7.85,1.57,7.85s-3.14.32-2.51,2.2,2.2,6.29,2.2,10.37,1.88,6.6,2.51,12.26,4.09,9.74,4.72,14.14.94,10.68,2.2,13.83,5.65,13.2,5.34,16,1.88,9.43,2.2,13.83a39.42,39.42,0,0,1-.32,10.69c-.62,3.45,0,8.79,0,13.82s-1.88,31.74-2.51,44.63a266.41,266.41,0,0,1-3.46,28.59s-7.22,24.52-8.48,30.8a36.09,36.09,0,0,0,1.88,19.8c.56,1.45,1.88,5.29,3.65,10.51h58.6C917.78,951.85,914.1,941.69,912.09,938.45Z"/><path class="cls-1" d="M1240.86,948.65a62,62,0,0,1,1.25-7.55s5.5.79,6.76-.62,0-1.89-.63-3-4.4-3.61-3.77-5.5,1.89-19-.94-25.61-2.83-7.86-7.07-13-6.45-10.69-7.23-11.94-2.51-3-3.46-5.19-2-3.77-3.45-7.07-.79-4.56-2.68-7.54-2.82-4.56-4.71-5.82-10.21-4.71-10.21-4.71,4.87-39,6.13-41,14-27.81,14.45-28.91-9.27-7.86-9.58-9,4.71-20.58,6.6-24,12.57-18.38,14.45-33.15,1.89-20.58,2.36-21.37,5.65-11.63,7.23-12.57,7.54-4.24,8.32-5,2.83-3.46,1.26-4.4-7.07-.47-11,1.26-10,3.93-11.15,4.71-2.83-.94-1.1-4.24,15.24-22.31,16.49-24,3.46-4.56.48-7.23-7.86,6-9.59,6.92-4.56,5-5.81,6.44-9.27,9.11-10.53,10.68l-2.51,3.14s.78-10.52,2.35-13,11.16-20.89,11.63-23.72-.16-4.56-3.46-4.25-5.65,5.19-7.54,8.18-9,14-10.68,15.86-3.15,3.15-3.46,5.35a29.08,29.08,0,0,1-.94,4.71c0-.47-1.89-4.87-1.57-7.23s1.41-9.58,1.88-11.47,2.83-8.17,2.83-9.74,2.3-7.62-4.82-6.25c-3.37.66-3.57,6.81-5.84,10.87s-2.43,9.41-3.73,12.65-2.59,6.16-1.62,9.73a86.44,86.44,0,0,1,2.92,12.65c.49,4.38.81,13,.81,16.7s.49,14.76-.32,24.17-.81,14.76-2.11,16.7a58.8,58.8,0,0,0-6.81,14.11c-2.44,7.3-5,15.25-5,15.25a8,8,0,0,0-5,5.67c-1,4.38-12.81,28.55-14.76,32.11s-5.51,12.65-6.81,14.76a77.28,77.28,0,0,0-5,11.68c-.32,1.62-9.73,15.41-12.65,18.49s-13.46,11.51-13,11.35,2.27,3.73,2.6,6.49-.82,5.51.16,8.59a40.4,40.4,0,0,1,1.29,5s-4,9.08-5.51,24.65-2.11,20.92-2.11,22.87-.16,5.19-.16,5.19-5.19,5.51-7.78,10.86c0,0-14.61,11.12-25.24,23.92h150.22C1241.16,957.47,1240.44,951.78,1240.86,948.65Z"/><path class="cls-1" d="M1630.07,941.38c-1.67-8-7.71-30.49-11.39-40.54s-27.47-46.24-30.49-54.61-14.74-29.82-14.74-31.83-2-1-1.68-2-5-5-4.35-13.74,7-27.81,7-31.83-2.34-5.36-2.68-8.37,0-8.71-.33-12.73-1.68-6.37-3.35-9.72-7.37-15.41-7.71-18.43-5.36-3.68-8.71,1.34l.34,4.69a4.07,4.07,0,0,0,0,5.7l.33,11.05s-3-10.38-7.37-9-4,8.71-2.68,16.08,1.34,11.39.33,14.41-3,6.7-3.68,8.37-1,4.36-2,5.36-9.72,4.36-11.39,5-7.37,0-7.37,0-15.42-13.4-23.79-13.4-9.38,3.68-9.38,3.68,6.7,5,9,9.38,6,4.7,8.38,7,7,6.7,8,9,8.38,9.38,13.4,10.72,11.73,8.37,12.06,11.39a15.44,15.44,0,0,0,1.68,5.36l-1.68,2.35s4,5.36,5.7,8.37,3.35,17.09,4.35,19.43,2.69,6.7,2.35,8.38,1.68,8,1.68,9.72.67,9.38.33,16.75-.33,16.42,0,18.76-4.36,3.35-1.67,9.38,4.69,6.7,4.35,11.73-5.7,9-4,11.73,4.36,6.7,5.36,10.38.34,9.72-.67,11.39h78.78A191.52,191.52,0,0,0,1630.07,941.38Z"/><path class="cls-2" d="M817.78,714.41a19.07,19.07,0,0,1,2.2-2.52s8.63-.7,10.83-1.33L831,713a7.42,7.42,0,0,0-2,1.26c-.71.7-.95,1.41-1.49,1.65a9.15,9.15,0,0,0-2.91,1.49c-.63.7-1.41.78-2.2,1.33s-4.71.94-6.2,1.1-3.92.47-3.92.47S816.92,715.66,817.78,714.41Z"/><path class="cls-2" d="M737.19,962.16H861.47a2,2,0,0,1-.11-.26c-6.51-15.94-51.4-83.28-52.7-86.2s-5.2-5.21-5.2-7.49.65-4.55,3.57-15,4.88-41.31,6.84-57.58,3.9-43.91,3.9-43.91a26.31,26.31,0,0,1,4.88-6.19c2.93-2.6,11.38-9.43,14-11.38s2.92-6.51,3.9-12,0-11.38.33-14.31,0-7.81-2.61-15-6.67-13.23-9.43-11.39c-3.9,2.6,1,14.64,1,14.64s-6.19,4.23-6.84,5.85-9.1,6.84-11.38,7.49-9.44,6.18-11.06,9.1-3.91,12-4.88,18.22-8.12,51-8.12,51l-.74,5a211.57,211.57,0,0,1-5.41,33.93s-.85,18.69-6.8,17.84-22.52-3-24.64,7.23.42,16.14,2.55,20-5.1,12.32-8.08,15.29-9.77,12.75-9.77,17-.42,10.62-.42,10.62l6.37,8.5s-1.27,12.32-.85,17.85,0,6.37-1.7,12.32A28.33,28.33,0,0,0,737.19,962.16Zm75-241.87s4.71-4.63,5.57-5.89a19.39,19.39,0,0,1,2.2-2.51s8.63-.7,10.83-1.33L831,713a7.42,7.42,0,0,0-2,1.26c-.71.7-.95,1.41-1.49,1.65a9.15,9.15,0,0,0-2.91,1.49c-.63.7-1.41.78-2.2,1.33s-4.71.94-6.2,1.1S812.21,720.29,812.21,720.29Z"/><path class="cls-2" d="M18.29,893.81c.95-13.72,8-37.37,6.15-50.61S20.65,823.81,23,812.93s1.89-14.66,5.2-18.44,5.2-4.73,5.2-4.73,4.26,7.57,6.62,7.09,1.42-46.82,3.31-59.11,2.37-66.69,5.21-72.36,6.15-17,4.25-26-5.2-18-5.67-22.23-7.57-16.08-9.93-19.39a112.88,112.88,0,0,1-6.15-10.88s6.15-4.26,9.93-.47l-7.57-15.14s1.89-5.67,10.41-1.42,9.46,9.94,11.82,15.61S68,608.62,69.84,611.93s4.73,2.84,8,9a159,159,0,0,1,6.62,14.66s5.68-17,13.24-15.13,5.68,2.84,2.37,8.51-8,16.08-9,20.34a47.11,47.11,0,0,1-7.57,15.6c-3.31,4.26-7.56,3.31-8.51,11.83s.48,52.49.95,68.57,3.31,44,4.73,51.55,1.89,18.92,3.31,21.76,7.56,9,9.46,16.08,10.87,18.92,9.93,35-2.37,14.18-2.37,14.18,6.15,10.88,4.73,18-3.31,6.62-2.36,9,7.57,8,9.46,12.77c0,.06.05.11.07.17q.21,7.9.6,15.81c-2.16,3.79-4.61,8-4,9.56.82,2.05,3.77.19,4.54.59q.38,6.21.82,12.43H0C8.65,936.21,17.64,903.15,18.29,893.81Z"/><path class="cls-2" d="M471.83,958.42c2.37-.94,6.62-2.83,6.62-6.62s1.42-13.71,2.84-15.13,2.37-4.73,4.26-7.57,6.15-10.88,9-15.13,11.83-12.77,11.83-12.77l2.84-3.78s10.4-34.53,13.71-54.39,4.73-49.19,4.73-51.55-3.78,0-3.31-3.79,2.84-4.25,1.89-7.56-3.31-10.41-5.67-12.77-7.57-12.3-9.46-15.14-4.73-20.33-7.57-24.12-8-6.62-8-8,4.73-4.73,9.46-1.42,11.82,11.83,11.82,11.83,4.73-33.11,11.83-33.11,2.36,11.35.47,16.08-1.89,15.14-1.89,15.14l.47,2.83,2.84-2.83s2.36-14.19,6.15-14.19,8,1.42,9,5.67c0,0,7.1-.94,8.51,3.79l1.42,4.73s5.21,0,7.1,2.83,3.31,9.94,2.36,11.83-.47,13.24-.94,18-1.42,13.71-1.42,13.71l-2.37,4.73s4.73,1,3.31,4.73-4.25,2.84-4.25,2.84-1.89,9-1.42,13.72,4.25,47.76,3.31,56.28-.47,38.78-2.37,45.4c0,0,30.74,29.79,29.8,35a232.65,232.65,0,0,1-5.82,24.55H469.74C470.35,960.23,471.07,958.73,471.83,958.42Z"/><path class="cls-2" d="M1281.86,961.61c10-5.19,11.12-17.42,14.09-22.23S1310,896,1311.51,891.2s0-15.2,0-22.24,3-12.6,2.6-20-3.71-36.69-3.71-36.69a102.21,102.21,0,0,0,10-2.59s-1.12-12.23-3.71-15.2-13-13.34-14.45-16.68-4.82-18.9-4.82-21.12a18.42,18.42,0,0,0-1.11-5.19s-14.46-2.59-15.94-3c0,0-3.33-6.3,9.27-4.08l5.55-2.59s-18.52-1.12-22.6-1.86-5.19-5.19,0-5.56,16.3.37,16.3.37,1.49-5.18,4.82-4.81,8.9,4.07,12.6,4.07h10.38s-26.68-29.28-27-35.2c0,0,1.85-7.05,8.52,1.11s10.38,11.86,10.38,11.86-5.56-20.39-1.86-19.65,14.09,25.58,16.31,30,6.67,9.64,8.89,10.38,6.3,1.48,7.42,5.93a58.16,58.16,0,0,1,1.85,11.12c.37,4.45.74,16.68,2.22,23s1.49,12.23,4.08,17.78,5.93,10.38,5.56,12.6,3.33-.74,3.33-.74,1.86,15.94,2.23,18.9,4.07,14.09,2.59,23.72,3.34,20,3.34,28.54-5.19,47.81-4.82,60.41c.25,8.63,1.9,19.35,3.39,28.34H1281C1281.28,962,1281.59,961.76,1281.86,961.61Z"/><path class="cls-2" d="M1373.37,718.75a12,12,0,0,1-3.08-1.21c-.72-.24-2-.89-2.26-1s.16-.73,1.29-1,12.15.24,12.15.24-3.24,2.67-4.29,3.32S1374.91,719,1373.37,718.75Z"/><path class="cls-2" d="M1365.92,708.07a11.31,11.31,0,0,0-2.75,1.62c-.24.24-1.7.48-2,.16a22.81,22.81,0,0,0-1.94-2c-.24-.08.57-.89,1.94-1.13s12.55-.32,12.55-.32a5.89,5.89,0,0,1-2.51,1.13A37.59,37.59,0,0,0,1365.92,708.07Z"/><path class="cls-2" d="M1374.31,962.16h97c2.63-15.12,5.49-29.76,5.49-29.76,1.46-12.82-1.3-14.12-5.84-24.35s-7-13.95-8.77-26-4.54-24-7.3-28.89-4.39-9.9-4.22-13.48a26.72,26.72,0,0,0-3.25-15.41c-3.57-6.33-6.17-15.75-6.33-19s-2.11-3.09-2.11-4.22-4.38-16.88-5.35-20.13a12.94,12.94,0,0,0-2.76-5l-.82-4.22c-.81-4.22.65-6.65-1.94-10.71s-6.66-9.74-8.93-15.91-6.65-32.62-7.3-36.52-1.63-8.92-2.92-10.71-6.17-3.08-8.93-4.38-7-12.5-8.6-15.42-3.25-4.87-5.2-5.19a80.35,80.35,0,0,1-11.52-3.9,14.8,14.8,0,0,0-7.47-1.46c-2.76.16-8.11,0-8.11,0a3.75,3.75,0,0,0-1.34,2.11c-.1,1.13,1.64,4,4.52,4.93s10.06,1.44,10.68,1.64.72,1.44,3,2.47a14,14,0,0,1,3.9,2.77,4.27,4.27,0,0,1-2.88.2,15.56,15.56,0,0,0-3.9-.51c-1.13,0-2.77-.72-3.9-.82a54,54,0,0,1-5.55-1.54,49.88,49.88,0,0,0-7.7-1.44,21.26,21.26,0,0,1-7.6-2c-3.18-1.44-3.69,1.85-3.49,4.11s1.85,3.18,7.91,5.65,9.55,3.9,13.76,4.1,9.34,4,10.16,5.14.11,1.13-.92,1.54a23.88,23.88,0,0,1-4.83,1.64c-1.54.21-10.78,1.44-13.45,2.16s-8.31.51-8.31.51c-9.55-5.85-12,3-10.45,5.65s5.74,5.74,11,7.83,6.26,7.3,9.39,9.39,1.56,4.17,4.17,9.91,11,15.13,14.61,16.69,7.3,8.35,13.56,11,5.74,20.34,5.74,20.34-3.65,6.79-1.56,9.39,1.56,14.09,1.56,14.09,1,13,1,14.61-2.61,8.34-2.09,12-4.7,22.95-4.7,25-3.65,15.13-5.74,27.65-3.13,52.17-4.69,56.34-4.17,19.82-4.17,19.82A17.39,17.39,0,0,0,1374.31,962.16Zm-.62-255.79a5.89,5.89,0,0,1-2.51,1.13,37.59,37.59,0,0,0-5.26.57,11.31,11.31,0,0,0-2.75,1.62c-.24.24-1.7.48-2,.16a22.81,22.81,0,0,0-1.94-2c-.24-.08.57-.89,1.94-1.13S1373.69,706.37,1373.69,706.37Zm7.78,9.47s-3.24,2.67-4.29,3.32-2.27-.16-3.81-.41a12,12,0,0,1-3.08-1.21c-.73-.24-2-.89-2.26-1s.16-.73,1.29-1S1381.47,715.84,1381.47,715.84Z"/><path class="cls-2" d="M1143.67,919.38c2.76-3.68,2.38-7.5.23-11.28,1.71-1.29,2.87-2.42,2.87-3,0-2.14,2.56-20.06,3.41-23.47s1.28-5.12,1.28-5.12-20-49.5-29.44-65.29-20-20.05-24.75-20.91-12-8.1-15.36-14.51-7.25-10.66-6.83-13.22-.85-14.94-1.28-16.65,3.84-5.54,9.82,6,5.54,14.08,5.54,14.08,9-1.28,10.67-1.28,3-5.12,1.71-9.39-.85-10.67-3.84-14.93-8.11-14.08-11.52-16.64-9-6-9.39-7.26-4.27-4.27.85-6,13.66,6.4,20.49,11.09a57.25,57.25,0,0,1,9.81,8.11s4.27-4.27-8.11-12-17.92-12.37-11.52-16.64c0,0,12,4.27,16.64,9,0,0,6.83.43,10.24,1.71a91.83,91.83,0,0,1,11.52,6c1.29.86,8.54,17.5,10.67,20.91s.86,7.25,0,9.82-6.82,13.22-4.26,17.06,5.12,4.7,7.25,9.39,15.79,19.2,18.77,22.62,15.37,15.79,15.37,15.79.42-4.7,2.13-5.55,0-14.94,5.55-19.63,22.61-14.94,39.26-13.23,46.51,1.71,51.2,1.71,15.36-.86,15.36-.86,18.78,29.87,17.92,35.85.43,10.67.86,15.36-1.28,18.35-1.71,21.76-2.56,21.77-2.13,28.59-1.71,27.31-3.42,34.14-5.12,11.52-9,16.21-6,8.11-10.24,14.09S1272.65,952,1273.5,955a37,37,0,0,1,1,7.15H1133.11C1129.8,948.78,1131.93,934.38,1143.67,919.38Z"/><path class="cls-2" d="M1498,960.75c2.82-6.49,3.67-7.9,4.52-7.06s16.65-27.66,35.57-49.12,31.61-42.34,35.29-53.07,3.66-24.28,9.88-34.16,16.65-30.2,17.78-29.64c0,0,6.49-17.78,10.16-17.5,0,0-1.41-4.52,5.08-2s-.28,27.67-3.1,37.83c0,0,6.49-14.11,9.6-22.58,0,0,10.44-6.21,3.38,20.32s-8.18,28.23-7.9,29.64-.28,9.88-.28,9.88l3.1.29s5.37-12.71,11.3-18.92,15-7.34,12.7-.56-3.67-2.26-7.62,14.68-5.37,13-7.06,18.07-10.45,11-14.68,14.11-13.83,5.65-21.17,14.68a205.54,205.54,0,0,0-20,31.05c-4.51,8.75-16.93,28.23-21.45,43.48-.21.69-.4,1.33-.59,2h-55.17C1497.58,961.6,1497.82,961.12,1498,960.75Z"/><path class="cls-2" d="M945.41,935.92c4.52-7.3,8.34-16,8.69-18.43s5.57-45.56,6.61-63.3,1-59.13-1-64.34-7.31-11.13-8.35-17.05,0-10.43-3.83-16.69-9.74-13.56-12.52-18.43a48.42,48.42,0,0,1-4.52-11.48c-.35-1.39,4.17-5.56,12.17,3.13s9,15.65,15.65,16.35,11.13,2.08,12.87,0,9.05-9.39,9.05-10.44-6.27-14.26-5.22-17,4.87-4.52,5.22-1,2.43,5.91,3.47,7.65l1.05,1.74s7.65-6.61,7.65-9.74-2.09-17.39,1-21.21,4.87-2.44,4.87-2.44l1,7s1.74-17,10.79-13.92c1,.36-1.74,8.7-1.74,8.7s3.47.35,2.78,2.43-2.44,7-2.44,11.48-2.08,7.3-2.78,13.57-4.52,10.78-5.21,15.65-1.05,11.82-2.44,15.3-6.26,14.61-5.91,17.74-2.09,10.43-2.44,15.3a44,44,0,0,0,.35,11.82c.7,3.83,0,9.74,0,15.31s2.09,35.12,2.78,49.38a295.64,295.64,0,0,0,3.83,31.65s8,27.13,9.39,34.09a39.88,39.88,0,0,1-2.09,21.91c-.61,1.6-2.07,5.85-4,11.63H935.3C939.11,950.75,943.18,939.51,945.41,935.92Z"/><path class="cls-2" d="M600.15,947.2a68.54,68.54,0,0,0-1.39-8.34s-6.09.87-7.48-.7,0-2.09.7-3.3,4.86-4,4.17-6.09-2.09-21,1-28.34,3.13-8.7,7.83-14.44,7.13-11.82,8-13.21,2.78-3.31,3.82-5.74,2.26-4.18,3.83-7.83.87-5,3-8.34,3.13-5,5.22-6.44,11.3-5.22,11.3-5.22-5.39-43.12-6.78-45.38-15.47-30.78-16-32,10.26-8.69,10.61-9.91-5.22-22.78-7.3-26.61-13.91-20.34-16-36.69-2.09-22.78-2.61-23.65-6.26-12.87-8-13.91-8.34-4.7-9.21-5.57-3.13-3.82-1.4-4.86,7.83-.53,12.18,1.39,11.13,4.34,12.34,5.21,3.13-1,1.22-4.69-16.87-24.69-18.26-26.61-3.82-5-.52-8,8.7,6.61,10.61,7.65,5,5.57,6.43,7.13,10.26,10.09,11.65,11.83l2.79,3.48s-.87-11.65-2.61-14.44-12.35-23.12-12.87-26.25.17-5.05,3.82-4.7,6.26,5.74,8.35,9,9.91,15.48,11.83,17.57,3.47,3.47,3.82,5.91a32.78,32.78,0,0,0,1,5.22c0-.53,2.08-5.39,1.73-8s-1.56-10.61-2.08-12.7-3.13-9-3.13-10.78-2.55-8.44,5.33-6.91c3.73.72,4,7.53,6.46,12s2.69,10.41,4.13,14,2.87,6.82,1.79,10.77-2.69,9.15-3.23,14-.89,14.36-.89,18.49-.54,16.33.36,26.74.89,16.33,2.33,18.49a65.76,65.76,0,0,1,7.54,15.61c2.69,8.08,5.56,16.87,5.56,16.87a8.91,8.91,0,0,1,5.57,6.29c1.07,4.84,14.17,31.59,16.33,35.53s6.1,14,7.54,16.34a85.65,85.65,0,0,1,5.56,12.92c.36,1.8,10.77,17.05,14,20.46s14.9,12.75,14.36,12.57-2.51,4.12-2.87,7.18.89,6.1-.18,9.51a45.21,45.21,0,0,0-1.44,5.56s4.49,10,6.1,27.28,2.34,23.16,2.34,25.31.18,5.74.18,5.74,5.74,6.11,8.61,12c0,0,16.16,12.31,27.93,26.47H599C599.82,957,600.6,950.67,600.15,947.2Z"/><path class="cls-2" d="M204,939.16c1.86-8.9,8.53-33.74,12.61-44.86s30.41-51.17,33.74-60.44,16.32-33,16.32-35.23,2.22-1.11,1.85-2.23,5.56-5.56,4.82-15.2-7.78-30.77-7.78-35.22,2.59-5.94,3-9.27,0-9.64.37-14.09,1.86-7,3.71-10.76,8.16-17.05,8.53-20.39,5.93-4.08,9.64,1.48l-.37,5.19a4.5,4.5,0,0,1,0,6.31L290,716.68s3.34-11.49,8.16-10,4.45,9.64,3,17.8-1.48,12.61-.37,15.94,3.34,7.42,4.08,9.27,1.11,4.82,2.23,5.94,10.75,4.82,12.6,5.56,8.16,0,8.16,0,17.06-14.83,26.33-14.83,10.38,4.08,10.38,4.08-7.42,5.56-10,10.38-6.68,5.19-9.27,7.78-7.79,7.42-8.9,10-9.27,10.38-14.83,11.86-13,9.27-13.35,12.61a16.93,16.93,0,0,1-1.86,5.93l1.86,2.6s-4.45,5.93-6.31,9.27-3.7,18.91-4.82,21.5-3,7.42-2.59,9.27-1.86,8.9-1.86,10.76-.74,10.38-.37,18.54.37,18.17,0,20.76,4.82,3.71,1.86,10.38-5.19,7.42-4.82,13,6.3,10,4.45,13-4.82,7.42-5.94,11.49-.37,10.76.75,12.61H201.34C201.86,954.68,202.85,944.58,204,939.16Z"/><path class="cls-3" d="M546.82,960.17c-2.51-6.28-28.26-28.26-35.8-32.66s-8.16-5-12.56-5.65-19.47-11.94-22-12.57-21.36-11.93-21.36-11.93-.71-14.19-1.62-16.19a16.77,16.77,0,0,0-2.36-3.63s.91-3.26.73-4,11.07-21.78,11.79-25.95c0,0,1.45,3.63,4.9,3.81s7.81-4.54,9.26-7.8,5.62-13.43,5.62-17.24-2.17-5.63-4.9-6.17a8.53,8.53,0,0,0-4.53.18s2.9-7.81,3.26-14.52,1.82-16.15,2.36-16.15,45.17-19.62,58.19-26c.26,2.81.87,8.54,2.16,15.63,1.84,10.14,4.61,13.6,13.37,19.14s3.92,12.91,3.92,12.91l-3.69,1.38c-3.69,1.38-1.15,4.61-1.38,5.53s-.7,7.38-1.85,12,3.23,16.37,3.23,16.37c-.92-4.15-1.15-13.6-1.15-13.6,2.3,2.07,4.84,17.05,4.84,17.05,5.3-4.61-.23-18-.23-18,2.3,2.54,3.23,9.92,3.23,9.92,1.15-3-.7-6.69-2.08-10.15s0-9.45,2.77-12.91-2.08-7.14-2.08-7.14c4.15-10.61-6-14.76-13.37-22.6-6-6.38-6.36-21-6.28-26.24a20.62,20.62,0,0,0,1.93-1.06,17,17,0,0,0-2.73-3.08c-.9-.55-107.43-59.35-109.25-60.26s-7.26,4.18-11.79,6-90.93,33.21-92.2,34.48a2.89,2.89,0,0,0,.73,4.36c1.45.91,51,30.67,51,30.67s-2.91,13.79-3.27,16.7-1.45,9.8-1.27,11.61.36,4,.36,4-4-1.81-7.8,2.54-2.18,7.44-2.18,12.71-1.09,10-.54,10.71,4.17,9.61,8.89,9.43,6-1.45,6-1.45,1.81,4.72,1.81,5.26S370.2,857.76,368,861.94s-8,8.53-9.07,10-4.9,0-4.9,0-20-4.9-24.14-4.18c0,0-16.33-6.17-19.05-7.07s-8.35-3.09-8.9-4.54-2.9-7.62-2.54-9.07,3.63-3.82,2.54-10.53a47,47,0,0,0-4.9-13.43s-11.07-1.81-17.24-1.81-13.43,3.44-16-3.27-7.44-26.32-10.52-31.22S237.9,765.57,239,760.49s.18-20.51,0-28.49c0,0,6.53,1.63,7.26-12.89s-.73-26,1.45-28,9.8-9.25,10.35-13.06.18-16.52,2-20.15,2.18-11.25,3.63-13.43,8.89-9.07,13.25-12.34,7.44-7.8,8.17-8.53,2.36-4.72,1.45-11.79.91-10.17.54-11.07-1.81-2.36-1.45-3.27,5.08-8.53,4.54-12.89-10.17-5.08-12.34-2.9l-2.18,2.18s-7.44-3.81-9.62-3.63-8.35-.36-11.07,1.63a19.46,19.46,0,0,0-4.36,4.54s-5.8-2.18-8.52-1.09-5.63,3.63-6.36,3.45-5.8.18-7.8,1.81-4.72,9.26-5.63,13.07-2.68,17.53-2.68,17.53-7.18-2-14.36,15.66A84.18,84.18,0,0,1,187,651.24c-10.44,5.87-40.46,17.62-50.9,47.63s-17,45-21.54,49.6-22.18,32-31.32,57.42S65.6,846.35,65.6,846.35s-9.79,1.31-11.09,7.18S55.81,884.2,53.2,894s-7.83,21.53-9.78,26.75-1.31,19.58,0,23.49c.71,2.13.84,10.24,2.17,17.93H547.67C547.33,961.4,547,960.7,546.82,960.17Z"/><path class="cls-3" d="M977.86,935.13c-21.35-4.24-32.66-7.22-32.66-7.22s0-3.77-5.81-3.62-12.56.16-12.56.16l-2.2,2s-13.82-1.41-15.7-.94-2.2-8.64-2.36-9.74,1.41-.62,1.41-.62-8.79-15.71-10.2-16.81a27.81,27.81,0,0,1-3-2.82s-.31-8.95,1.1-10.37,5.81-14.76,5.34-15.54,2.83,2.51,5.66,1.25,4.39-7.37,4.55-8.63,0-5.5.94-7.07a9.21,9.21,0,0,0,.79-6.12c-.47-1.73-3.14-8.17-3.93-8.32s.31-3.14.31-4.87a22.08,22.08,0,0,1,1.42-5.81c.31-.79-.16-4.71-.32-5.5a14,14,0,0,1,.16-5c.47-1.26-.78-5.66-.78-5.66l-.95-2.82,3.62,3.77s-.63-2.36-1-3.46,1.42-1.1,1.42-1.1l-1.57-2.82s-4.87-9.9-5.66-10.68-2.51-4.87-4.08-5.65-7.85-5.5-8.64-6.76-.47-3.14-2.35-4.24A33.16,33.16,0,0,0,884,777a69.36,69.36,0,0,0-11.46-3c-3.3-.47-9.58,0-11.47-.16s1.1-4.39,8.33-3.29c0,0-6.13-2.52-14.76,2.51,0,0-7.54.78-8,.78s1.41-1.88,6-3.29a18.45,18.45,0,0,0-13.19,6.9S835,784.7,834,784.7s-.32-3.77-.32-3.77-3.92,5-4.71,5.18-4.4,3.14-5.65,4.24-2.2.63-3.14,3.14-2,.47-3.77,2.83-3.93,3.77-4.56,5.81-.94,1.88-1.25,4.55-.32,2.2-1.73,4.71-3,5.18-2.2,6.6a20.67,20.67,0,0,1,2,5.34,12,12,0,0,0,1.26,3.92,36.63,36.63,0,0,1,2.2,9.89,7.39,7.39,0,0,0,.78,3.3s-3.29,3.3-3.45,7.54,1.57,7.38,1.41,11.31-.94,6,.63,7.53,4.24,2.51,5.65,3a25.87,25.87,0,0,0,3.46.78s2.2,6.75,3.3,8.32,1.72,7.54,3.14,9.58,1.57,10,2,11.31a21.09,21.09,0,0,1,.78,2.82s-1.72,2-2,2.52-4.24,15.86-4.71,19.31.79,3.46.79,3.46-2.2,2.35-3.46,2-17-12.88-22.14-14.14-9.74-3.61-9.58-5.49-.31-9.58-.47-11.15-9-19.94-10.36-23.55-1.57-6.13-3.46-7.07-5.65-2.2-8.16-1.41-5.66,1.88-7.54,1.25S750,862.27,745,861s-7.54-1.88-8.79-2.82-20.1-28.58-24-33.14-15.39-25.75-17.58-28.42-8.8-12.87-10.21-13.5-3.14-4.24-5-5-9.57-14.91-10.52-20.1-2-11.3-1.88-14.44-1.1-11.15-1.1-13a40.33,40.33,0,0,0-.47-4.86l-11.15-.79s-3-13.66-4.4-17.74-5-7.38-6.91-9c-1-.83-2.83-2.68-4.71-4.19.51-1.16,1-2.34,1.43-3.58,6.29-17.79,3.84-52.69-.69-59.32l-17.1-5.23s-.35-31.41-4.54-38.39l-20,12.43c1.7-22.57-1.48-44-17.3-51-33.63-14.77-23.9,23.88-36.68,37.76a4.77,4.77,0,0,0-7.65,1.9c-1.26-.34-4.15-.2-9.62,4.26-7.93,6.46-9.29,11.21-12.24,14.16s-4.07,7.36-6.11,7.14-3.74,1.81-4.2,6.57c0,0,1.82-4.76,5.33-5.33,0,0-3.17,2.5-2.61,6s1.48,3.4-.45,6.23a5.49,5.49,0,0,0,2.72-6.12c-1-4.19,2.38-5.78,4.42-7s5.55-2,6.34-3.18-4.64,6.58-5.1,11.79-.22,8.72-1.47,9.4c0,0,2.95-1.81,3.17-6.91s3.18-9.29,4.42-10.88a44.24,44.24,0,0,0,2.88-3.88c-.37,1.28-2.15,8.87-1.74,12.83,0,0,.56,6.24-.68,7.14,0,0,2.37-1.58,2.37-5.66s1.14-11.11,2.16-12.81,1.7-1.92,4.08-4.41A30.47,30.47,0,0,0,534,602c.94-1.54,3.44-5.08,4.7-7.16a4.81,4.81,0,0,0,5.92-6.42c.6-.51,1.22-1.06,1.85-1.69,4.57-4.57,8.84-37.21,17.69-38.13s21,3,23.49,8.54,9.15,11,7.93,30.2c-.32,5-.85,10-1.46,14.55l-54.27,33.74,5.93,107.82,40.13-21.28s20.24,1.39,22.68,9.77a104.87,104.87,0,0,0,7.57-10,8.43,8.43,0,0,0,3.59-.08c3.49-1.05,5.59,3.14,6.63,5.58s.35,12.21.35,12.21,5.24,18.15,4.54,18.5,3.14,22,2.79,23.38,1.05,9.42,1.05,9.42-7,0-11.87.35-9.77,3.84-9.77,3.84,2.8,3.14,7.68,11.86,9.42,10.82,8.72,18.15-.34,9.07-.34,9.07,10.46,12.91,15.35,18.14,11.51,9.77,14,11.52,5.23,23.38,14.3,42.92,17.1,33.15,21.29,37.69,7,8,14.31,15.35c.69.69,1.45,1.5,2.23,2.36h305.79C1007.05,951.53,992.68,938.07,977.86,935.13Z"/><path class="cls-3" d="M1667,342.1l1.09-1.61S1667.6,341.07,1667,342.1Z"/><path class="cls-3" d="M1489.86,960.37c-.6-5.65-3.23-15.33-1.81-20s8.67-15.94,9.08-18.16,2.62-16.14-.41-19.77,6.66-4.84,6.26-6.46-5.25-6.66-4.85-10.29,1.82-9.68,2.63-13.11,2.62-10.09,2.22-12.91,1-4.24,2.22-7.07A45,45,0,0,0,1508,845c1.21-4.24,1.61-5.65,3.63-7.67s9.48-14.93,10.9-19.37,1.81-12.31,4.23-15.53,10.29-11.1,10.29-16.75-1.81-14.53-1.21-15.74,3.23-11.09,4.44-15.33,4.44-14.12,3.84-17.75-2.43-8.68-1.42-11.5,3.84-10.29,5.45-10.7,7.67-4.84,9.08-7.87,4.64-10.29,5-14.72,3.23-12.92,5-14.53,4.64-2.22,6.66-5,9.48-21.38,9.48-27.84,3-15.73,3.43-17.15,14.93-34.29,15.53-36.72a11.75,11.75,0,0,1,4.44-6.86c2.42-1.61,13.72-9.48,15.54-11.9s3.22-5,2.62-6.25-.4-6.06-1.41-7.47-.61-5.85-1.42-6.66-.2-3.43-2-3.63-1.82-1.41-2.22-2-3.43-1.81-4.24-2.82.4-2.83.4-4.44-2.42-7.46-1-9.08,5-4.84,5-4.84,11.54-33.43,17.92-52.76c9-8.19,29.2-32.59,32.65-38.63,3.77-6.58,2.59-16.93,1.41-21.17-1.1-4-5.94-14-7.69-16.92a7.24,7.24,0,0,0,1.77-13.43,2.7,2.7,0,0,0-.19-.22,50.89,50.89,0,0,1,.47-6.59c.47-3.05,0-4.23-1.65-15.05-1.22-8.05,2.24-14.92,4.09-17.91l-4.32,6.39c-.24-1.41-1.88-4.24-3.53-8.94s-5.88-11.29-12-13.41a17.21,17.21,0,0,1-8.94-7.52c-2.59,3.06-.24,7.29-.24,7.29-4.47-3.76-9.17-.47-9.17-.47,3.76-.47,7.53,6.35,7.53,6.35-5.65-6.35-8.7-2.12-8.7-2.12,3.76-.94,6.58,5.65,6.58,5.65-3.53.47-6.58-3.06-6.58-3.06-.48,3.29,6.35,5.88,6.35,5.88-7.3.94-8.47-2.82-8.47-2.82-1.18,4,5.88,4.7,5.88,4.7,6.78-.68,12.56,6.45,15.28,10.49-2.74-2.57-7.52-2.73-7.52-2.73,7.53.47,10.35,14.35,10.35,14.35-3.29-6.35-7.29-7.29-7.29-7.29,3,.7,7.29,10.35,8.93,12.93s3.53,9.65,4.24,13.17a14.49,14.49,0,0,0,.54,1.9,7.24,7.24,0,0,0,4.33,12.63,9.07,9.07,0,0,0,2.18,4.52c2.83,2.83,5.65,10.82,6.35,17.64s-2.82,18.11-12.23,29.4a239.39,239.39,0,0,1-18.59,19.38c1-3,1.69-5.3,2-6.6,2.42-8.87,21.59-60.72,21.59-60.72s-22.8,30.26-26,31.27-12.31-2.83-14.93-3-26.63-9.08-27.64-9.08-24.21,30.67-26.63,36.12-11.7,31.27-11.7,31.27-8.68,8.67-7.87,11.9,8.27,9.08,8.27,9.08,11.1,1.62,16.75,3.63,13.11,7.87,18.56,8.07,15.13,4.85,15.13,4.85l-5.25,16.14s-1.41-3-3.63-1.21S1593,545,1592,545.36s-8.27,5.65-9.88,6a9,9,0,0,0-6.66,5.65c-1.41,4-2,13.11-2.22,17.15s.2,5.85-1.82,10.49-16.14,36.72-16.14,36.72-118,32.08-129.93,38.33-31.88,23.81-32.08,34.1,3.43,24,4.44,27,4.44,12.3,3.83,14.72-2,3.84-2.22,5.86.21-9.49-4.64-19-7.06-15.94-8.67-15.13-3.63-3.43-4.24-5.25-2-4.84-5.45-4.23-5.24.8-7.46-.61-3-2.82-5.85-2a46.72,46.72,0,0,1-6.66,1.82c-2.62.4-13.52-.2-16.54,1.21s-4.44,2.42-6.86,3.43l-7.45,3.08s-6.89.63-10,2.51-11.92,9.41-15.05,12.54-5,1.88-8.16,5.65-4.39,9.4-5,13.17,1.25,6.9-1.26,12.54-3.76-1.25-2.51,5.65,0,8.78-1.88,13.17.63,4.39,1.88,10,.63,10.66,3.77,13.17a65.7,65.7,0,0,1,6.9,6.9s-3.77,3.76.62,11.29,7.53,13.8,10.67,15.68,17.56,5,17.56,5-3.14,2.51-13.18,4.39-38.25,3.76-42,5.64-22.57,0-25.08,7.53-9.41,12.54-6.9,20.69c0,0-11.29-.62-20.07-4.39-5.12-2.19-12.58-6.51-18.54-9.49-4.58-15.06-17.26-24.62-21.84-34.19-5.62-11.75-8.69-21.47-7.67-24s10.74-8.7,9.21-15.34c-.17-.71-.4-2.74-.63-5.09a2.58,2.58,0,0,0,.51-.38c4-3.76,3.84-12.17,3-13.64-1-1.88-3.27-2.42-4.86-2.56a9.53,9.53,0,0,0-3.19-5.43c-2-1.6-23-3.06-26.58,4.6,0,0-4.09,14.32-3.07,20.45s-2,11.25.51,17.39,7.16,45.5,10.74,54.19c2.34,5.69,4.26,16.17,7.73,24-3.29,4.28-5.41,8.06-5.72,11.83-.6,7.47-5.45,27.24-6.25,30.27s-2.83,5.65-1.42,8.27,6.26,10.09,6.46,12.11-5.85,3-4,5.24,9.69,11.5,12.72,15.13c.65.79,1.57,1.81,2.61,3H1490C1490,961.5,1489.91,960.83,1489.86,960.37Z"/><path class="cls-3" d="M226.91,308.62a3.77,3.77,0,0,0-4.87-2.84s-33.84,9.73-66,18.87a140.3,140.3,0,0,1,15.1-29.52,6.4,6.4,0,0,0,8.93-8.24,90,90,0,0,0,7.15-6.17c4.39-4.23-.15-9.25,2.2-12.54s5-5.34,7.68-9.26,6.12-8.15,9.26-13.64S207.92,231,207.92,231c-2,9.72-6.75,13.48-6.75,13.48,2.67-3,5.18-14.27,5.18-14.27L204,227.87c-4.07,2.67-12.39,22.27-11.6,19.6s3.76-10.5,5.49-12.7,4.55-8.31,4.55-8.31l-4.08-3.14-3,4.71s1.72-4.87,1.1-6a5.17,5.17,0,0,0-2.36-1.73s.79-1.1-1.25,1.41-3.61,13-3.61,13c-1.72-5.8.63-15.06.63-15.06a30.9,30.9,0,0,0-3,15.06c.31,5.49-4.71,14.43-4.71,14.43-1.25,5.18-3.76,11.45-4.7,14.27S177,269,177.17,271s-.15,3.29-1.88,6.12a21.32,21.32,0,0,0-2.13,6.06,6.4,6.4,0,0,0-2.46,11.71c-8.7,11.25-14,21.49-17.13,30.46-23,6.54-44.74,12.65-51.93,14.49-17.43,4.45-25.94,8.91-25.94,8.91,5.68,47.84,26.35,130.13,26.35,130.13,4-3.65,40.94-12.56,43-12.56s10.54,2,12.16,1.62,3.25,2,24.33-2.44,29.59-18.64,29.59-18.64c5.67-1.62,42.56-13,42.56-13S228.13,312.67,226.91,308.62Z"/><path class="cls-3" d="M876.91,397.18c-4.81,1.14-5.33-2.53-5.33-2.53l8-10.77s15.69-1.12,21.78,1,5.06.22,5.06.22-.69-3.09-4.64-4.89-6.43-6.38-9.06-9.4-9.31-10.74-11.59-9.5-19,5.91-23.25,7.22-9.66-4.13-16.17-7S807.52,345,805,343.94s-11.46-5.62-14.37-5.52c0,0-4.84,28.38-9.82,57.53-8.83-13.83-16-32.39-10.58-52.35,4.94-18.15,5.71-29,4.54-36.09l.41-.2A13,13,0,0,0,779,287.63c.39-1.95.73-4.09,1-6.37.87-8.23-.76-8.68-3.09-14.42s-2.85-8.14-5-11.74a37.73,37.73,0,0,1-4.17-11.3c-.84-3.72-2.71-6.43-4-9.9s-1.19-8-1.36-10.15a54.43,54.43,0,0,0-1.33-7.17c-.48-2-3.49-5-3.49-5s.48,2,1.85,7-.33,4.5-1,6.63a11,11,0,0,0,.53,7.17c1,2.58,2.8,19.34,2.24,15.77A67.07,67.07,0,0,0,758,237.17c-1.11-3.12-1.25-8.86-1.14-12.65s-2.25-10.7-3.52-11.2-6.74,2.18-6.74,2.18.28,9.24,0,8.66-1.55-7.95-1.55-7.95l-2.27.94s-2.57,1.1-2.21,2.84,8.64,16.62,8.64,16.62l-.91,1.24c-.4-.38-2.41-1.52-4-7s-6.89-10.11-6.89-10.11a39.82,39.82,0,0,1,3.66,7.1c2,4.73.43,5.88,1.79,9.46,1,2.59,4.34,6.72,6.15,8.84a33.58,33.58,0,0,1-6.88-4.71,14,14,0,0,1-5-10.57c-.95,3.35-3.56,4,3.23,9.57s20.84,21.91,19.34,38.82a79.05,79.05,0,0,0-.33,7.93,13,13,0,0,0,12.34,21.47A56.69,56.69,0,0,1,770,332.34c-6.37,22.58-7.34,38.89,10.52,65.13-3.41,20-6.85,40.12-8.8,51.52-4.84,28.33,1.11,32,6.69,35.89s52.88,35.45,67.22,34.56l5.86-38.26s11.92-3.52,18.64-11.14,14.18-16.61,17.34-20.79,10.61-13.19,13.39-17.17,7.68-30.37,8.72-33.9a10.66,10.66,0,0,1,2.74-4.95S881.73,396,876.91,397.18Z"/><path class="cls-3" d="M507.46,184c-2.31-27-1.54-30.83-1.54-30.83s-13.49-5.4-19.66-4.63c0,0-9.25-36.23-10.4-40.85s-3.09-7.33-3.86-2.32c0,0-34.33,16.45-63.5,31.2-21.17-23.3-12.42-37.59-6.36-43.48a4,4,0,0,0,3.2,1.62,4,4,0,0,0,4-4c0-.15,0-.29,0-.44,2.07-2,4.84-4.49,7.58-5.59,4.35-1.74,14.23-17.2,12.58-16.33s-3.29,4-3.41,4.49-12.23,9.48-12.23,9.48a43.14,43.14,0,0,0,3.06-3.12,15.91,15.91,0,0,0,2.94-5c.59-1.62,3.88-4,5.88-5.11s1.88-4.86,1.88-4.86a27.92,27.92,0,0,0-4.47,3.24c-1.18,1.12-2.82,2.87-3.53,3.62a20.32,20.32,0,0,1-3.29,2.12c1.53-1.38,1.29-1.62,4.47-5.36s5.06-4,4.94-4.37-2.24-3.49-2.24-3.49a12.24,12.24,0,0,0-3.88.75c-1.06.62-1.06,3.12-2.11,4.74s-4.83,6.48-4.83,6.48c.12-.87-.94-3.37.71-4.11s3.88-7.11,3.88-7.11-4.7,5.49-5.88,7.36-1.53,5.11-2,8a15.92,15.92,0,0,1-3.88,7.73A7.48,7.48,0,0,0,404,86.9a4,4,0,0,0-2.64,3.75,3.94,3.94,0,0,0,.18,1.14c-7.24,4.41-8,13.91-8.69,20.11-.41,3.9,6.24,14.72,13.89,25.53-20,10.15-37.14,19.3-38.39,21.48-3.08,5.39-.77,6.94-.77,6.94l4.24,16.57S398,283,399.93,289.18c0,0,.77,3.08,6.55-1.15s57.81-28.14,66.29-33.92,33.92-17,33.92-17l-3.08-13.49S509.77,210.94,507.46,184Z"/><path class="cls-3" d="M1262.4,144.45c2.33-4.84,1.75-7.36,1.75-12s2.13-10.08,1.55-15.12,2.13-20.92,2.13-20.92c-1.94,1.93-4.07,6.58-5,9.49s-2.52,8.33-1.94,12.79-2.52,18.41-2.52,18.41c1.75-6.78,0-11.63.2-15.89s1-13.76,2.52-17.44,3.48-7.17,3.48-7.17l-5.23-2.91s-4.07.2-5,.78-1.75,5.23-1.94,7.75-3.68,13.18-3.68,13.18.77-4.85,1.74-9.11,2.13-11.82,2.13-11.82-3.49-1.16-3.29-.58-3.49,7.94-3.88,11.62-5,7.75-7,14.34.58,24.22.58,24.22c-2.52-3.48-4.46-17.82-4.46-17.82.19,2.71-.39,12.59,2.52,18.21s2.13,12.4.58,18.41c-.95,3.7-.95,9.31-.81,13.07a7.3,7.3,0,0,0-2.43,13.07.77.77,0,0,0-.07.16c-4.14,8.78-21.93,27.65-40.77,41.23-13.53,9.75-23.52,26.17-28.75,35.75-3.23-15-14.15-69.16-15.43-73.25l-28.48,9,4.07,4.36,3.48,20.93s-31.09,3.49-34,4.36-9,4.65-11.34,5.52-19.76,12.5-17.15,13.37,7.56,3.49,8.14,4.36.29,10.46,2.33,15.11,3.2,14.54,4.36,18.31a90.36,90.36,0,0,0,5.81,12.79c1.16,2,5.52,9.59,6.1,12.5s3.78,11.92,3.49,15.41-.87,16,1.46,18,6.1.58,6.1.58l2.91,4.36s12.2-2.62,16.56-3.2,29.07-5.81,29.07-5.81,2.32,13.08,2.32,15.69-.29,7.56-.29,7.56l28.2-.58s1.45-9.88,0-15.12c-1.39-5-14.61-70.72-16.63-79.57A105.33,105.33,0,0,1,1179,248.41c11-14.54,25.57-24.42,34.29-30.23,8-5.36,21.48-25,23.56-28.07a7,7,0,0,0,1.72.23,7.31,7.31,0,0,0,7.28-6.83c3.12-3.18,7.12-7.83,7.26-9.22a100.86,100.86,0,0,1,3.3-15.89c1.74-5.23,20.54-24.61,20.54-24.61C1269.57,137.09,1260.08,149.3,1262.4,144.45Z"/><path class="cls-3" d="M1359.07,371.43l-11.42-26.28-91,47.78s17.76,40.69,27.45,63c-5.82,9.7-9.3,20.91-6.39,32.55,6.33,25.27,12.44,49.48,14.27,62.26a8.73,8.73,0,0,0-5.21,13.24c-1.18,6-1.71,16.9,6.29,25.11,11.45,11.77,33.93,21.21,43.48,33.74s20,21.06,23.67,22.76c0,0-14.32-16.89-18.52-21.82,0,0,18.32,19.35,25.16,15.52l4.17-6.48s-9.92-6.44-16.78-11c0,0,13.53,5.86,18.48,7.37l4-7.82s-1.56-5.48-10.24-9.41a36.05,36.05,0,0,0-4.83-1.77c-13-3.76-25.51-6.39-29-9.42,0,0,28.94,4.86,36.94,9.4,0,0-16.59-11.94-28.39-14.18a43.57,43.57,0,0,1-21-10.21c-1.53-1.52-5.36-10.26-9-13.87-2.26-2.24-5.86-6.41-8.94-9.73a8.74,8.74,0,0,0-8.24-11.71,17.45,17.45,0,0,0-1-4.19c-1.91-4.94-13.9-64.27-12-73.79a38.9,38.9,0,0,1,5-11.91c1,2.43,2,4.51,2.64,6.09,6.46,14.95,19.39,44.44,19.82,45.29s17.09-6.9,25.42-11,66-31.65,66-31.65l-9.27-22.43s6.58-14.36,4.19-28.68-17.25-43.16-22.61-46.35Z"/><path class="cls-3" d="M773.33,137.93c-3.75-3.31-5.77-5.23-5.77-5.23C768.15,133.71,770.25,135.56,773.33,137.93Z"/><path class="cls-3" d="M943.65,321l-.15-.06Z"/><path class="cls-3" d="M940.56,312.48c.51-7.49-4.48-10.93-7.06-12.65s-15.75-11.7-16.78-13.51c-.76-1.33-7.88-4.47-11.71-6.93a11,11,0,0,0-6.86-15A26.87,26.87,0,0,0,898,261c-1.6-13.9-13.31-32.54-26.11-41.55-13.5-9.5-11.54-17.47-10.67-19.62,3.6,2,7.28,3.94,11,5.85,60.75,31.15,92.92,39.83,92.92,39.83l-48-23.49L914.6,205.7l25-46.45-25-16.34-10.22,8.68.52-13.27s-25-22.47-51.06-17.87c0,0-25.52,39.82-24,55.13,0,0-40.93-25.62-56.52-37.65a512.13,512.13,0,0,0,84.17,59.84c-1.12,2.48-3.62,11.53,12.84,23.11,12.95,9.11,23.31,29.85,24.6,41.12a10.62,10.62,0,0,1,0,1.94h0A11,11,0,0,0,888.67,284a20.76,20.76,0,0,0,4,8.27c6.45,8.26,17.81,18.33,24.09,25.56s2.07,12.65.17,16.43a12.6,12.6,0,0,0,3.79-6.62c1-4.31-.52-10.85-.77-10.85a17.18,17.18,0,0,1,3.44,14.12c-1.72,8.34.08,5.42,2.06,9,0,0-2.32-4.48-1-7.66s1.55-10.42.17-14.12-3.27-9-3.35-9.29,12.73,6.71,13.94,15.15,3.78,9.37,5.16,10.41c0,0-5.16-12-5.08-17.3s-1-8.09-4.21-11.27c0,0,7.22,1.29,8.08,8.35.82,6.67,3.4,6.49,4.41,6.82C942.81,320.64,940.11,319,940.56,312.48Z"/></g></g></svg>