<svg xmlns="http://www.w3.org/2000/svg" viewBox="0 0 667.15 443.4"><defs><style>.cls-1{isolation:isolate;}.cls-2{fill:#e2d1ce;}.cls-16,.cls-17,.cls-22,.cls-3,.cls-30,.cls-36,.cls-46,.cls-47,.cls-48,.cls-53,.cls-58,.cls-65,.cls-66,.cls-67{fill:none;}.cls-3{stroke:#e2d1ce;stroke-width:2px;}.cls-16,.cls-17,.cls-22,.cls-3,.cls-36,.cls-48,.cls-53,.cls-58,.cls-65,.cls-66,.cls-67{stroke-linecap:round;}.cls-16,.cls-17,.cls-22,.cls-3,.cls-36,.cls-48,.cls-58,.cls-65,.cls-66,.cls-67{stroke-linejoin:round;}.cls-19,.cls-29,.cls-32,.cls-34,.cls-39,.cls-4,.cls-55,.cls-56,.cls-57{mix-blend-mode:multiply;}.cls-5{fill:#fc7a7a;}.cls-6{fill:#f9d04e;}.cls-7{fill:#4bddba;}.cls-8{fill:#25d0d8;}.cls-9{fill:#fcb856;}.cls-10{fill:#fff;}.cls-11{fill:#23325a;}.cls-12{fill:#5c78e7;}.cls-13{fill:#ff947d;}.cls-14{fill:#4063d3;}.cls-15{fill:#040a14;}.cls-16{stroke:#4063d3;}.cls-17,.cls-22,.cls-65{stroke:#f97461;}.cls-17{stroke-width:0.41px;}.cls-18{fill:#172849;}.cls-19{opacity:0.2;}.cls-20{fill:#42567a;}.cls-21,.cls-29,.cls-34{fill:#121d38;}.cls-22,.cls-58{stroke-width:0.5px;}.cls-23{fill:#382b28;}.cls-24{fill:#f97461;}.cls-25{fill:#cfd5e8;}.cls-26,.cls-36{opacity:0.29;}.cls-27{fill:#d3d3e2;}.cls-28{fill:#253d63;}.cls-29,.cls-57{opacity:0.4;}.cls-30{stroke:#2c3e60;stroke-width:0.94px;}.cls-30,.cls-46,.cls-47,.cls-53{stroke-miterlimit:10;}.cls-31{fill:#2c3e60;}.cls-32,.cls-49,.cls-56{opacity:0.3;}.cls-33{fill:#323332;}.cls-34,.cls-55{opacity:0.5;}.cls-35{fill:#081121;}.cls-36{stroke:#d3d3e2;}.cls-37{fill:#c62034;}.cls-38{fill:#fdfeff;}.cls-39{opacity:0.1;}.cls-40{fill:#c7c8c9;}.cls-41{fill:#20181a;}.cls-42{fill:#fe4153;}.cls-43{fill:#dc2b33;}.cls-44{fill:#f22c48;}.cls-45{fill:#c61e2b;}.cls-46,.cls-48{stroke:#dc2b33;}.cls-47{stroke:#a99c91;}.cls-49{fill:#ad9d85;}.cls-50{fill:#f1f1ef;}.cls-51{fill:#091121;}.cls-52{fill:#e57967;}.cls-53{stroke:#25d0d8;stroke-width:2.45px;}.cls-54{fill:#112038;}.cls-55,.cls-56{fill:#ffca53;}.cls-57{fill:#501c0e;}.cls-58{stroke:#66453e;opacity:0.47;}.cls-59{fill:#15727c;}.cls-60{fill:#fffff9;}.cls-61{fill:#0e5c60;}.cls-62{fill:#f5f5ff;}.cls-63{fill:#fd7557;}.cls-64{fill:#0a3237;}.cls-65{stroke-width:0.65px;}.cls-66,.cls-67{stroke:#55423c;}.cls-66{stroke-width:1.23px;}.cls-67{stroke-width:1.23px;}.cls-68{fill:#55423c;}.cls-69{fill:#2d3243;}.cls-70{fill:#371f18;}</style></defs><g class="cls-1"><g id="Layer_2" data-name="Layer 2"><g id="BACKGROUND"><path class="cls-2" d="M271.31,381.94c27,3.46,54.16,4,81.28,5,12.44.48,24.63-.1,36.12,4.37,10.75,4.17,19.33,12.56,30.43,16.15,8.61,2.79,17.9,2.7,26.89,1.67A136.4,136.4,0,0,0,565.38,252.52c-3.22-21-12.88-40.59-15.2-61.75-2.45-22.37,6.1-41.88,11.49-63.15a161.88,161.88,0,0,0,4.87-45.5c-.31-8.81-1.42-17.85-5.58-25.62-11.33-21.1-39.88-25.09-63.72-22.71a223.25,223.25,0,0,0-84.89,26.38C391.86,71.49,371.56,88,348,92.42c-26.52,5-47-13.13-70.9-21.42-53.7-18.66-118.53,18-142.21,66.71C105.71,197.87,109,296.28,163.74,340.92c29.81,24.33,68.22,35.83,106.37,40.86Z"/><path class="cls-3" d="M189.33,74.59s-46.45,21.29-58.84,60"/><path class="cls-3" d="M247.78,59.49S278.36,59.1,300,75.75"/><path class="cls-3" d="M481.2,404.39s42.58-10.45,64.65-48"/><path class="cls-3" d="M450.23,36.65S486.62,23.1,509.46,26.2"/></g><g id="OBJECT"><g class="cls-4"><path class="cls-5" d="M72.69,266a11.29,11.29,0,0,0,6.74,4.33c-2.07,1.8-2,2.89-1.94,5.34a13.2,13.2,0,0,1-6.22-4.4C70.36,269.13,71,267.41,72.69,266Z"/><path class="cls-5" d="M263.37,22.22a11.29,11.29,0,0,0,8-.92c-.46,2.69.32,3.48,1.89,5.35a13.14,13.14,0,0,1-7.6.55C263.58,26.15,263,24.42,263.37,22.22Z"/><path class="cls-5" d="M390.56,176.08a11.29,11.29,0,0,0,5.34,6c-2.46,1.18-2.66,2.26-3.28,4.63a13.2,13.2,0,0,1-4.83-5.9C387.47,178.52,388.55,177,390.56,176.08Z"/><path class="cls-5" d="M512.76,217.46A11.31,11.31,0,0,0,519,212.4c1.07,2.52,2.14,2.76,4.47,3.49a13.2,13.2,0,0,1-6.11,4.56C515.05,220.66,513.62,219.51,512.76,217.46Z"/><path class="cls-5" d="M204.43,284.66a11.29,11.29,0,0,0,8,.45c-.91,2.57-.28,3.48.95,5.59a13.16,13.16,0,0,1-7.58-.75C204,288.57,203.68,286.76,204.43,284.66Z"/><path class="cls-5" d="M28.64,274.86A11.26,11.26,0,0,0,36.13,272c.21,2.72,1.16,3.3,3.14,4.72a13.16,13.16,0,0,1-7.23,2.4C29.8,278.63,28.81,277.08,28.64,274.86Z"/><path class="cls-5" d="M225.21,135.73a11.25,11.25,0,0,0,7.86-1.53c-.24,2.72.59,3.44,2.3,5.18a13.09,13.09,0,0,1-7.53,1.14C225.72,139.64,225,138,225.21,135.73Z"/><path class="cls-5" d="M540.9,237.54a11.34,11.34,0,0,0,7.43-3c.28,2.72,1.23,3.27,3.25,4.65a13.15,13.15,0,0,1-7.18,2.56C542.15,241.27,541.12,239.75,540.9,237.54Z"/><path class="cls-5" d="M305,308.5a11.27,11.27,0,0,0,6.16-5.11c1.09,2.5,2.17,2.74,4.51,3.44a13.27,13.27,0,0,1-6.07,4.62C307.32,311.68,305.88,310.55,305,308.5Z"/><path class="cls-5" d="M387.13,117.06a11.31,11.31,0,0,0,7.08,3.75c-1.9,2-1.71,3-1.47,5.48a13.19,13.19,0,0,1-6.58-3.85C385.07,120.42,385.57,118.66,387.13,117.06Z"/><path class="cls-5" d="M321.16,51a11.29,11.29,0,0,0,4.9-6.33c1.61,2.2,2.71,2.2,5.15,2.38a13.17,13.17,0,0,1-4.92,5.82C324.11,53.59,322.46,52.8,321.16,51Z"/><path class="cls-5" d="M127.34,41.15a11.27,11.27,0,0,0,7.43-3c.28,2.72,1.23,3.28,3.24,4.66a13.08,13.08,0,0,1-7.19,2.54C128.58,44.89,127.55,43.36,127.34,41.15Z"/><path class="cls-5" d="M506.94,41.44a11.26,11.26,0,0,0,7.26-3.38c.42,2.7,1.4,3.2,3.48,4.48a13.15,13.15,0,0,1-7,2.92C508.38,45.11,507.27,43.64,506.94,41.44Z"/><path class="cls-5" d="M518.53,120.45a11.32,11.32,0,0,0,6.81-4.23c.73,2.63,1.77,3,4,4a13.21,13.21,0,0,1-6.64,3.75C520.4,123.92,519.13,122.6,518.53,120.45Z"/><path class="cls-5" d="M195.75,44.25a11.25,11.25,0,0,0,7.17,3.58c-1.86,2-1.64,3.09-1.35,5.52a13.2,13.2,0,0,1-6.66-3.7C193.77,47.66,194.23,45.88,195.75,44.25Z"/><path class="cls-5" d="M221.52,192.47a11.26,11.26,0,0,0,7.14-3.63c.51,2.68,1.51,3.15,3.63,4.36a13.26,13.26,0,0,1-6.93,3.16C223.08,196.08,221.93,194.66,221.52,192.47Z"/><path class="cls-5" d="M233.12,243.85a11.3,11.3,0,0,0,6.15-5.14c1.1,2.51,2.17,2.74,4.51,3.44a13.13,13.13,0,0,1-6.05,4.63C235.45,247,234,245.89,233.12,243.85Z"/><path class="cls-5" d="M429,193.1a11.31,11.31,0,0,0,7.91-1.27c-.34,2.71.47,3.46,2.12,5.26a13.12,13.12,0,0,1-7.57.88C429.38,197,428.72,195.31,429,193.1Z"/><path class="cls-5" d="M61.55,73.17a11.27,11.27,0,0,0,5.83-5.5c1.25,2.43,2.34,2.6,4.72,3.16a13.21,13.21,0,0,1-5.77,5C64.07,76.19,62.56,75.15,61.55,73.17Z"/><path class="cls-5" d="M45.42,117.17a11.28,11.28,0,0,0,7.27-3.36c.41,2.71,1.39,3.21,3.47,4.5a13.21,13.21,0,0,1-7.06,2.89C46.84,120.84,45.74,119.37,45.42,117.17Z"/><path class="cls-5" d="M160.42,140.09a11.3,11.3,0,0,0,7.85-1.61c-.23,2.73.61,3.44,2.34,5.17a13.17,13.17,0,0,1-7.53,1.2C161,144,160.23,142.3,160.42,140.09Z"/><path class="cls-6" d="M185.12,238.13a9.52,9.52,0,0,0,5.46,4c-1.84,1.41-1.82,2.34-1.92,4.4a11.08,11.08,0,0,1-5-4.05A3.57,3.57,0,0,1,185.12,238.13Z"/><path class="cls-6" d="M95,243.39a9.56,9.56,0,0,0,6.57,1.69c-1.18,2-.81,2.84-.13,4.79A11.08,11.08,0,0,1,95.27,248,3.56,3.56,0,0,1,95,243.39Z"/><path class="cls-6" d="M111.7,81.37a9.51,9.51,0,0,0,4.59-5c1.2,2,2.13,2.05,4.17,2.38a11.19,11.19,0,0,1-4.56,4.56A3.57,3.57,0,0,1,111.7,81.37Z"/><path class="cls-6" d="M86,28.26a9.5,9.5,0,0,0,6.72-.84c-.36,2.29.3,2.95,1.64,4.51a11.09,11.09,0,0,1-6.42.53A3.56,3.56,0,0,1,86,28.26Z"/><path class="cls-6" d="M478.22,179.47a9.55,9.55,0,0,0,5.23,4.32c-1.91,1.3-1.93,2.23-2.15,4.29a11.19,11.19,0,0,1-4.8-4.31A3.58,3.58,0,0,1,478.22,179.47Z"/><path class="cls-6" d="M658.46,169a9.51,9.51,0,0,0,6.61-1.49c-.14,2.31.58,2.9,2.08,4.33A11.23,11.23,0,0,1,660.8,173,3.58,3.58,0,0,1,658.46,169Z"/><path class="cls-6" d="M397.89,226.23a9.52,9.52,0,0,0,5.4-4.09c.83,2.16,1.73,2.4,3.68,3.08a11.1,11.1,0,0,1-5.31,3.67A3.56,3.56,0,0,1,397.89,226.23Z"/><path class="cls-6" d="M466.43,107a9.52,9.52,0,0,0,6.77.28c-.74,2.19-.19,2.95.87,4.72a11.18,11.18,0,0,1-6.42-.54A3.57,3.57,0,0,1,466.43,107Z"/><path class="cls-6" d="M351.17,75.58a9.57,9.57,0,0,0,6.78.32c-.75,2.18-.21,2.94.85,4.72a11.22,11.22,0,0,1-6.43-.57A3.59,3.59,0,0,1,351.17,75.58Z"/><path class="cls-6" d="M22.49,189.94a9.57,9.57,0,0,0,2.71,6.22c-2.29.29-2.74,1.11-3.86,2.84A11.11,11.11,0,0,1,19,193,3.57,3.57,0,0,1,22.49,189.94Z"/><path class="cls-6" d="M61.65,154.29a9.55,9.55,0,0,0,5-4.61c1,2.07,2,2.22,4,2.71a11.18,11.18,0,0,1-4.91,4.18A3.58,3.58,0,0,1,61.65,154.29Z"/><path class="cls-6" d="M483.07,261.59a9.53,9.53,0,0,0,5.93-3.27c.51,2.26,1.37,2.62,3.2,3.58a11.09,11.09,0,0,1-5.78,2.87A3.56,3.56,0,0,1,483.07,261.59Z"/><path class="cls-7" d="M261.72,217a10.1,10.1,0,0,0,4.54-5.55c1.39,2,2.37,2,4.55,2.26a11.79,11.79,0,0,1-4.55,5.09C264.3,219.44,262.84,218.68,261.72,217Z"/><path class="cls-7" d="M178.21,13.55A10.1,10.1,0,0,0,182.75,8c1.38,2,2.37,2,4.54,2.26a11.68,11.68,0,0,1-4.54,5.08C180.79,16,179.33,15.19,178.21,13.55Z"/><path class="cls-7" d="M347.26,104.21a10.06,10.06,0,0,0,4.54-5.54c1.39,2,2.37,2,4.55,2.26A11.85,11.85,0,0,1,351.8,106,3.78,3.78,0,0,1,347.26,104.21Z"/><path class="cls-7" d="M399.38,150.2a10.06,10.06,0,0,0,4.54-5.54c1.38,2,2.37,2,4.54,2.26a11.83,11.83,0,0,1-4.54,5.09A3.77,3.77,0,0,1,399.38,150.2Z"/><path class="cls-7" d="M626.46,100.26A10.15,10.15,0,0,0,631,94.71c1.38,2,2.37,2,4.54,2.27a11.8,11.8,0,0,1-4.54,5.08C629,102.66,627.59,101.9,626.46,100.26Z"/><path class="cls-7" d="M151.1,297a10.06,10.06,0,0,0,4.54-5.54c1.39,2,2.37,2,4.55,2.26a11.85,11.85,0,0,1-4.55,5.09A3.78,3.78,0,0,1,151.1,297Z"/><path class="cls-7" d="M70.59,326.32a10.11,10.11,0,0,0,4.55-5.54c1.38,2,2.37,2,4.54,2.26a11.83,11.83,0,0,1-4.54,5.09C73.17,328.72,71.72,328,70.59,326.32Z"/><path class="cls-7" d="M432.6,79.58A10.06,10.06,0,0,0,437.14,74c1.39,2,2.37,2,4.55,2.26a11.79,11.79,0,0,1-4.55,5.09A3.78,3.78,0,0,1,432.6,79.58Z"/><path class="cls-7" d="M492.74,177.25a10.06,10.06,0,0,0,4.54-5.54c1.39,2,2.37,2,4.55,2.26a11.85,11.85,0,0,1-4.55,5.09A3.78,3.78,0,0,1,492.74,177.25Z"/><path class="cls-7" d="M431.72,249.84a10.15,10.15,0,0,0,4.55-5.55c1.38,2,2.37,2,4.54,2.26a11.83,11.83,0,0,1-4.54,5.09C434.3,252.23,432.85,251.48,431.72,249.84Z"/><path class="cls-8" d="M26.48,166.57c-5.52,0-10.21-2.32-12.51-5.23a7.33,7.33,0,0,1-.9-1.42c-4.48-1.3-5.94-3.95-6.41-5.54a5.32,5.32,0,0,1-.18-.79,7.88,7.88,0,0,1-5.3-3.39c-1.06-1.64-2.35-5.27.82-11.15a1.37,1.37,0,0,1,2.41,1.3c-1.86,3.44-2.19,6.41-.93,8.37a5,5,0,0,0,3.11,2.1,7.35,7.35,0,0,1,2.16-3.62c1.5-1.38,4.25-2.43,6.27-1.78a3.39,3.39,0,0,1,2.32,2.66,2.78,2.78,0,0,1-.61,2.3c-1.24,1.62-4.37,3-7.42,3.31a5.38,5.38,0,0,0,3.27,3.16,4.59,4.59,0,0,1,1.48-2.59c1.83-1.7,4.08-2.38,5.87-1.79a4,4,0,0,1,2.65,3.26,3.75,3.75,0,0,1-.88,3.51c-1.13,1.15-3,1.42-4.71,1.34,3.74,3.39,12.15,5.15,19.93-.08a1.37,1.37,0,0,1,1.53,2.27A21.4,21.4,0,0,1,26.48,166.57Zm-11.22-8.94.22,0c2.49.42,3.85.08,4.26-.34.08-.08.31-.31.16-1.09-.18-1-.67-1.12-.82-1.17a3.63,3.63,0,0,0-3.17,1.19A1.88,1.88,0,0,0,15.26,157.63ZM13.66,148a5.11,5.11,0,0,0-3.06,1.26,4.65,4.65,0,0,0-1.18,1.72c2.91-.38,5.1-1.83,5.24-2.39a.66.66,0,0,0-.48-.52A2,2,0,0,0,13.66,148Z"/><path class="cls-9" d="M425.25,167a1.36,1.36,0,0,1-1.36-1.26c-1.05-14.28,8.56-23.43,15.89-24.54a8.29,8.29,0,0,1,2.09-.08c4-3.94,7.58-3.89,9.49-3.44a8.31,8.31,0,0,1,6.08,6.27,1.37,1.37,0,0,1-2.67.61,5.55,5.55,0,0,0-4-4.22c-1.89-.44-3.92.2-5.92,1.81a5.23,5.23,0,0,1,2,3.16c.65,2.83.06,5.5-1.56,7a4.55,4.55,0,0,1-4.72.77,4.27,4.27,0,0,1-3-2.84c-.56-2,.5-4.28,1.8-6.14-6,1.48-13.66,9.54-12.78,21.48a1.37,1.37,0,0,1-1.26,1.46Zm17.56-22.88-.33.4c-1.67,2-2.53,3.93-2.25,4.94,0,.15.19.64,1.24,1a1.89,1.89,0,0,0,2-.22c.85-.77,1.14-2.51.72-4.31A2.49,2.49,0,0,0,442.81,144.09Z"/><path class="cls-5" d="M622.91,144.83a1.36,1.36,0,0,1-1.36-1.27c-1-14.28,8.55-23.43,15.89-24.54a8.78,8.78,0,0,1,2.09-.08c4-3.93,7.58-3.89,9.48-3.44a8.29,8.29,0,0,1,6.08,6.27,1.36,1.36,0,1,1-2.66.61,5.57,5.57,0,0,0-4-4.22c-1.88-.44-3.92.2-5.91,1.81a5.26,5.26,0,0,1,2,3.16c.66,2.83.06,5.5-1.56,7a4.55,4.55,0,0,1-4.72.77,4.25,4.25,0,0,1-3-2.84c-.57-2,.5-4.27,1.79-6.14-6,1.48-13.65,9.54-12.78,21.48a1.36,1.36,0,0,1-1.26,1.46ZM640.46,122q-.16.18-.33.39c-1.67,2-2.53,3.93-2.24,4.94,0,.15.18.64,1.23,1a1.89,1.89,0,0,0,2-.22c.86-.77,1.15-2.51.73-4.31A2.44,2.44,0,0,0,640.46,122Z"/><path class="cls-7" d="M263.63,391.35a1.36,1.36,0,0,1-1.36-1.26c-1-14.28,8.56-23.43,15.89-24.54a8.29,8.29,0,0,1,2.09-.08c4-3.94,7.58-3.89,9.49-3.44a8.31,8.31,0,0,1,6.08,6.27,1.37,1.37,0,1,1-2.67.61,5.55,5.55,0,0,0-4-4.22c-1.89-.44-3.92.2-5.92,1.81a5.23,5.23,0,0,1,2,3.16c.65,2.83.06,5.5-1.56,7a4.55,4.55,0,0,1-4.72.77,4.27,4.27,0,0,1-3-2.84c-.56-2,.5-4.28,1.8-6.14-6,1.48-13.66,9.54-12.78,21.48a1.37,1.37,0,0,1-1.26,1.46Zm17.56-22.88-.33.4c-1.67,2-2.53,3.93-2.25,4.93.05.16.19.65,1.24,1a1.89,1.89,0,0,0,2-.22c.85-.77,1.14-2.51.72-4.31A2.49,2.49,0,0,0,281.19,368.47Z"/><path class="cls-10" d="M307.34,87.19a8.92,8.92,0,0,0,4-4.9c1.22,1.78,2.09,1.8,4,2a10.46,10.46,0,0,1-4,4.49A3.33,3.33,0,0,1,307.34,87.19Z"/><path class="cls-10" d="M225.28,97.91a9,9,0,0,0,4-4.9c1.22,1.78,2.09,1.8,4,2a10.38,10.38,0,0,1-4,4.49A3.34,3.34,0,0,1,225.28,97.91Z"/><path class="cls-10" d="M285.43,203.9a8.91,8.91,0,0,0,4-4.9c1.22,1.78,2.09,1.8,4,2a10.37,10.37,0,0,1-4,4.49A3.34,3.34,0,0,1,285.43,203.9Z"/><path class="cls-10" d="M83.6,207.23a8.87,8.87,0,0,0,4-4.89c1.22,1.78,2.09,1.8,4,2a10.4,10.4,0,0,1-4,4.5A3.35,3.35,0,0,1,83.6,207.23Z"/><path class="cls-10" d="M383.11,256.55a8.92,8.92,0,0,0,4-4.9c1.23,1.78,2.1,1.8,4,2a10.4,10.4,0,0,1-4,4.49A3.33,3.33,0,0,1,383.11,256.55Z"/><path class="cls-10" d="M400.92,217.06a9,9,0,0,0,4-4.9c1.22,1.78,2.09,1.8,4,2a10.44,10.44,0,0,1-4,4.49A3.34,3.34,0,0,1,400.92,217.06Z"/><path class="cls-10" d="M337.45,207.23a8.93,8.93,0,0,0,4-4.89c1.22,1.78,2.09,1.8,4,2a10.46,10.46,0,0,1-4,4.5A3.34,3.34,0,0,1,337.45,207.23Z"/><path class="cls-10" d="M373.06,46.66a8.91,8.91,0,0,0,4-4.9c1.22,1.78,2.09,1.8,4,2a10.32,10.32,0,0,1-4,4.49A3.34,3.34,0,0,1,373.06,46.66Z"/><path class="cls-10" d="M277.35,166.16a8.92,8.92,0,0,0,4-4.9c1.23,1.78,2.1,1.8,4,2a10.34,10.34,0,0,1-4,4.49A3.33,3.33,0,0,1,277.35,166.16Z"/><path class="cls-10" d="M281.42,37.79a8.92,8.92,0,0,0,4-4.9c1.23,1.78,2.1,1.8,4,2a10.34,10.34,0,0,1-4,4.49A3.33,3.33,0,0,1,281.42,37.79Z"/><path class="cls-10" d="M212.78,34.46a9,9,0,0,0,4-4.9c1.22,1.78,2.09,1.8,4,2a10.49,10.49,0,0,1-4,4.49A3.34,3.34,0,0,1,212.78,34.46Z"/><path class="cls-10" d="M249.93,203.57a9,9,0,0,0,4-4.9c1.22,1.78,2.09,1.8,4,2a10.44,10.44,0,0,1-4,4.49A3.34,3.34,0,0,1,249.93,203.57Z"/><path class="cls-10" d="M159.86,276.31a8.92,8.92,0,0,0,4-4.9c1.23,1.78,2.1,1.8,4,2a10.34,10.34,0,0,1-4,4.49A3.33,3.33,0,0,1,159.86,276.31Z"/><path class="cls-10" d="M411.77,296.82a8.92,8.92,0,0,0,4-4.9c1.23,1.78,2.1,1.8,4,2a10.4,10.4,0,0,1-4,4.49A3.33,3.33,0,0,1,411.77,296.82Z"/><path class="cls-10" d="M440.43,26.83a8.88,8.88,0,0,0,4-4.89c1.22,1.78,2.1,1.8,4,2a10.42,10.42,0,0,1-4,4.5A3.34,3.34,0,0,1,440.43,26.83Z"/><path class="cls-10" d="M462.6,81.69a8.88,8.88,0,0,0,4-4.9c1.22,1.79,2.09,1.81,4,2a10.49,10.49,0,0,1-4,4.5A3.34,3.34,0,0,1,462.6,81.69Z"/></g><ellipse class="cls-2" cx="562.39" cy="435.38" rx="37.64" ry="8.02"/><path class="cls-2" d="M412.72,435.69c0,3.85-14.64,7-32.7,7s-32.7-3.12-32.7-7,14.64-7,32.7-7S412.72,431.84,412.72,435.69Z"/><ellipse class="cls-2" cx="174.18" cy="425.25" rx="56.21" ry="11.98"/><ellipse class="cls-11" cx="120.68" cy="120.38" rx="18.6" ry="19.77" transform="matrix(0.99, -0.13, 0.13, 0.99, -14.38, 16.39)"/><path class="cls-12" d="M110.19,278.79s4,34,5.68,39.49c2.84,9.55,41.55,61.93,41.55,61.93a78.34,78.34,0,0,0,20.9-22.71S142.45,325,138.84,311.05s7.22-34.84,7.22-34.84"/><polygon class="cls-13" points="170.08 374.56 176.53 382.72 181.46 375.46 175.69 369.25 170.08 374.56"/><path class="cls-14" d="M178.4,379a2.55,2.55,0,0,1-1.81,1.25c-1,.16-2.29.52-2.72,1.3-.7,1.25.56,15.3-.92,18.86s1.79,5.27,2.81,4.06c2.77-3.25,11.39-17.52,14.86-22.88a2.56,2.56,0,0,0-.62-3.47c-2.24-1.68-5.9-4.26-7.73-4.7C179.91,372.83,179.73,376.55,178.4,379Z"/><path class="cls-10" d="M179.34,388.57a.52.52,0,0,0,.19-.37.53.53,0,0,0-.5-.56,8.05,8.05,0,0,0-3.91.72,3.67,3.67,0,0,0-1.92,3.23.54.54,0,0,0,.56.5.53.53,0,0,0,.5-.56,2.62,2.62,0,0,1,1.38-2.25,7.26,7.26,0,0,1,3.33-.59A.53.53,0,0,0,179.34,388.57Z"/><path class="cls-10" d="M179,386.43a.53.53,0,0,0-.3-.93,8.07,8.07,0,0,0-3.92.72,3.67,3.67,0,0,0-1.92,3.23.54.54,0,0,0,.56.5.53.53,0,0,0,.5-.56,2.61,2.61,0,0,1,1.39-2.25,7.22,7.22,0,0,1,3.32-.59A.49.49,0,0,0,179,386.43Z"/><path class="cls-10" d="M179.18,391a.57.57,0,0,0,.18-.38.53.53,0,0,0-.49-.56,8.2,8.2,0,0,0-3.92.72A3.69,3.69,0,0,0,173,394a.53.53,0,0,0,.56.5.53.53,0,0,0,.5-.56,2.62,2.62,0,0,1,1.39-2.25,7.16,7.16,0,0,1,3.32-.58A.58.58,0,0,0,179.18,391Z"/><path class="cls-14" d="M174.91,355c-3.13,3.55-14.11,15.58-21.16,18a1.49,1.49,0,0,0-.82,2.17l4.65,7.63a1.47,1.47,0,0,0,1.48.69,25.82,25.82,0,0,0,15.35-8.67c6.88-8.14,9.81-11.83,10.05-13.24.19-1.09-5.23-5.11-7.6-6.82A1.48,1.48,0,0,0,174.91,355Z"/><path class="cls-15" d="M208.39,172.6s2,.07-.33,6c-2,5-2,35.42-2,35.42l-16-27.48Z"/><path class="cls-16" d="M149.32,282.77a126.68,126.68,0,0,1-7,13"/><polygon class="cls-13" points="224.78 315.47 235.19 315.53 232.6 307.14 224.14 307.77 224.78 315.47"/><path class="cls-14" d="M233.44,311.72a2.57,2.57,0,0,1-.16,2.2c-.46.84-1,2.11-.68,2.94.54,1.33,12.31,9.12,14.17,12.49s5.23,1.9,4.92.34c-.82-4.19-6.58-19.84-8.6-25.89a2.58,2.58,0,0,0-3.1-1.69c-2.72.71-7,2-8.5,3.11C229.57,306.71,232.37,309.17,233.44,311.72Z"/><path class="cls-10" d="M241.52,317a.53.53,0,0,0-.18-.38.51.51,0,0,0-.74,0,8,8,0,0,0-1.88,3.51,3.64,3.64,0,0,0,1.32,3.51.54.54,0,0,0,.74-.12.53.53,0,0,0-.13-.74,2.62,2.62,0,0,1-.89-2.49,7.37,7.37,0,0,1,1.62-3A.54.54,0,0,0,241.52,317Z"/><path class="cls-10" d="M239.61,315.94a.52.52,0,0,0-.17-.38.53.53,0,0,0-.75,0,8,8,0,0,0-1.88,3.51,3.64,3.64,0,0,0,1.32,3.51.54.54,0,0,0,.74-.12.53.53,0,0,0-.12-.74,2.63,2.63,0,0,1-.9-2.49,7.29,7.29,0,0,1,1.62-3A.54.54,0,0,0,239.61,315.94Z"/><path class="cls-10" d="M243.33,318.64a.52.52,0,0,0-.17-.38.54.54,0,0,0-.75,0,8,8,0,0,0-1.88,3.51,3.63,3.63,0,0,0,1.33,3.51.52.52,0,0,0,.73-.12.53.53,0,0,0-.12-.74,2.6,2.6,0,0,1-.89-2.49,7.19,7.19,0,0,1,1.61-3A.52.52,0,0,0,243.33,318.64Z"/><path class="cls-12" d="M224.63,328.81c-63.25-.68-69.23-6-76-15.69-5.34-7.69-16.72-53.73-17.8-60.39-1.25-3.54-.44-11.19-2.37-14.87-.26-.5-.49-.91-.66-1.23s-.37-.7-.37-.7a16.46,16.46,0,0,0,3.19-1.83l1-.72c6-4.43,13.76-12.44,13.76-12.44l1.47,1.62c.42.46.9,1,1.45,1.63,5.32,6,16.1,18.66,17.06,23.84,1,5.55,1.71,37,1.94,49a5,5,0,0,0,4.79,4.91c3.46.16,8.52.4,14.12.69.66,0,1.32.06,2,.07,15.2.13,33.9-7,35.28-6.05C225.9,298.31,230.49,320.44,224.63,328.81Z"/><path class="cls-14" d="M212.53,299.49c.82,4.67,3.36,20.75.87,27.79a1.48,1.48,0,0,0,1.18,2l8.87,1.13a1.47,1.47,0,0,0,1.46-.73,25.86,25.86,0,0,0,2.81-17.4c-2.07-10.46-3.12-15-4.07-16.12-.74-.83-7.26.9-10.07,1.69A1.45,1.45,0,0,0,212.53,299.49Z"/><path class="cls-13" d="M229.79,181.61c-1.56,1.73-1,1.48-4.7,1.31-2.78,1.62-3.13,4.69-6.21,4.69-.45,0-1.43.07-2.79.18-2.11.17-5.15.41-8.61.56l3.26-7.8c2.26.42,4,.65,4.3.24v0c.83-1.67,4-6.8,5.89-8.42s6.83,0,8.39,1.25S231.36,179.89,229.79,181.61Z"/><path class="cls-17" d="M219,175.83a8.64,8.64,0,0,1,4.87-2.21c2.17-.37,2.12,2,.57,2.18s-2,1.28-2.48,3.45c-.18.92-.61,2.84-2.22,3.3"/><path class="cls-17" d="M229.91,175.39a4.2,4.2,0,0,1-1.56,2.36,5.5,5.5,0,0,1-4,1.31"/><path class="cls-17" d="M230.41,177.79a3.78,3.78,0,0,1-1.92,2.81,4.16,4.16,0,0,1-3.68-.18"/><path class="cls-17" d="M230.29,180.06a3.75,3.75,0,0,1-1.92,2.8,4.17,4.17,0,0,1-3.68-.17"/><path class="cls-13" d="M216.09,187.79c-2.11.17-5.15.41-8.61.56l3.26-7.8c2.26.42,4,.65,4.3.24a5.52,5.52,0,0,1,.43.88A14,14,0,0,1,216.09,187.79Z"/><path class="cls-12" d="M214.11,180.34c1.3,2.63,1.07,7.57-1.2,9.84a11.79,11.79,0,0,1-3.27,2.14c-1.48.71-6.28,2.83-8,2.93s-3,1.19-4,.09c-.51-.57,1.92-4.33,1.73-5-1.12-4.06-4-9.86-.67-13.16,1.49-1.48,7.78-1.71,10.09-.74S213.18,178.49,214.11,180.34Z"/><path class="cls-13" d="M63.54,224.49c-2.34,1.17-4.51,2.18-6.25,3-2.06.94-3.54,1.6-4.08,1.9-2.71,1.49-4.49-1-7.72-1.1-3.17,2-2.53,1.88-4.74,1.13s-4.22-5.38-3.47-7.24S41.58,216.5,44,217s7.68,3.45,9.22,4.51c.19.13.62,0,1.21-.42a24.88,24.88,0,0,0,2.45-1.86Z"/><path class="cls-17" d="M47.39,219.11a8.73,8.73,0,0,0-5.34.42c-2.07.73-.89,2.75.56,2.18s2.41.13,3.84,1.83c.6.71,1.91,2.19,3.54,1.81"/><path class="cls-17" d="M37.64,224a4.18,4.18,0,0,0,2.51,1.31,5.46,5.46,0,0,0,4.11-.78"/><path class="cls-17" d="M38.37,226.34a3.76,3.76,0,0,0,3,1.53,4.15,4.15,0,0,0,3.13-1.94"/><path class="cls-17" d="M39.57,228.27a3.73,3.73,0,0,0,3,1.52,4.13,4.13,0,0,0,3.13-1.93"/><path class="cls-13" d="M63.54,224.49c-2.34,1.17-4.51,2.18-6.25,3-1.53-1.73-2.78-3.88-2.86-5.59a6.54,6.54,0,0,1,0-.77,24.88,24.88,0,0,0,2.45-1.86Z"/><path class="cls-12" d="M60.39,228.39c-2.65-1.24-5.55-5.25-5.2-8.43a11.59,11.59,0,0,1,1.21-3.69,12.77,12.77,0,0,1,2.84-4.07,5.62,5.62,0,0,1,4.37-1.61,4.78,4.78,0,0,1,2,.94c3.4,2.48,9.18,6.19,8.67,10.81-.23,2.08-4.94,5.21-7.34,5.88S62.27,229.27,60.39,228.39Z"/><path class="cls-18" d="M117.61,150.71s-10.48-2.13-17.85.27C95.58,152.33,85.25,169,76,183.8c-7.13,11.32-9.11,13.06-20.08,25.7-4.54,5.24,20.26,25.55,28.13,27.1s11.87-36.77,12.52-43.35c0,0,10.83,27.74,7,50.19S96.13,290.28,95.35,293s44.91,19.74,89.42-5.42c0,0-5.42-47-24.77-75.49-16.85-24.83-8.52-29.41-.77-22.83S189,213.63,206.06,214c0,0-10.77-29.52,2.33-41.42,0,0-19,5.42-35.62-4.64s-19.87-14.84-37.54-16.65S117.61,150.71,117.61,150.71Z"/><path class="cls-10" d="M115.53,150.32s13.53-.54,15.36-.39-1.6,15.06-1.6,15.06L125,168l-8.91.13L113,164Z"/><path class="cls-12" d="M116.2,162.36a10.82,10.82,0,0,0,12.32-.08c1.63,5.07-2.14,9.2-2.8,10.14s-5.64,13.9-5.64,13.9l-5.2-18.44,1.45-4.74Z"/><path class="cls-19" d="M132,151.15l-4.51,13.13-.32.94-7.15,20.91,0,.12,5-19.65.87-3.45,3.44-13.24c.72,0,1.11.05,1.46,0h.64S131.71,150.46,132,151.15Z"/><path class="cls-19" d="M147.07,153.3l-27.06,33,22.88-34.52c.64.19,1.27.39,1.89.62C145.56,152.66,146.32,153,147.07,153.3Z"/><path class="cls-20" d="M144.78,152.38l-24.7,33.94L121,183l1-3.19,8.94-29.86h0l2.3.12a42.65,42.65,0,0,1,8.82,1.45c.36.11.72.21,1.08.33C143.67,152,144.23,152.18,144.78,152.38Z"/><path class="cls-21" d="M143.1,151.82,121,183l1-3.19L142,151.49C142.38,151.6,142.74,151.7,143.1,151.82Z"/><path class="cls-19" d="M114.26,151.28l2.2,13.08.16.94,3.49,20.81,0,.12-1.65-19.29-.29-3.38-1.07-13.27a9.69,9.69,0,0,0-1.6,0,3.46,3.46,0,0,0-.46-.06h0S114.68,150.69,114.26,151.28Z"/><path class="cls-19" d="M99.76,151l20.38,35.28-16.2-36.08c-.64.07-1.26.17-1.88.29C101.28,150.62,100.51,150.78,99.76,151Z"/><path class="cls-20" d="M102.06,150.47l18,35.85-.35-3.32-.41-3.15-3.79-29.53h0c-.68-.09-1.41-.17-2.19-.25a40.59,40.59,0,0,0-8.54,0l-1.07.14C103.17,150.27,102.61,150.37,102.06,150.47Z"/><path class="cls-21" d="M103.73,150.2l16,32.8-.41-3.15L104.8,150.06Z"/><path class="cls-13" d="M127.4,152.09a12.94,12.94,0,0,1-9.16-.33,1.51,1.51,0,0,1-.9-1.52l.21-2.33.54-5.86,9.3,1.54h1.24l0,.41v6.38A1.8,1.8,0,0,1,127.4,152.09Z"/><path class="cls-13" d="M128.6,145.88c-2.63,1.59-7.73,3.26-11,2h0l.57-5.85,9.3,1.54h1.24l0,.41Z"/><path class="cls-13" d="M125,111.22c9.37-.23,11.3,3,10.89,10.9s-.49,17.66-5.44,21.64-17.56.66-19.18-8.14.42-14.61.11-17.46S121.69,111.3,125,111.22Z"/><path class="cls-22" d="M129.16,129.08s-.39,3.15.71,4.77a13.36,13.36,0,0,1-1.55.76"/><path class="cls-23" d="M123.15,128.22c0,.65.31,1.19.77,1.21s.85-.48.89-1.12-.31-1.18-.77-1.21S123.19,127.58,123.15,128.22Z"/><path class="cls-23" d="M132,129.15c0,.65.31,1.19.77,1.21s.85-.48.88-1.12-.31-1.19-.76-1.21S132,128.51,132,129.15Z"/><path class="cls-11" d="M120,124.89a.5.5,0,0,1-.33-.87c.11-.1,2.8-2.51,7-.55a.49.49,0,0,1,.26.62.51.51,0,0,1-.59.32s-4-1-6.09.4A.6.6,0,0,1,120,124.89Z"/><path class="cls-11" d="M136.57,125.83a.52.52,0,0,1-.35-.14,5.42,5.42,0,0,0-4.59-1.19.5.5,0,0,1-.22-1,5.57,5.57,0,0,1,5.53,1.48.49.49,0,0,1,0,.7A.48.48,0,0,1,136.57,125.83Z"/><path class="cls-13" d="M106.16,128.37c-1.22,2.6.28,6.72,2.31,7.67s4.63.76,4.53-2.67c-.08-2.87.57-5.48-1.46-6.43S107.38,125.77,106.16,128.37Z"/><path class="cls-10" d="M127.85,136a12.22,12.22,0,0,0,3.11,0,3.19,3.19,0,0,1,0,.69,3.3,3.3,0,1,1-6.52-.71,4.53,4.53,0,0,1,.15-.75A11.57,11.57,0,0,0,127.85,136Z"/><path class="cls-13" d="M124.72,132c-.24.87-1.56,1.26-3,.88s-2.33-1.39-2.09-2.26,1.56-1.27,2.95-.89S125,131.09,124.72,132Z"/><path class="cls-13" d="M131.78,133.19c0-.9,1.22-1.6,2.66-1.56a4.47,4.47,0,0,1,.84.12c-.13,1.07-.28,2.12-.47,3.13l-.47,0C132.9,134.85,131.75,134.09,131.78,133.19Z"/><path class="cls-11" d="M137,115.3c-2.75-5.89-7.43-8.71-13.35-8.88s-9,1.61-11.31,6.17-1,13-1,13a8.91,8.91,0,0,1,5-4.59,30.67,30.67,0,0,1-.2-3.65s.31,3,1,3.46c0,0,7.25-2,13.57-.39a25.42,25.42,0,0,0,.2-2.79,18.07,18.07,0,0,1,.54,3,11.35,11.35,0,0,1,6.49,4.58S139.79,121.2,137,115.3Z"/><path class="cls-24" d="M118.53,142a12.94,12.94,0,0,0,8.51.37c.22-.07.24-.57,0-.49a12.75,12.75,0,0,1-8.4-.37c-.22-.09-.34.39-.11.49Z"/><path class="cls-24" d="M108.72,129.2a2.25,2.25,0,0,1,1.66,1.07,1.45,1.45,0,0,1-.2,1.68c-.26.24-.72.42-1,.12-.12-.12-.12-.31.08-.35a.87.87,0,0,1,.55.2,3.09,3.09,0,0,1,1.16,2c.07.32.42.07.36-.18a3.59,3.59,0,0,0-1.23-2.19c-.28-.2-.72-.43-1-.22a.78.78,0,0,0-.3.87.8.8,0,0,0,.83.54,1.39,1.39,0,0,0,1-.56,2.06,2.06,0,0,0,.27-2,2.47,2.47,0,0,0-2-1.45c-.24,0-.34.45-.1.48Z"/><path class="cls-10" d="M110.56,126.59a64.51,64.51,0,0,0,10.58,4.12c4.77,1.23,6.06.13,7.93.26s1.68,1.55,6.07,1.81c0,0-.07,11-7.42,12.13s-11.33-1.69-13.36-3.21-2.86-5.08-2.86-5.08,2.41.22,2.93-3.65S110.56,126.59,110.56,126.59Z"/><path class="cls-25" d="M129.11,132.14c.34,3.72.66,7.82-1.62,11-.12.17.06.48.22.26,2.35-3.32,2.06-7.5,1.72-11.35,0-.26-.34-.19-.32,0Z"/><g class="cls-26"><path class="cls-27" d="M150.15,175.72a47,47,0,0,0-.47,15.19c0,.43,1,.2,1-.26a46.7,46.7,0,0,1,.49-15c.09-.46-.9-.34-1,.08Z"/></g><g class="cls-26"><path class="cls-27" d="M119.57,189.27a203.61,203.61,0,0,0,8,76.41c2.08,6.87,4.88,13.85,4.32,21.16,0,.41.94.23,1-.11.49-6.41-1.58-12.58-3.49-18.6s-3.61-12.39-5-18.7A204.19,204.19,0,0,1,119.83,211a201.93,201.93,0,0,1,.71-21.86c0-.41-.94-.23-1,.11Z"/></g><g class="cls-26"><path class="cls-27" d="M72.42,190.8A10.09,10.09,0,0,0,80.09,197a.94.94,0,0,0,.69-.18c.15-.12.12-.24-.08-.28a9.77,9.77,0,0,1-7.32-6c-.11-.29-1.06,0-1,.26Z"/></g><g class="cls-26"><path class="cls-27" d="M178.24,172.29a7.83,7.83,0,0,0-3.05,5.08c0,.09.92,0,1-.26a7.57,7.57,0,0,1,3-4.9c.18-.13-.16-.15-.23-.15a1.24,1.24,0,0,0-.64.23Z"/></g><g class="cls-26"><path class="cls-27" d="M178.73,172.3a6.9,6.9,0,0,0,1.28,7.35c.16.17,1-.18.91-.32a6.81,6.81,0,0,1-1.24-7.21c.07-.15-.32-.09-.38-.08s-.5.09-.57.26Z"/></g><path class="cls-14" d="M167.79,301.48a6.34,6.34,0,0,0-2.12,5.09c0,.18,1,0,1-.26a6.1,6.1,0,0,1,2-4.9c.17-.15-.14-.17-.23-.17a1.14,1.14,0,0,0-.64.24Z"/><path class="cls-14" d="M168.66,302.39c-1.39,2.42.26,5.07.32,7.59,0,.48,1,.31,1-.09,0-2.4-1.69-5.12-.37-7.41.12-.21-.11-.36-.29-.38a.67.67,0,0,0-.63.29Z"/><path class="cls-14" d="M137.1,311.39a3.25,3.25,0,0,1-4.2-1.34c-.17-.27-1.11,0-.9.38a4.27,4.27,0,0,0,5.7,1.25c.15-.09.27-.27.08-.38a.78.78,0,0,0-.68.09Z"/><path class="cls-14" d="M137.76,312.14a3.42,3.42,0,0,1-1.41.68,3.6,3.6,0,0,1-1.5,0,.66.66,0,0,0-.68.18.28.28,0,0,0,.12.47,4.89,4.89,0,0,0,4.11-.9c.15-.13.25-.36,0-.5a.62.62,0,0,0-.69.06Z"/><path class="cls-28" d="M183.14,90.74s-.35.56-1.79,3.21l0,0c-.19.37-.41.77-.66,1.23-.81,1.5-1.87,3.49-3.26,6.12-14.29,4.91-22.56-1.74-26.93-8a31.51,31.51,0,0,1-4.22-8.57l2.7-5.51h0l2.24-4.6L173.71,86l8.91,4.49Z"/><path class="cls-29" d="M182.62,90.48A15.39,15.39,0,0,1,181.35,94l0,0q-.28.6-.66,1.23c-21.06,5.37-31.71-16-31.71-16h0l2.24-4.6Z"/><path class="cls-19" d="M183.14,90.74s-.35.56-1.79,3.21l0,0c-.19.37-.41.77-.66,1.23-.81,1.5-1.87,3.49-3.26,6.12-14.29,4.91-22.56-1.74-26.93-8C159,99.51,164,89.54,164,89.54s4.67-1.79,9.69-3.55l8.91,4.49Z"/><polygon class="cls-28" points="200.98 94.9 164.02 89.55 148.39 71.39 139.18 60.7 176.94 65.66 200.98 94.9"/><path class="cls-19" d="M201,94.9l-37-5.36L148.39,71.39c30.28,21.27,28.54-5.73,28.54-5.73Z"/><polyline class="cls-30" points="170.97 76.68 148.94 72.52 144.31 73.39"/><path class="cls-31" d="M141.94,73.46l-12.89.64A1.17,1.17,0,0,0,128,75.58l.51,1.85a1.17,1.17,0,0,0,1.5.8l13.56-4.47-1.32-.28A1.37,1.37,0,0,0,141.94,73.46Z"/><g class="cls-32"><path class="cls-33" d="M128.25,76.57c2.31-.51,4.62-1,6.93-1.43,1.1-.22,2.19-.43,3.29-.63l4.53-.84,0,.26,0,.25h0l-1,.08h0l-3.06.22-.49,0c-1.2.08-2.41.18-3.62.24l-4.11.25c-.93,0-1.87.09-2.8.13l0-.1c.91-.11,1.83-.2,2.75-.29l4.1-.39c1.37-.14,2.74-.23,4.11-.35l4.1-.34,0,.26,0,.26h0l-1.69.3h0c-2,.36-4.07.72-6.09,1-2.33.38-4.65.77-7,1.1Z"/></g><path class="cls-21" d="M144.89,73.1a1.5,1.5,0,1,1-2-.69A1.5,1.5,0,0,1,144.89,73.1Z"/><path class="cls-34" d="M144.89,73.1a1.5,1.5,0,1,1-2-.69A1.5,1.5,0,0,1,144.89,73.1Z"/><path class="cls-35" d="M172,75.91a1.33,1.33,0,1,1-2.07-.62A1.58,1.58,0,0,1,172,75.91Z"/><path class="cls-19" d="M138.55,245.06s-.82,25.91,23.89,30.17C154.18,269.36,142.3,260.55,138.55,245.06Z"/><path class="cls-19" d="M106.88,233.68c-.58-8.71,1.52-23.79-4.52-33.42-4.77-7.61-4.77-23.48-4.77-23.48s-7.16,17-7.55,33.68A35.89,35.89,0,0,1,79.8,234.92,17,17,0,0,0,84,236.6c7.87,1.55,11.87-36.77,12.52-43.35,0,0,10.83,27.74,7,50.19S96.13,290.28,95.35,293c-.35,1.25,9.24,5.57,24.05,7.36C96.33,292.68,107.44,242.07,106.88,233.68Z"/><path class="cls-36" d="M97.51,197.75A45.61,45.61,0,0,1,99.06,172"/><path class="cls-37" d="M197.5,127.55s-5.3-3.4-5.05-3.1,1.57,2.4,1.57,2.4-2.83.79-2.62,1,7.86,2.66,7.86,2.66Z"/><path class="cls-38" d="M223.91,118.44,186.34,149l-1.18-1.13-5.74-5.48,17-13.78,2-1.62L217,111.83c1.2-1,3.7-.26,5.62,1.56a4,4,0,0,1,.35.36s0,0,0,0a3.13,3.13,0,0,1,.38.45C224.64,115.87,224.92,117.61,223.91,118.44Z"/><path class="cls-37" d="M197.16,128s6.08,2.12,5.55,7.74l3.48-2.83a7.79,7.79,0,0,0-6.31-7.12Z"/><path class="cls-39" d="M223.91,118.44,186.34,149l-1.18-1.13a13.43,13.43,0,0,0,0-2.95S190,141.35,200,133.54c1.1-3.12-3.58-4.95-3.58-4.95l2-1.62,3.72,1.7a3.93,3.93,0,0,0,4-.47c4.43-3.45,15.3-12,17.21-14C224.64,115.87,224.92,117.61,223.91,118.44Z"/><path class="cls-40" d="M186.34,149c-1,.83-3,.44-4.73-.82a8.41,8.41,0,0,1-.87-.73c-1.92-1.83-2.5-4.09-1.32-5.06s3.52-.32,5.4,1.39a.79.79,0,0,1,.2.17C186.94,145.74,187.52,148,186.34,149Z"/><circle class="cls-11" cx="101.72" cy="108.01" r="7.22"/><path class="cls-11" d="M143.53,106.43a7.22,7.22,0,1,1-7.22-7.22A7.22,7.22,0,0,1,143.53,106.43Z"/><path class="cls-12" d="M102.93,115.47a9.63,9.63,0,0,0,4.32-4.24,10.78,10.78,0,0,0,1.49-6c0-.65-.8-.46-.75.11a9.7,9.7,0,0,1-1.32,5.36,8.65,8.65,0,0,1-3.92,3.83c-.43.19-.35,1.16.18.93Z"/><path class="cls-12" d="M129.74,103.78a10.81,10.81,0,0,1,5.47,2.39,5.11,5.11,0,0,1,1.76,2.41,11.19,11.19,0,0,1,.5,3.35c0,.66.77.46.75-.11-.09-2.36-.45-4.73-2.35-6.34a12.52,12.52,0,0,0-2.85-1.76,9,9,0,0,0-3.07-.91c-.49,0-.69.94-.21,1Z"/><path class="cls-12" d="M101.93,114.45a1.23,1.23,0,0,0-.29.31.94.94,0,0,0-.12.22,1,1,0,0,0-.09.37.8.8,0,0,0,.16.56.61.61,0,0,0,.33.21.58.58,0,0,0,.32,0,.84.84,0,0,0,.38-.18,1.12,1.12,0,0,0,.3-.41,1.27,1.27,0,0,0,.12-.39,1,1,0,0,0-.24-1,.77.77,0,0,0-.75,0,1.15,1.15,0,0,0-.59.62,1.32,1.32,0,0,0-.07.62,1.08,1.08,0,0,0,.17.43.71.71,0,0,0,.74.29,1,1,0,0,0,.21-.09.86.86,0,0,0,.25-.22.88.88,0,0,0,.12-.21.72.72,0,0,0,0-.52l0-.1a.38.38,0,0,0-.23-.2.35.35,0,0,0-.28.09.65.65,0,0,0-.15.7l0,.11v-.5l0,.06.06-.11a.21.21,0,0,1,0,.06l.08-.08-.08.06.09-.06-.1,0,.1,0-.15,0h.1a.32.32,0,0,1-.14,0l.09,0a.41.41,0,0,1-.11-.07l.07.07a.36.36,0,0,1-.07-.1l0,.09-.06-.12,0,.11a.43.43,0,0,1,0-.11v.16a.36.36,0,0,1,0-.1l0,.13a.49.49,0,0,1,0-.11l-.06.11a.76.76,0,0,1,.08-.11l-.08.09.13-.12-.09.06.19-.09-.1,0,.17,0h-.1a.32.32,0,0,1,.14,0l-.09,0,.09,0-.08-.07,0,.06-.06-.09a.08.08,0,0,1,0,0l0-.11a.2.2,0,0,1,0,.07v-.12a.81.81,0,0,1,0,.22l0-.13a1.55,1.55,0,0,1,0,.23l0-.13a.76.76,0,0,1-.06.16l.06-.11a.76.76,0,0,1-.08.11l.08-.09-.08.07.09-.06a.31.31,0,0,1-.13.06l.1,0a.41.41,0,0,1-.16,0h.1l-.14,0,.09,0-.09-.06.07.06a.15.15,0,0,1,0-.06l.06.09,0-.06,0,.11s0-.05,0-.07v.18s0,0,0-.07l0,.13a.31.31,0,0,1,0-.1l-.07.11a1,1,0,0,1,.12-.16l-.08.09a.49.49,0,0,1,.13-.12.6.6,0,0,0,.18-.33.67.67,0,0,0,0-.37c0-.08-.12-.18-.23-.19a.32.32,0,0,0-.28.09Z"/><path class="cls-12" d="M101.77,114.78A7.37,7.37,0,0,1,97,117.66c-.47.07-.53,1.07,0,1a8.16,8.16,0,0,0,5.28-3.24.59.59,0,0,0,0-.69.33.33,0,0,0-.53.07Z"/><path class="cls-12" d="M101.47,115.68a17.53,17.53,0,0,1-2.62,5.93.62.62,0,0,0,0,.7.33.33,0,0,0,.53-.07,18.88,18.88,0,0,0,2.82-6.41c0-.2,0-.51-.26-.56s-.42.21-.46.41Z"/><path class="cls-12" d="M138.24,112.26a.58.58,0,0,0-.29-.06.54.54,0,0,0-.21,0,.09.09,0,0,0-.05,0,.38.38,0,0,0-.13.09.69.69,0,0,0-.11.13.71.71,0,0,0-.08.15.82.82,0,0,0-.06.26.6.6,0,0,0,.08.29.32.32,0,0,0,.15.13.16.16,0,0,0,.1,0,.17.17,0,0,0,.14,0l.09,0a.83.83,0,0,0,.15-.11,1.12,1.12,0,0,0,.34-.75,1,1,0,0,0-.07-.39.39.39,0,0,0-.46-.22.65.65,0,0,0-.39.28,1,1,0,0,0-.15.42,2.19,2.19,0,0,0,0,.36,1.32,1.32,0,0,0,.09.43.68.68,0,0,0,.23.3.55.55,0,0,0,.59.06.73.73,0,0,0,.34-.48.87.87,0,0,0,0-.48.65.65,0,0,0-.21-.28l-.1,0a.37.37,0,0,0-.21,0,.56.56,0,0,0-.38.23.84.84,0,0,0-.16.48.7.7,0,0,0,.07.38.43.43,0,0,0,.13.17.59.59,0,0,0,.19.11.32.32,0,0,0,.28-.09.6.6,0,0,0,.18-.33.5.5,0,0,0,0-.36l-.06-.1a.27.27,0,0,0-.16-.1h0l.09,0,0,0,.08.07,0,0,.06.09,0,0,0,.11a.07.07,0,0,1,0,0v.21a.09.09,0,0,1,0,0l0,.13v0l-.06.11,0,0-.08.09,0,0-.09.07,0,0-.1,0h0l-.09,0,.06,0-.08-.07a.1.1,0,0,1,0,0l-.05-.09,0,.06,0-.11a.07.07,0,0,1,0,0V113l0-.13v0l.06-.11,0,0,.08-.09,0,0,.09-.06-.05,0,.1,0h0a.38.38,0,0,1-.1,0l.09,0a.24.24,0,0,1-.09-.06l.08.07,0-.06,0,.09a.42.42,0,0,1,0-.1l0,.11a.5.5,0,0,1,0-.12v.13a1.22,1.22,0,0,1,0-.27l0,.13a.61.61,0,0,1,0-.13l0,.13a.11.11,0,0,1,0-.07l-.07.11,0,0-.08.09a.1.1,0,0,1,.05,0l-.09.06,0,0-.1,0h0l-.09,0,0,0-.17-.27a.22.22,0,0,1,0,.08v0l0-.13s0,.06,0,.09l0-.13,0,.09.06-.11a.42.42,0,0,1-.06.08l.08-.09a.27.27,0,0,1-.08.07l.09-.06-.09.05.41.66s0,0,0,0l-.06.11,0,0-.08.08,0,0-.09.06.08,0-.09,0h.06l-.1,0h0a.3.3,0,0,0,.29,0,.47.47,0,0,0,.23-.25.65.65,0,0,0,0-.39.41.41,0,0,0-.17-.27Z"/><path class="cls-12" d="M137.8,113.7c.63,1.45,1.63,3,3.31,3.28.24,0,.43-.2.46-.41s0-.52-.25-.57c-1.48-.25-2.31-1.61-2.86-2.89a.31.31,0,0,0-.51-.1.63.63,0,0,0-.15.69Z"/><path class="cls-12" d="M138,113.56a4.22,4.22,0,0,0,3.29,1,6.42,6.42,0,0,0,3.64-1.08c.4-.27.15-1.15-.36-.8a5.86,5.86,0,0,1-3.16.9,3.78,3.78,0,0,1-2.87-.77c-.39-.42-.86.43-.54.77Z"/><path class="cls-15" d="M534.21,258.09s17.42-3.48,25.35-.19,52.65.19,58.84-6.2-56.52-20.13-56.52-20.13Z"/><path class="cls-41" d="M531.14,82.6s-2.3-4.36,5.19-7.16,10.83-2.93,21.25,4.26,17.83,9.73,23.53,8.41c15.26-3.53,21.27,5,23.2,12s-1.41,19.48-5.91,22.44-12.14-4.93-15.31-.1-10.49-4.32-14.79-1.4,2.36,2.69-8.89,1.2S545.92,121,541,123.47s-14.84-4.35-15.5-24.21S531.14,82.6,531.14,82.6Z"/><polygon class="cls-13" points="603.3 268.84 614.33 268.54 611.29 259.74 602.35 260.71 603.3 268.84"/><path class="cls-42" d="M612.07,264a3.49,3.49,0,0,1,0,3.15,3.88,3.88,0,0,0-.48,2.85c.62,1.39,13.36,9.24,15.44,12.75s5.81,1.77,5.24.19c-1.29-3.57-7.27-19.72-9.77-26.5a3.48,3.48,0,0,0-4.28-2.12c-2.84.87-6.78,2.21-8.21,3.39C608.2,259.28,610.73,261.57,612.07,264Z"/><path class="cls-43" d="M621.08,269.86a.54.54,0,0,0-.19-.4.56.56,0,0,0-.79.07,8.58,8.58,0,0,0-1.88,3.78,3.91,3.91,0,0,0,1.53,3.68.56.56,0,0,0,.62-.94,2.75,2.75,0,0,1-1-2.6,7.59,7.59,0,0,1,1.61-3.19A.55.55,0,0,0,621.08,269.86Z"/><path class="cls-43" d="M619,268.82a.57.57,0,0,0-.2-.39.56.56,0,0,0-.79.06,8.6,8.6,0,0,0-1.87,3.79,3.86,3.86,0,0,0,1.52,3.67.56.56,0,0,0,.78-.16.55.55,0,0,0-.16-.77,2.8,2.8,0,0,1-1-2.61,7.67,7.67,0,0,1,1.61-3.19A.61.61,0,0,0,619,268.82Z"/><path class="cls-43" d="M623.06,271.56a.53.53,0,0,0-.19-.4.57.57,0,0,0-.79.06A8.64,8.64,0,0,0,620.2,275a3.91,3.91,0,0,0,1.53,3.68.56.56,0,0,0,.62-.94,2.75,2.75,0,0,1-1-2.6,7.73,7.73,0,0,1,1.61-3.2A.52.52,0,0,0,623.06,271.56Z"/><path class="cls-44" d="M549.45,254q1.2,3.6,2.68,7.1A71.51,71.51,0,0,0,563,279.15a18.64,18.64,0,0,0,6.19,2.32,14.7,14.7,0,0,0,1.56.22l6.74-1.95,2.82-.82,3.21-.93L605,271.77a3,3,0,0,0,2-3.76l-1-3.14c-.3-.95-.54-1.9-.89-2.83-.28-.74-.72-2.07-1.58-2.33-.67-.19-1.42.19-2.09.23a29.43,29.43,0,0,1-3,.05c-1.91-.07-3.83-.12-5.75-.13-3.79,0-7.58.07-11.36.29-2,.12-4.07.28-6.1.46l-.34,0c-1.79.16-2.18.11-2.63-1.47-.06-.19-.11-.4-.17-.63a39.79,39.79,0,0,1-.75-10.1c0-6.11,0-12.22.21-18.33.17-5.93,1-11.84.89-17.78A78.65,78.65,0,0,0,571,199.17a1.18,1.18,0,0,1,0-.2,46.36,46.36,0,0,0-1.93-6.94c-.11-.31-.22-.61-.35-.92-.22-.58-.45-1.15-.71-1.72l-25.22,3.9S539.86,225.35,549.45,254Z"/><polygon class="cls-13" points="587.68 333.5 591.26 343.27 598.22 337.92 594.67 330.21 587.68 333.5"/><path class="cls-42" d="M594.22,340.3a2.52,2.52,0,0,1-2.12.62c-.94-.14-2.33-.21-3,.39-1.06,1-4.24,14.72-6.76,17.64s0,5.56,1.4,4.73c3.65-2.23,16.3-13.09,21.27-17.09a2.58,2.58,0,0,0,.49-3.5c-1.61-2.3-4.27-5.88-5.88-6.88C597.57,334.93,596.24,338.41,594.22,340.3Z"/><path class="cls-43" d="M592.11,349.71a.53.53,0,0,0,.3-.29.53.53,0,0,0-.3-.69,8.11,8.11,0,0,0-3.94-.54,3.66,3.66,0,0,0-2.83,2.47.53.53,0,0,0,.37.65.52.52,0,0,0,.65-.38,2.64,2.64,0,0,1,2-1.7,7.17,7.17,0,0,1,3.34.48A.53.53,0,0,0,592.11,349.71Z"/><path class="cls-43" d="M592.42,347.56a.52.52,0,0,0,0-1,8.13,8.13,0,0,0-3.95-.54,3.64,3.64,0,0,0-2.82,2.47.53.53,0,1,0,1,.27,2.6,2.6,0,0,1,2-1.7,7.17,7.17,0,0,1,3.34.48A.53.53,0,0,0,592.42,347.56Z"/><path class="cls-43" d="M591.19,352a.53.53,0,0,0,.3-.29.54.54,0,0,0-.3-.69,8.13,8.13,0,0,0-4-.54,3.68,3.68,0,0,0-2.83,2.47.54.54,0,0,0,.38.65.54.54,0,0,0,.65-.38,2.58,2.58,0,0,1,2-1.7,7.17,7.17,0,0,1,3.34.48A.53.53,0,0,0,591.19,352Z"/><path class="cls-42" d="M573.14,262.86a11.21,11.21,0,0,1,1.07-3.48c3-7.08,7.33-16.53,11.11-25.7,4.55-11,8-22.32,6-34.1-.68-4.13-3.68-8.85-3.68-8.85l-26.15.3S549.78,247,551,265.14c.24,4.19,3.45,11.49,7.21,19.7,4.87,10.62,27.51,51.58,27.64,51.8.55,1,3.89-.94,4.5-1.26a20.92,20.92,0,0,0,1.92-1.23c1.46-.93,3.18-1.49,4.66-2.43.27-.18.57-.38.64-.7a1.35,1.35,0,0,0-.13-.76c-1.19-3-2-6-3.42-8.86A95.86,95.86,0,0,1,587.53,304c-1.42-5.33-2.41-10.78-4.34-15.95-2.52-6.78-6.6-12.89-8.87-19.77C573.46,265.64,573,264.33,573.14,262.86Z"/><path class="cls-43" d="M596.55,324.89a10.06,10.06,0,0,1,2.47,5.27.78.78,0,0,1-.3.77,63.17,63.17,0,0,1-13,7.29.81.81,0,0,1-1-.38l-2.51-5a.79.79,0,0,1,.31-1c1.6-.92,6.11-3.47,13-7.06A.81.81,0,0,1,596.55,324.89Z"/><path class="cls-45" d="M599.26,260.49c.71,2.1,2.56,7.88,2.52,11.58a.74.74,0,0,0,.86.74,22.61,22.61,0,0,0,3.34-.73c.88-.38,2.13-2,1.88-3.13s-2.75-10.37-3.5-10.37a44.41,44.41,0,0,0-4.56.93A.75.75,0,0,0,599.26,260.49Z"/><path class="cls-46" d="M584.4,195.94c2.82,8.38,2,17.61-.43,26.11s-6.41,16.46-10,24.55c-2.24,5.1-4.35,10.38-4.75,15.94-.67,9.36,3.54,18.28,7.36,26.86,5.67,12.74,12.21,25.71,16.54,39"/><path class="cls-47" d="M557.16,210a19.63,19.63,0,0,0-4.35-3"/><path class="cls-47" d="M563.84,194.47c-.2,3.2-.39,6.39-.59,9.59a9,9,0,0,1-.53,3c-.6,1.41-1.54,1.74-2.75,2.67l.8-14.62"/><path class="cls-48" d="M573.65,262.54a24.1,24.1,0,0,0,4.42,15.75"/><path class="cls-49" d="M544.85,193.8s1,2.88,8.16,4.54,28.17-.56,31.67-6.63S551.68,187.55,544.85,193.8Z"/><path class="cls-50" d="M623.33,194.53c-2.23,5.63-7.62,5.78-11.08,5.21v-3.2a1.68,1.68,0,0,1,.37-1,8.91,8.91,0,0,1,7.49-3.66,1.74,1.74,0,0,1,1,.38A17.79,17.79,0,0,1,623.33,194.53Z"/><path class="cls-51" d="M497.69,64.67S494,72.15,487.88,75,472,90.35,475.38,95.39s23.86-16.78,23.86-16.78Z"/><path class="cls-13" d="M500.75,71.09c0-.49-6.92-11.93-6.92-11.93l-5.59,3.58L495,85.38"/><path class="cls-13" d="M488.41,62.87c1.36.46,5.61-.56,6.56-5.19.87-4.29,1.87-5.13,2.09-8.33.19-2.78-1.25-.86-2.56,1s-1.39,2.87-2.7,1.35S488,42,486.28,40.57s1.41,8.94,1.41,8.94-4.08-8.27-5.36-8.22c-1.53.06,2.32,9.14,2.32,9.14s-4.47-6.52-5-6.24c-1,.54,2.39,7.74,2.39,7.74s-3.31-4.33-3.8-3.48S482.13,59,488.41,62.87Z"/><path class="cls-52" d="M482.49,54v0c.1-.19,2.47-4.46,6.91-4.24a.3.3,0,0,1,0,.6c-4.06-.2-6.33,3.88-6.35,3.92a.3.3,0,0,1-.41.12A.29.29,0,0,1,482.49,54Z"/><path class="cls-52" d="M491.73,68.18a29.69,29.69,0,0,0,6.81,8.44l-1,2.59-3.81,1.71-5.45-18.16a22.88,22.88,0,0,1-6.08-6.13c.93,1.06,4.47,4.89,7,5C492.12,61.81,488.65,62.2,491.73,68.18Z"/><path class="cls-13" d="M611.92,207s-3.56-7.23-5.1-9.59,1-7.29,1-7.29l6.56-1.88a21,21,0,0,0,2.42,14.31C620.63,209.35,611.92,207,611.92,207Z"/><path class="cls-53" d="M588.82,166.15c.55,11.24-6.82,13.23-12,10.3-3.59-2-6.69-6.08-5.45-7.7,2-2.65,5.6.45,6.6,3,1.89,4.72-1.58,11.13-11.1,8.39-3.12-.9-7-2.87-4.68-6.09,2.11-2.86,5.43-1.15,6.82,2.35,3,7.57-17.13,11.37-26.57-4.65"/><path class="cls-13" d="M550,112.09a6.81,6.81,0,0,0,0,4.09,5.47,5.47,0,0,0,.43,1,3.27,3.27,0,0,0,.23.4,22,22,0,0,1-1.62,1.85c-.71.71-1.47,1.32-1.87,1.14a9.73,9.73,0,0,0-3.54.29h0c-.85.17-1.55.33-1.69.37h0l0-.09s0,0,0,0a1.54,1.54,0,0,1-.1-.19c-.12-.24-.35-.66-.73-1.41l-.33-.68a21.39,21.39,0,0,1-1.16-4.35s-.14-.78.1-.92l.58.29c1.29-.75,5.43-.73,9.8-1.77Z"/><path class="cls-18" d="M628.87,189.76c-2.24,2.77-6.28,6.18-14.53,7.11a106.84,106.84,0,0,1-11.92.23c-.56,0-1.93.19-3.43.35l7.15,15s15,36.07,13,39-17.44,2.9-32.91.11-38.08,2.32-47.48,5.82-10.28-3-10.85-9.62.93-86.25-4.31-97.18c-3.25-6.8-40-46.53-47.29-53.91a3.84,3.84,0,0,1-.89-4.07A7.49,7.49,0,0,1,478,88.9c3-2.06,11.89-12.35,16.2-16.81a20,20,0,0,0,1.43-1.67c1.72-2.23,1.71-6.38,2.42-5.62a33.53,33.53,0,0,1,4.07,6c1,1.75,2.18,3.84,3.46,6.29,2.53,4.82,7.51,10.33,11.63,14.5a3.79,3.79,0,0,1,.93,1.52l.05.14c.26.84.55,1.65.87,2.47.23.57.47,1.14.73,1.69.07.18.15.34.23.5s.16.31.23.46.15.29.22.43c.23.45.45.82.61,1.09s.25.37.32.46c.62.66,1.16,2.42,1.68,4.34a.38.38,0,0,0,0,.1l.24.93a6.23,6.23,0,0,0,0-2,7.44,7.44,0,0,0-.12-.76.78.78,0,0,0,0-.22c0-.22-.09-.44-.14-.65a3.59,3.59,0,0,0-.08-.35c-.1-.42-.23-.86-.37-1.31a2.85,2.85,0,0,0-.11-.39c-.1-.35-.22-.7-.33-1s-.15-.5-.24-.76a1.21,1.21,0,0,0,0-.18c-.13-.35-.49-1.17-.41-1.32a6.87,6.87,0,0,0,.33-.67l.17.16c1,.95,1.71,1.58,1.85,1.79,2.25,3.36,4,12.11,7.28,17a7.9,7.9,0,0,0,1.36,1.61c.13.11.27.23.41.33a9.69,9.69,0,0,0,4.44,1.87h0a8,8,0,0,0,1,.12,4,4,0,0,1,3.21,1.86l.08.11a.76.76,0,0,0,.12.19s0,0,0,0l.07.09c1,1.43,2.64,2.78,4.8,1.66a2.56,2.56,0,0,0,.74-.88c.45-.67,1-1.62,1.59-2.58.48-.79,1-1.6,1.39-2.25a5.25,5.25,0,0,1,1-1.28.24.24,0,0,1,.1,0l.45,0h0l1.66-.16a39,39,0,0,1,9.23.25c.62.09,1.23.19,1.84.32.77.15,1.51.33,2.25.53,15.19,4,25,16.76,32.17,26.14l1.18,1.53C611.59,159,616.79,168.18,626.86,182c.72,1,1.47,2,2.19,3A4,4,0,0,1,628.87,189.76Z"/><path class="cls-10" d="M554.25,119.75c-.18.35-1,3-1.76,5.51-.67,2.25-1.29,4.31-1.29,4.31s-.23.27-.58.65c-.1.11-.22.22-.33.35a10.8,10.8,0,0,1-1.86,1.58,4,4,0,0,1-.48.27c-1.36.59-1.67,2.57-4.08,1.72a7.7,7.7,0,0,0-1.38-.38c-.35-.07-.65-.11-.93-.15a3.9,3.9,0,0,1-.71-.12,2.57,2.57,0,0,1-.92-.42,4.46,4.46,0,0,1-.48-.37c-1.46-1.3-3.16-.08-2.63-2.58a58.6,58.6,0,0,0,.5-7.59c0-.55,0-1,0-1.52,0-1.29,0-2.18,0-2.18h0c.18,0,.85,0,1.55,0a16.77,16.77,0,0,0,1.72,0c2.11,1.38,5.75,1.9,9.35-2.65.66-.13,1.11-.21,1.44-.26l.55-.09h0s.34.43.74,1C553.53,117.87,554.46,119.33,554.25,119.75Z"/><path class="cls-42" d="M540.31,129.19s4,3.64,9.53-1.2a12.07,12.07,0,0,1,.43,9.55c-.51,1-3.75,13.56-3.75,13.56l-6.84-16.61.83-4.58Z"/><path class="cls-19" d="M546.52,151.1l-5.67-17.61-.63-2-2.9-9c0-.55,0-1,0-1.52,0-1.29,0-2.18,0-2.18h0c.18,0,.85,0,1.55,0l.11.16,2.55,11,.86,3.77Z"/><polygon class="cls-19" points="525.38 113.42 546.79 151.66 531.94 116.05 525.38 113.42"/><path class="cls-20" d="M546.52,151.1c-.33-.49-5.92-11.54-10-19.37-1.9-3.63-3.5-6.56-4.13-7.43-1-1.33-2.24-3.54-3.33-5.46-.6-1.08-1.15-2.06-1.52-2.77a0,0,0,0,1,0,0c-.2-.36-.35-.63-.44-.82l-.13-.22a0,0,0,0,0,0,0h2.66l1.6,0a8.18,8.18,0,0,0,1.36,1.61c.13.11.27.23.41.33a9.69,9.69,0,0,0,4.44,1.87l4.19,14.78.16.55,1.69,6h0l1.3,4.57h0Z"/><path class="cls-21" d="M544.71,144.69c-3.21-6.14-11.23-20.73-12.46-22.5a58,58,0,0,1-3.24-6,10,10,0,0,0,1.34.42,46,46,0,0,0,2.72,5c1,1.44,6.58,11.5,10.34,18.49h0Z"/><path class="cls-54" d="M523.51,107.22a13.68,13.68,0,0,0-.63-2.42,21.48,21.48,0,0,0-1.45-3.34c-.54-1.15-1.34-2.2-1.88-3.34-.73-1.51-.83-3.26-1.32-4.86l-.15-.48a5.54,5.54,0,0,0-.57-.8c.38.37,1.18,1.06,1.54,1.41.69.69,1.35,1.32,1.93,1.87l.34.32.54.52c-.09.21-.21.44-.33.66.16.53.31,1,.46,1.51a30.83,30.83,0,0,1,1.43,5.48A18.45,18.45,0,0,1,523.51,107.22Z"/><path class="cls-55" d="M519.1,95.73c.23.57.47,1.14.73,1.69C519.59,96.9,519.35,96.33,519.1,95.73Z"/><path class="cls-55" d="M520.06,97.92c.09.16.15.31.23.46-.07-.14-.15-.29-.22-.44Z"/><path class="cls-55" d="M521.94,98.08c-.13-.34-.49-1.16-.41-1.32Z"/><path class="cls-55" d="M521.44,100.35c.62.67,1.16,2.43,1.68,4.35a22.6,22.6,0,0,0-1.27-3.42c-.22-.48-.47-.93-.73-1.38A5.34,5.34,0,0,0,521.44,100.35Z"/><path class="cls-37" d="M606.12,217.93s-5.68-2.73-5.39-2.46,1.85,2.19,1.85,2.19-2.71,1.14-2.48,1.29,8.13,1.68,8.13,1.68Z"/><path class="cls-38" d="M631.22,205.65l-33.54,34.92-1.31-1L590,234.86l15.12-15.76,1.79-1.85,16.61-17.31c1.06-1.1,3.64-.71,5.76.85.13.1.27.21.39.32s0,0,0,0a3.28,3.28,0,0,1,.43.4C631.62,203,632.12,204.7,631.22,205.65Z"/><path class="cls-37" d="M605.84,218.37s6.29,1.36,6.45,7l3.1-3.24a7.77,7.77,0,0,0-7.13-6.28C606.31,217.87,605.84,218.37,605.84,218.37Z"/><path class="cls-39" d="M631.22,205.65l-33.54,34.92-1.31-1a13.81,13.81,0,0,0-.41-2.92s4.45-4.13,13.33-13.09c.71-3.24-4.17-4.48-4.17-4.48l1.79-1.85,3.91,1.23a3.9,3.9,0,0,0,3.95-1c4-4,13.72-13.75,15.37-16C631.62,203,632.12,204.7,631.22,205.65Z"/><path class="cls-40" d="M597.68,240.57c-.9,1-2.9.8-4.8-.24a7.61,7.61,0,0,1-1-.61c-2.13-1.59-3-3.75-1.93-4.86s3.45-.75,5.53.72a1,1,0,0,1,.22.13C597.87,237.28,598.73,239.47,597.68,240.57Z"/><path class="cls-19" d="M614.57,196.13c-16.32-.79-19.22-.69-23-14.65-3.22-12-14-29.38-13.77-28.8C590.13,180,589,184.61,589.46,189.34c.44,4.2,0,8.63,6.65,8.42a11.45,11.45,0,0,0,2.86-.3h0c1.5-.16,2.87-.36,3.43-.35a106.84,106.84,0,0,0,11.92-.23,26.09,26.09,0,0,0,4.23-.8l1.55-.51-1.44.46A17.86,17.86,0,0,1,614.57,196.13Z"/><path class="cls-19" d="M619.11,251.43c-2,2.91-17.44,2.9-32.91.11s-38.08,2.31-47.48,5.82-10.28-3-10.85-9.63.93-86.24-4.31-97.17c-3.25-6.81-40-46.53-47.3-53.91a3.86,3.86,0,0,1-.88-4.07A7.49,7.49,0,0,1,478,88.9c3-2.06,11.89-12.35,16.2-16.81,0,0-13.29,17.85-13.58,20.71s7.14,4.48,14.68,12.54,35.58,32.24,34.05,51.33c-1.17,14.68,0,29.78,1.07,44.43.62,8.33.81,16.71,1.86,25,.63,4.93,1.19,17.15,6.81,19.41a9.37,9.37,0,0,0,3.73.44,123.92,123.92,0,0,0,25.72-3.42c9.6-2.29,17-1.25,25.79,3.12C601.62,249.29,610.8,255.57,619.11,251.43Z"/><path class="cls-56" d="M540.69,118.83a32.24,32.24,0,0,1-3.27,0h0a9.69,9.69,0,0,1-4.44-1.87,24.18,24.18,0,0,0,5.71-.46c.44-.08.48-.08.94-.19l0,.13S540,117.43,540.69,118.83Z"/><path class="cls-57" d="M540.69,118.83a32.24,32.24,0,0,1-3.27,0h0a9.69,9.69,0,0,1-4.44-1.87,24.18,24.18,0,0,0,5.71-.46c.44-.08.48-.08.94-.19l0,.13S540,117.43,540.69,118.83Z"/><path class="cls-19" d="M552.81,116.85l-2.36,12.8-.16.92L546.55,151l0,.11,1.9-18.92.33-3.31L550,116.18c.66-.13,1.11-.21,1.44-.26l.55-.09h0S552.41,116.25,552.81,116.85Z"/><path class="cls-19" d="M552,186.12s5.15,25.4,30.18,23.88C572.76,206.18,559.17,200.33,552,186.12Z"/><path class="cls-19" d="M567.05,116.76,546.52,151.1,563,115.91c.62.09,1.23.19,1.84.32C565.57,116.38,566.31,116.56,567.05,116.76Z"/><path class="cls-20" d="M564.8,116.22,546.52,151.1l.46-3.19.44-3.09,4.15-28.94h0l2.15-.21a39.4,39.4,0,0,1,8.38.13q.52.06,1,.15C563.72,116,564.26,116.12,564.8,116.22Z"/><path class="cls-21" d="M563.16,115.94l-16.18,32,.44-3.09,14.69-29Q562.64,115.85,563.16,115.94Z"/><path class="cls-13" d="M611.51,206s.74,2.52,1,3.83a32,32,0,0,0,.75,3.5c.41,1.28,2.92,3.54,3.44,4.55s1.26.63,1.4-.31-1.67-4.44-1.67-4.44,2.48,1.51,3,2.39a7.23,7.23,0,0,1,.65,1.48,2.25,2.25,0,0,0,1.61.26,1.44,1.44,0,0,0,.92-1,2.28,2.28,0,0,0,1.48-.49,2.67,2.67,0,0,0,.76-1.77,1.39,1.39,0,0,0,1.27-.65,3.15,3.15,0,0,0,.18-1.79s.36-.19.32-1a8,8,0,0,0-3-4.5c-1.73-1.23-5.74-2.07-7.24-3.7S611.51,206,611.51,206Z"/><path class="cls-24" d="M622.76,216a8.85,8.85,0,0,0-1.13-2.71,3.51,3.51,0,0,0-1-1,6.86,6.86,0,0,0-1.56-.65c-.21-.07-.31.37-.09.44a7.55,7.55,0,0,1,1.44.6,3.39,3.39,0,0,1,1,1,8.44,8.44,0,0,1,1,2.52c.08.29.39.07.33-.16Z"/><path class="cls-24" d="M625,213.86a6.11,6.11,0,0,0-1.46-2.54,4,4,0,0,0-2.55-1.19c-.23,0-.31.44-.1.45,1.93.09,3.23,1.73,3.78,3.44.08.28.4.06.33-.16Z"/><path class="cls-24" d="M626.34,211.45a5.9,5.9,0,0,0-3.68-3.31c-.21-.08-.31.36-.1.44a5.59,5.59,0,0,1,3.48,3.14.14.14,0,0,0,.23.05.31.31,0,0,0,.07-.32Z"/><path class="cls-20" d="M545.49,153.75c.92,11.81,1.93,23.61,3.28,35.38a240.45,240.45,0,0,0,5.87,33.49,137.62,137.62,0,0,0,6,18c.24.58.84-.14.66-.58a155.73,155.73,0,0,1-9.13-32.48c-2-11.1-3.13-22.33-4.19-33.54q-1-10.2-1.75-20.41c0-.65-.8-.46-.75.11Z"/><path class="cls-22" d="M539.67,114.12s5.52.87,9.49-1.89"/><path class="cls-13" d="M544.24,81.36c-9.17-1.94-11.66.86-12.7,8.72s-2.75,17.45,1.39,22.27,18.38,4.11,20.35-4.49,2.25-14.44,3.08-17.19S547.51,82.05,544.24,81.36Z"/><path class="cls-22" d="M536.68,98.16s0,3.17-1.32,4.63a12.42,12.42,0,0,0,1.44,1"/><path class="cls-41" d="M531.16,83.61a7.15,7.15,0,0,0,6.59,5.48c5.65.5,11.81,4.65,13.72,6.88,3.34,3.9,6.73,1,6.73,1s-.17-5.35-.38-8.31S549,79.34,545.6,78.75,531.61,81.7,531.16,83.61Z"/><path class="cls-23" d="M542.75,98.09c0,.64-.46,1.13-.92,1.09s-.78-.58-.73-1.22.46-1.14.91-1.1S542.8,97.44,542.75,98.09Z"/><path class="cls-23" d="M533.87,97.87c0,.64-.46,1.13-.92,1.09s-.79-.58-.74-1.22.47-1.14.92-1.1S533.92,97.22,533.87,97.87Z"/><path class="cls-41" d="M546.87,94.38a.52.52,0,0,1-.29-.09c-2.07-1.45-6-.53-6.08-.52a.5.5,0,0,1-.32-.94c4.28-1.88,6.92.59,7,.69a.5.5,0,0,1,0,.68A.48.48,0,0,1,546.87,94.38Z"/><path class="cls-41" d="M530.32,95a.54.54,0,0,1-.36-.14.5.5,0,0,1,0-.7,5.52,5.52,0,0,1,5.56-1.36.48.48,0,0,1,.32.59.48.48,0,0,1-.56.37,5.52,5.52,0,0,0-4.62,1.1A.49.49,0,0,1,530.32,95Z"/><path class="cls-13" d="M559.6,100.48c.73,2.78-1.5,6.55-3.67,7.12s-4.69-.1-4-3.45c.61-2.81.45-5.5,2.61-6.06S558.88,97.7,559.6,100.48Z"/><path class="cls-10" d="M537.34,105.1a12.42,12.42,0,0,1-3.12-.12,4,4,0,0,0,0,.69,3.3,3.3,0,1,0,6.54-.54,3.68,3.68,0,0,0-.14-.75A11.65,11.65,0,0,1,537.34,105.1Z"/><path class="cls-13" d="M540.76,101.8c.07.9,1.3,1.53,2.74,1.41s2.54-.94,2.46-1.84-1.3-1.53-2.74-1.41S540.68,100.91,540.76,101.8Z"/><path class="cls-13" d="M533.59,101.72c.13-.89-.91-1.79-2.34-2a4,4,0,0,0-.84,0c-.07,1.07-.11,2.13-.11,3.16a3.63,3.63,0,0,0,.45.1C532.18,103.16,533.45,102.61,533.59,101.72Z"/><path class="cls-10" d="M554.88,97.74A64.51,64.51,0,0,1,544,101.13c-4.84.89-6.06-.29-7.93-.29s-1.61.89-6,.84c0,0-.69,11.76,6.58,13.36s11.45-.83,13.54-2.26a7.79,7.79,0,0,0,3-5.1s-2.42.06-2.67-3.83S554.88,97.74,554.88,97.74Z"/><path class="cls-25" d="M535.68,101.94c-.61,3.79-1.2,8,.91,11.43.13.22.38-.07.27-.24-2.05-3.38-1.47-7.43-.88-11.13,0-.25-.26-.32-.3-.06Z"/><path class="cls-58" d="M535.54,84.28c2.89,2.15,6.59,2.81,10,3.89,4.44,1.4,8.85,3.82,11.11,7.89"/><path class="cls-58" d="M540.68,83.59c1.86,1.71,4.59,2,7.07,2.48a39.6,39.6,0,0,1,6.45,2,29.76,29.76,0,0,1,9,5.12,13,13,0,0,1,4.65,9"/><path class="cls-58" d="M552.82,80.17c2,2.57,5.15,4,8.23,5.12s6.34,1.94,9.55,2.78a43.35,43.35,0,0,0,8,1.55c2.43.16,4.89-.09,7.31.23A19.11,19.11,0,0,1,592.19,92a15.53,15.53,0,0,1,3.4,2.33,11.77,11.77,0,0,1,3.55,10.37"/><path class="cls-24" d="M558.19,100.46a2.13,2.13,0,0,0-2.38-.75,2.86,2.86,0,0,0-1.77,2.07,2,2,0,0,0,.15,1.52,1,1,0,0,0,1.2.43,1.49,1.49,0,0,0,.94-1.07.59.59,0,0,0-.77-.63,1.66,1.66,0,0,0-1,1.06,4.44,4.44,0,0,0-.18,2c0,.3.36.21.35-.05a2.79,2.79,0,0,1,.47-2.27.85.85,0,0,1,.44-.25c.16,0,.42,0,.39.21s-.23.34-.36.44a.8.8,0,0,1-.6.23c-.92-.11-.76-1.33-.5-1.93a2.26,2.26,0,0,1,1.47-1.31,1.86,1.86,0,0,1,2,.7c.14.21.37-.17.25-.35Z"/><path class="cls-28" d="M574.92,31.73s-.27.6-1.64,3.3l0,0-.63,1.24c-.78,1.52-1.83,3.52-3.2,6.16,4,14.56,14.19,17.61,21.85,17.66a31.53,31.53,0,0,0,9.45-1.37l3-5.34h0L606.26,49,584.17,36.82,575.42,32Z"/><path class="cls-29" d="M575.42,32a15,15,0,0,0-2.14,3l0,0c-.22.39-.43.8-.63,1.24,7.48,20.41,31.12,17.11,31.12,17.11h0L606.26,49Z"/><path class="cls-19" d="M574.92,31.73s-.27.6-1.64,3.3l0,0-.63,1.24c-.78,1.52-1.83,3.52-3.2,6.16,4,14.56,14.19,17.61,21.85,17.66-9.9-3.5-4.55-13.31-4.55-13.31s-1.16-4.86-2.55-10L575.42,32Z"/><polygon class="cls-28" points="561.39 19.37 586.72 46.82 610.53 49.43 624.56 50.97 599.1 22.65 561.39 19.37"/><path class="cls-19" d="M561.39,19.37l25.33,27.45,23.81,2.61C575.86,36.51,599.1,22.65,599.1,22.65Z"/><polyline class="cls-30" points="593.39 33.81 609.29 49.62 611.2 53.92"/><path class="cls-31" d="M612.48,55.92l6.76,11a1.17,1.17,0,0,1-.61,1.73l-1.81.63a1.18,1.18,0,0,1-1.52-.79l-4-13.71,1,.93A2.11,2.11,0,0,1,612.48,55.92Z"/><g class="cls-32"><path class="cls-33" d="M617.66,69q-1.33-3.27-2.75-6.52c-.43-1-.88-2-1.34-3.07-.62-1.41-1.25-2.81-1.87-4.21l-.23.12-.23.12s0,0,0,0l.52.88h0L613.32,59c.09.14.17.28.25.42.62,1,1.22,2.09,1.85,3.12L617.55,66,619,68.4l.07-.07c-.43-.82-.88-1.63-1.31-2.44l-2-3.6c-.66-1.2-1.35-2.39-2-3.58l-2-3.58-.23.12-.23.12s0,0,0,0,0,0,0,0c.24.51.48,1,.71,1.56,0,0,0,0,0,0,.85,1.87,1.7,3.75,2.58,5.61,1,2.13,2,4.27,3.05,6.38Z"/></g><path class="cls-21" d="M611.1,53.28a1.5,1.5,0,1,0,1.7,1.26A1.5,1.5,0,0,0,611.1,53.28Z"/><path class="cls-34" d="M611.1,53.28a1.5,1.5,0,1,0,1.7,1.26A1.5,1.5,0,0,0,611.1,53.28Z"/><path class="cls-35" d="M593.47,32.55c-1,0-1.79.46-1.83,1.16s.71,1.3,1.68,1.35,1.79-.46,1.83-1.15S594.44,32.61,593.47,32.55Z"/><path class="cls-15" d="M294.49,266.59s14.74,5.12,28.49,3.87,23.42-2.62,27.67-1.46,36-2,33-8.95S348.43,251,348.43,251Z"/><path class="cls-51" d="M378.9,68.16s3-5.77,12.49,8.47c3.74,4.63,6,7.62,10.31,12.19s11.93,9.64,6.58,15.42c.06.39-11.77,6.14-13,1.17-.12-.51-5.48,1.33-6.82-.22s-4.1-.88-4.49-8S376.33,72.22,378.9,68.16Z"/><path class="cls-13" d="M379,74c0-.49,7.73-11.43,7.73-11.43l5.33,4-8.32,22.11"/><path class="cls-13" d="M391.83,66.62c-1.4.36-5.57-1-6.19-5.64-.58-4.34-1.52-5.24-1.52-8.45,0-2.78,1.3-.77,2.49,1.15s1.19,3,2.61,1.52,4.44-9.38,6.26-10.69-2,8.82-2,8.82,4.63-8,5.91-7.83c1.52.16-2.94,9-2.94,9s4.9-6.21,5.42-5.89c1,.62-2.91,7.56-2.91,7.56s3.6-4.09,4-3.21S398.35,63.22,391.83,66.62Z"/><path class="cls-24" d="M398.34,58.19s0,0,0,0c-.09-.19-2.16-4.61-6.6-4.69a.3.3,0,1,0,0,.59c4.06.08,6,4.31,6.06,4.35a.3.3,0,0,0,.56-.22Z"/><path class="cls-13" d="M388.15,71.68a29.58,29.58,0,0,1-7.37,8l.86,2.65,3.68,2L392,66.51a22.58,22.58,0,0,0,6.49-5.7c-1,1-4.79,4.58-7.34,4.53C388.2,65.3,391.64,65.92,388.15,71.68Z"/><path class="cls-51" d="M275,75.06a.3.3,0,0,0-.46-.22,28.9,28.9,0,0,0-11.16,13.5c-4,8.84-4.44,9.56-6.17,11.89s-7.89,12.18-3.83,14.89c4.21,3,7.1,2.13,7.51,2s2.15.86,4.82-1.52a54.07,54.07,0,0,0,4.39-4c2-2.05-.58-.32,2.87-3.82s3.37-2.29,4.32-5.32C278.19,99.61,275.46,78.44,275,75.06Z"/><path class="cls-37" d="M257.75,59.51s-5.41-2.88-5.14-2.61,1.71,2.21,1.71,2.21-2.68,1-2.46,1.15,7.82,2,7.82,2Z"/><path class="cls-13" d="M322.68,140.7l-6.84,21.66c-8-2.65-33.42-26.38-40.31-38.32-1.74-3.05-3.52-8.05-5.2-13.84-.3-1-.59-2.08-.89-3.14-4.46-16-8.64-35.45-9.23-37-.39-.45-.1-1.54-.32-2.06,0,0,0-.09-.05-.13-2.88-4-2.61-6.87-2.17-8.73,1.19-5,6.6-6.59,8.3-5.85,3.69,1.59,4.69,7.48,4,10.11-.31,1.13-2,3.17-1.63,4.41C272.2,80.5,283.85,103.44,287,115.5c4.39,5.84,13.55,12.82,23.38,18.77C314.4,136.71,318.86,138.47,322.68,140.7Z"/><path class="cls-13" d="M266.81,63.27c-.29-.32-.9-1.63.43-3.31.22-.28.57-.69.56-1s-.71-.92-.92-1.61c-.35-1.14.6-2.22,1.05-1.72,1.15,1.29,2.06,1.66,2.55,2.65A13.12,13.12,0,0,1,270,63.4"/><path class="cls-13" d="M266.81,63.27c-.29-.32-.9-1.63.43-3.31.22-.28.57-.69.56-1s-.71-.92-.92-1.61c-.35-1.14.6-2.22,1.05-1.72,1.15,1.29,2.06,1.66,2.55,2.65A13.12,13.12,0,0,1,270,63.4"/><path class="cls-13" d="M272.22,109.25l-1.89,1c-.3-1-.59-2.08-.89-3.14-4.46-16-8.64-35.45-9.23-37-.42-.48-.06-1.7-.38-2.17v0c1.41-.72,1.6-1.22,1.83-.43l1.45,1.21a1,1,0,0,1,.33.51l7.48,26.43Z"/><path class="cls-38" d="M282.64,48.64l-34,32.51-1.23-1-6-4.86,15.36-14.68,1.81-1.72L275.4,42.77c1.08-1,3.56-.54,5.57,1.07.12.1.25.21.36.32s0,0,0,0a3.85,3.85,0,0,1,.4.41C283.14,46.09,283.55,47.76,282.64,48.64Z"/><path class="cls-37" d="M257.45,59.93s6.05,1.59,6,7.07l3.16-3a7.58,7.58,0,0,0-6.67-6.41Z"/><path class="cls-39" d="M282.64,48.64l-34,32.51-1.23-1a13.05,13.05,0,0,0-.27-2.86s4.49-3.82,13.5-12.16c-2.77,1.07-3.86-4.52-3.86-4.52l1.81-1.72,4.79,2,1.13.18s15.16-13.81,17.31-16.44C283.14,46.09,283.55,47.76,282.64,48.64Z"/><path class="cls-13" d="M267.25,58.63l-.21.25a1.46,1.46,0,0,0-.17.22c-.79.92-1.19,1.46-1.74,2l-.23.21a15.41,15.41,0,0,1-1.62,1.4,2.57,2.57,0,0,1-.57.35,1,1,0,0,1-.21.09c-.33.16-1.4.87-1.74,1a1.38,1.38,0,0,1-.72.06,1.36,1.36,0,0,1-.58-.39c-.73-.72-2.18-3-2-4a8.82,8.82,0,0,1,4.1-5.78,5.15,5.15,0,0,1,3.68-1,4.07,4.07,0,0,1,3,2.72A3.31,3.31,0,0,1,267.25,58.63Z"/><path class="cls-13" d="M262.71,63.1a1,1,0,0,1-.21.09,3,3,0,0,0-.07-.46A12.27,12.27,0,0,0,261.9,61c-.41-1.12-.93-2.19-1.39-3.31a15.12,15.12,0,0,1,1.71,3.2,8.52,8.52,0,0,1,.47,1.75C262.7,62.82,262.71,63,262.71,63.1Z"/><path class="cls-13" d="M265.13,61.14c0-.06,0-.11,0-.16a6.85,6.85,0,0,0-.58-1.83,13.16,13.16,0,0,0-1-1.6,17,17,0,0,0-1.22-1.45c.65,1.08,1.38,2.09,1.93,3.2a7.43,7.43,0,0,1,.63,1.72,1.24,1.24,0,0,1,0,.33Z"/><path class="cls-13" d="M267,58.88a2.29,2.29,0,0,0-.06-.51,5.66,5.66,0,0,0-.62-1.51,7.28,7.28,0,0,0-2.22-2.3c.38.39.71.8,1,1.2a9.53,9.53,0,0,1,.89,1.29,5.42,5.42,0,0,1,.8,2.05Z"/><path class="cls-39" d="M267.74,55.47s-2.28.33-1.52,2.4a3.43,3.43,0,0,1-.07,3c-.19.68-.46,2.71.21,3.32a4.78,4.78,0,0,0,1.6-3.94c0-.53.25-1.81.28-2.58A8.41,8.41,0,0,0,267.74,55.47Z"/><path class="cls-13" d="M267.16,65c-.29-.32-1.25-3.37.08-5.05.22-.28.57-.69.56-1s-.71-.92-.92-1.61c-.35-1.14.6-2.22,1.05-1.72,1.15,1.29,2.06,1.66,2.55,2.65A13.12,13.12,0,0,1,270,63.4"/><path class="cls-40" d="M249.09,80.82c-.83.94-2.75.86-4.6-.06a8.31,8.31,0,0,1-.94-.56c-2.09-1.44-3-3.49-2-4.58s3.28-.84,5.33.49a.75.75,0,0,1,.21.12C249.16,77.66,250.06,79.72,249.09,80.82Z"/><path class="cls-59" d="M397.78,283.61l-22.65,6.94s-14.32,3.9-17.78,4.53a8.7,8.7,0,0,1-8.25-2.56c-8.38-13.35-13-29.92-15.61-45.26a234.17,234.17,0,0,1-2.91-44.77c0-.65.05-1,.05-1l8.26-1.41L357.28,197c.23.5.45,1,.65,1.51a49.19,49.19,0,0,1,2.67,8.6,1.6,1.6,0,0,0,0,.21,83.34,83.34,0,0,1,1.76,13.91c.25,6.29-.57,12.57-.65,18.86-.08,6.46,0,12.93.07,19.41a42,42,0,0,0,1,10.68c.65,2.46.92,2.41,3.36,2.14,2.15-.22,4.31-.42,6.45-.58,4-.29,8-.45,12-.48q3.06,0,6.1,0a30,30,0,0,0,3.14-.1c.71-.06,1.5-.47,2.21-.27.92.25,1.4,1.66,1.71,2.44.39,1,.66,2,1,3l1.08,3.31A3.16,3.16,0,0,1,397.78,283.61Z"/><polygon class="cls-13" points="395.26 280.88 406.86 279.54 402.85 270.54 393.5 272.38 395.26 280.88"/><path class="cls-60" d="M404.07,275a3.68,3.68,0,0,1,.33,3.32c-.36,1-.68,2.27-.24,3.06.78,1.41,14.95,8.5,17.48,12s6.28,1.33,5.54-.28c-1.7-3.65-9.49-20.13-12.77-27.06a3.68,3.68,0,0,0-4.71-1.84c-2.92,1.18-6.95,3-8.35,4.34C399.54,270.34,402.43,272.52,404.07,275Z"/><path class="cls-59" d="M414.12,280.31a.62.62,0,0,0-.25-.4.59.59,0,0,0-.83.14,9.16,9.16,0,0,0-1.62,4.17,4.08,4.08,0,0,0,1.95,3.73.59.59,0,1,0,.57-1,2.93,2.93,0,0,1-1.33-2.65,8.12,8.12,0,0,1,1.4-3.52A.57.57,0,0,0,414.12,280.31Z"/><path class="cls-59" d="M411.85,279.4a.63.63,0,0,0-.24-.4.6.6,0,0,0-.83.14,9.07,9.07,0,0,0-1.63,4.17,4.11,4.11,0,0,0,2,3.74.6.6,0,0,0,.81-.24.58.58,0,0,0-.24-.8,3,3,0,0,1-1.33-2.66,8,8,0,0,1,1.41-3.52A.6.6,0,0,0,411.85,279.4Z"/><path class="cls-59" d="M416.36,281.91a.55.55,0,0,0-.24-.39.59.59,0,0,0-.83.13,9.22,9.22,0,0,0-1.62,4.18,4.06,4.06,0,0,0,1.95,3.73.58.58,0,0,0,.8-.24.59.59,0,0,0-.23-.8,2.91,2.91,0,0,1-1.33-2.66,8,8,0,0,1,1.4-3.51A.58.58,0,0,0,416.36,281.91Z"/><path class="cls-61" d="M390.44,270.46a15.92,15.92,0,0,1,5.25-1,1.15,1.15,0,0,1,1,.74c1.31,3.33,2.49,6.72,3.53,10.14a7.49,7.49,0,0,1,.37,4.43c-.08.4-5.77,1.65-6.32,1.57-1.91-.28-1.37-1.52-1.73-3.13-.91-4.12-1.79-7.51-2.83-11.5A1.07,1.07,0,0,1,390.44,270.46Z"/><path class="cls-59" d="M370.53,336.7a1.33,1.33,0,0,1-.47.85c-1.26,1.29-2.86,2.27-4.1,3.56a23.47,23.47,0,0,1-1.63,1.7c-.52.45-3.42,3.2-4.21,2.34-.17-.2-32.68-35.83-40.11-45.32-5.75-7.32-10.72-13.87-12-18-4.92-15.92-6.75-64.51-7.08-74.87,0-1.26-.07-2-.07-2l26.72-6,.72,3.11c.16.64.32,1.36.5,2.15,2.05,8.79,5.93,25.56,5.86,25.58q-.48,9.12-1.5,18.22c-.84,7.52-1.93,15-3.22,22.45a12,12,0,0,0-.24,3.75c.22,1.49,1,2.71,2.47,5.1,3.93,6.36,9.48,11.5,13.64,17.69,3.16,4.72,5.46,10,8.17,15a98.14,98.14,0,0,0,10.66,15.93c2.11,2.56,3.64,5.36,5.54,8.06A1.29,1.29,0,0,1,370.53,336.7Z"/><path class="cls-13" d="M361.76,345l7.31,8.53c4.23.93,6.31-1.82,6.51-7.8l-6.9-7.53Z"/><path class="cls-62" d="M372.29,348.17s-3.37-1.15-5.87,2.8,1.15,7.31,1.15,7.31,2.48,10,2.57,12.78c.17,5.54,1.31,8,2.35,9.29,2.19,2.78,10.28-2.69,9.92-8.94s-.48-21.1-1.36-22.73c-1.44-2.66-7.86-5.82-7.86-5.82A4.53,4.53,0,0,1,372.29,348.17Z"/><path class="cls-63" d="M375.63,361.12a.66.66,0,0,0,.2-.5.67.67,0,0,0-.7-.66,10.44,10.44,0,0,0-4.92,1.37,4.69,4.69,0,0,0-2.08,4.35.68.68,0,1,0,1.34-.2,3.37,3.37,0,0,1,1.52-3,9.18,9.18,0,0,1,4.18-1.13A.7.7,0,0,0,375.63,361.12Z"/><path class="cls-63" d="M374.9,358.42a.66.66,0,0,0,.2-.49.68.68,0,0,0-.7-.67,10.63,10.63,0,0,0-4.92,1.38A4.68,4.68,0,0,0,367.4,363a.68.68,0,0,0,1.34-.2,3.33,3.33,0,0,1,1.52-3,9.24,9.24,0,0,1,4.18-1.14A.65.65,0,0,0,374.9,358.42Z"/><path class="cls-63" d="M375.7,364.27a.63.63,0,0,0,.2-.49.68.68,0,0,0-.7-.67,10.63,10.63,0,0,0-4.92,1.38,4.68,4.68,0,0,0-2.08,4.35.68.68,0,1,0,1.34-.2,3.38,3.38,0,0,1,1.52-3,9.27,9.27,0,0,1,4.18-1.14A.65.65,0,0,0,375.7,364.27Z"/><path class="cls-59" d="M375.63,361.12a.66.66,0,0,0,.2-.5.67.67,0,0,0-.7-.66,10.44,10.44,0,0,0-4.92,1.37,4.69,4.69,0,0,0-2.08,4.35.68.68,0,1,0,1.34-.2,3.37,3.37,0,0,1,1.52-3,9.18,9.18,0,0,1,4.18-1.13A.7.7,0,0,0,375.63,361.12Z"/><path class="cls-59" d="M374.9,358.42a.66.66,0,0,0,.2-.49.68.68,0,0,0-.7-.67,10.63,10.63,0,0,0-4.92,1.38A4.68,4.68,0,0,0,367.4,363a.68.68,0,0,0,1.34-.2,3.33,3.33,0,0,1,1.52-3,9.24,9.24,0,0,1,4.18-1.14A.65.65,0,0,0,374.9,358.42Z"/><path class="cls-59" d="M375.7,364.27a.63.63,0,0,0,.2-.49.68.68,0,0,0-.7-.67,10.63,10.63,0,0,0-4.92,1.38,4.68,4.68,0,0,0-2.08,4.35.68.68,0,1,0,1.34-.2,3.38,3.38,0,0,1,1.52-3,9.27,9.27,0,0,1,4.18-1.14A.65.65,0,0,0,375.7,364.27Z"/><path class="cls-64" d="M331,204.55c-1.32.25-2.67.47-4.05.67s-2.51.33-3.73.46c-8,.81-15,.4-19.39-1,.07-1.23.11-1.9.11-1.9l26.35-3.45s.16,1.18.42,3.07l16.84-5.15C347.83,197.71,338.34,203.14,331,204.55Z"/><path class="cls-61" d="M369.23,332.8c.84,1.22,1.77,2.39,2.59,3.62a1.34,1.34,0,0,1-.14,1.62q-3.53,3.81-7.33,7.35a7.81,7.81,0,0,1-3.81,2.28c-.4.11-4.05-4.22-4.22-4.73-.6-1.77.76-1.86,2-2.88,3.14-2.51,5.93-4.93,8.92-7.51A1.32,1.32,0,0,1,369.23,332.8Z"/><path class="cls-61" d="M330.08,274.89A11.39,11.39,0,0,0,325,275a.55.55,0,0,0-.38.55c0,.18.13.5.37.44a10.81,10.81,0,0,1,4.93-.12c.48.1.69-.88.21-1Z"/><path class="cls-61" d="M363.93,272c-3.23.15-5.31,3.06-6.27,5.85-.07.21-.09.52.13.66a.39.39,0,0,0,.52-.25c.87-2.55,2.66-5.14,5.61-5.28.47,0,.54-1,0-1Z"/><path class="cls-18" d="M408.28,104.24c-3.62,1.37-5-.65-7.23-6.43s-4-7-12.16-12.68-9.39-10.29-9.83-17.19c-.83.89-3.13,8.9-11.66,23.15-5.91,11.68-11.81,18.68-16.6,23-.89.81-1.75,1.53-2.56,2.16-1.29,1-2.45,1.84-3.46,2.5-.79.52-1.49.95-2.08,1.32a32.66,32.66,0,0,1-6.39,3.09c-2.21.77-4,1-4.65.46-3.31,2.5-5.92,2.65-7.76,2.12a6.3,6.3,0,0,1-3.16-2,12.23,12.23,0,0,1-4.23,1.37,13.25,13.25,0,0,1-4.86-.27,24.58,24.58,0,0,1-7.16-3.11c-.78-.46-1.53-1-2.28-1.48-2-1.39-4-2.92-5.87-4.34C290,112.08,279,89.11,275,75c.4,1.4-.82,3.81-1.29,5.07a114.5,114.5,0,0,1-5,11.23c-.91,1.81-1.84,3.61-2.89,5.35v0a35.27,35.27,0,0,0-3.61,6.74c-.88,2.53-1.46,5.19-2.21,7.76a16.49,16.49,0,0,1-.78,2.17,3.19,3.19,0,0,1-1.83,2c-3.24.79-4.53-.67-4.75-.95.18.38.88,1.28,1.1,1.63a30.53,30.53,0,0,0,3.62,4.63,37.84,37.84,0,0,0,7.26,6c8.4,5.39,28,25.61,29.91,30.73,3.57,9.3,3.48,19.33,1.89,29-1.74,18.59-5.1,60.77-1.94,80.17l2.83.38c7.76.71,28.31,1.9,40.07-4,14-7,36.91-7.38,46.27-2.9-1.47-4-3-8-4.34-12-.71-2.16-1.37-4.33-1.94-6.54-2.13-8.18-4-16.45-6-24.67-3.12-12.86-5.88-25.8-8.08-38.84-.63-3.74-1.34-7.56-1.92-11.39a86.58,86.58,0,0,1-1.17-13.15c0-6.89,4.07-10.66,12-19.21s27-23.47,36.07-30A0,0,0,1,0,408.28,104.24Z"/><path class="cls-13" d="M331.05,117.31l.62,6.14c.3,3-.49,4.9-4.5,5.33-4.51.48-5.82-2.47-6.14-3.87-.24-1.09-.44-4.44-.44-4.44Z"/><path class="cls-19" d="M328.34,162.49c-15.19-14.81-23.61-35.41-26.13-42.26.75.52,1.5,1,2.28,1.48a24.58,24.58,0,0,0,7.16,3.11C314.63,131,319.76,142.28,328.34,162.49Z"/><path class="cls-19" d="M350.8,114.1c-.27,1.16-9.24,38-22.46,48.39,5.34-12,13.18-34.27,16.44-43.73,1-.66,2.17-1.49,3.46-2.5C349.05,115.63,349.91,114.91,350.8,114.1Z"/><path class="cls-20" d="M346.48,117.42h0c-.48.33-.92.65-1.35.93l-.07,0v0c-.9.59-1.7,1.08-2.36,1.49a32.66,32.66,0,0,1-6.39,3.09l-9.06,12.07s0,.51.07,1.46c.08,1.68.21,4.71.38,8.69-.88-9.48-2.48-16.54-3.8-19.64a6.43,6.43,0,0,1-3.16-2,12,12,0,0,1-4.23,1.37,15.66,15.66,0,0,1-8.73-1.62c-.54-.24-1.07-.51-1.6-.8s-1.13-.62-1.69-1c0,0,13.6,32,23.84,41,10.38-9.1,19.61-45.25,19.9-46.38C347.62,116.59,347,117,346.48,117.42Z"/><path class="cls-10" d="M336.32,123l-2,9.89-6,29.61-.58-1.85L319.05,133l-2.54-8v0a12,12,0,0,0,4.23-1.37s3.95,5.19,10.92-.09a3.22,3.22,0,0,0,2.46.15A16.48,16.48,0,0,0,336.32,123Z"/><path class="cls-21" d="M345.13,118.36l-.07,0v0c-1.72,6.29-8,28.41-15.9,40l-.34,1.72-.16.8.06,0a.76.76,0,0,0,.09-.09l0,0h0c9.22-12,16.62-39.41,17.63-43.31h0Z"/><path class="cls-21" d="M327,158.37l.72,2.27c-6.71-5.68-18.25-30.74-21.57-38.15.53.29,1.06.56,1.6.8C311.39,131.22,320.83,151.31,327,158.37Z"/><path class="cls-19" d="M319.68,135a39.36,39.36,0,0,0,3.53,2.62c1.62.65.91-.7,3.29-.09s2.19-.48,4.2-1.06a18.08,18.08,0,0,0,3.35-1.11l.56-3.89a19.56,19.56,0,0,1-7.34,4,8,8,0,0,1-8.57-3.52h0Z"/><path class="cls-59" d="M334.32,132.88l-.69,3.46-4.46,22-.34,1.72-.16.8-.33,1.59-.58-1.85-.72-2.27L320,136l-.95-3h0a7.44,7.44,0,0,0,8.27,3.53A17.31,17.31,0,0,0,334.32,132.88Z"/><path class="cls-19" d="M336.32,123l-2,9.89-6,29.61-.58-1.85,6.32-36.86a1,1,0,0,1,.05-.18A16.48,16.48,0,0,0,336.32,123Z"/><path class="cls-19" d="M408.29,104.26c-9,6.53-28.16,21.49-36.07,30s-12,12.32-12,19.21a86.58,86.58,0,0,0,1.17,13.15h0c-12-23.42,7.12-36.16,21.71-45.34a41.78,41.78,0,0,0,17.95-23.48c2.24,5.78,3.61,7.8,7.23,6.43A0,0,0,1,1,408.29,104.26Z"/><path class="cls-13" d="M343.71,99.48c.84,2.75-1.24,6.61-3.38,7.27s-4.69.09-4.1-3.29c.48-2.83.21-5.51,2.35-6.16S342.87,96.73,343.71,99.48Z"/><path class="cls-13" d="M303.34,104.78c-.13,2.87,2.83,6.11,5.06,6.21s4.57-1.06,3.17-4.19c-1.17-2.63-1.56-5.29-3.8-5.39S303.48,101.91,303.34,104.78Z"/><path class="cls-13" d="M338.59,98.21c1.41,11.27.53,20.27-12.58,22.3-14.21,2.19-16.28-7.25-17.69-18.51s4.22-21.26,12.58-22.3S337.18,86.94,338.59,98.21Z"/><path class="cls-65" d="M321.83,100.33s.46,4.11-1,6.21a16.58,16.58,0,0,0,2,1"/><path class="cls-23" d="M329.31,99.31c0,.84-.43,1.54-1,1.57s-1.11-.64-1.14-1.48.43-1.54,1-1.57S329.27,98.47,329.31,99.31Z"/><path class="cls-66" d="M325.28,95.07s4.48-2.15,7.6-.62A6.55,6.55,0,0,0,325.28,95.07Z"/><path class="cls-10" d="M323.23,109.19a20.34,20.34,0,0,1-4.6.25,4.59,4.59,0,0,0,.06.9,4.86,4.86,0,0,0,9.59-1.55,4.25,4.25,0,0,0-.27-1A19.18,19.18,0,0,1,323.23,109.19Z"/><path class="cls-13" d="M327.29,104.44c.23,1.15,1.92,1.78,3.76,1.41s3.16-1.61,2.92-2.77-1.92-1.78-3.76-1.41S327.05,103.28,327.29,104.44Z"/><path class="cls-23" d="M315.65,101c.18.82.79,1.39,1.38,1.26s.91-.89.74-1.71-.79-1.39-1.38-1.26S315.48,100.2,315.65,101Z"/><path class="cls-67" d="M318.51,96.08s-4.93-.49-7.34,2A6.55,6.55,0,0,1,318.51,96.08Z"/><path class="cls-13" d="M318.87,105.49c.06,1.18-1.42,2.21-3.3,2.3s-3.46-.79-3.51-2,1.42-2.21,3.3-2.3S318.81,104.31,318.87,105.49Z"/><path class="cls-68" d="M339.33,97c-.78-.12-1.95,1.65-2.32,2.52l-.61-4.68a5.92,5.92,0,0,0-1.12-2.77l-3.46-4.67a9.63,9.63,0,0,0,1.65-2.63,10.22,10.22,0,0,0,.79-4.38c2,1.42,4,2.48,5,4.66C341.36,89.78,340.15,94.52,339.33,97Z"/><path class="cls-68" d="M316.54,82.06a5.57,5.57,0,0,0,2.2,7.51,8.31,8.31,0,0,0,4.27,1,13.67,13.67,0,0,0,5.58-1.08c4.8-2.08,6.84-8.15,4.79-12.88a9.17,9.17,0,0,0-1.19-1.9,4.85,4.85,0,0,1-.88,2.82,7,7,0,0,0-.81-4.22,9.35,9.35,0,0,1-6.64,4.32c.64-.55.67-2,.53-2.82-.21.77-4.38,2.51-5.49,2.84Z"/><path class="cls-69" d="M314.24,84.43a6.42,6.42,0,0,0,.78,2.72,3.64,3.64,0,0,0,.88,1,8.12,8.12,0,0,0,1.2.81,3.29,3.29,0,0,1-1.45-.46,3.62,3.62,0,0,1-.63-.48,4.19,4.19,0,0,1-.48-.63,3.82,3.82,0,0,1-.47-1.49A3.36,3.36,0,0,1,314.24,84.43Z"/><path class="cls-69" d="M316.27,82.88a6.11,6.11,0,0,0-.16,3,5.26,5.26,0,0,0,.53,1.38,6.34,6.34,0,0,0,.39.66c.14.22.31.41.46.65a7.85,7.85,0,0,1-.66-.47,5.22,5.22,0,0,1-.55-.6,3.9,3.9,0,0,1-.7-1.5,3.83,3.83,0,0,1,0-1.65A3.35,3.35,0,0,1,316.27,82.88Z"/><path class="cls-68" d="M334.17,80.36A7.78,7.78,0,0,0,331,78.93a88.63,88.63,0,0,0-12.12-1.34,14.45,14.45,0,0,0-3.77.37,13.74,13.74,0,0,0-7.93,5.88A12,12,0,0,1,305,86.72s.3.23,1.36-.42a15.28,15.28,0,0,0-2.16,5.94c-.12,3.66,1.28,7.6,1.76,9.28a7.3,7.3,0,0,1,1.77-.11,2.36,2.36,0,0,1,1.89,1.07c-.34-2.56-1.12-8.35-.26-10.42,2.24,0,4.6.42,7.7-3.06.13-.14.25-.29.38-.44h0c.35-.44.72-.92,1.1-1.46,3.6,0,6.65,0,8.9.06h.67l3.13,0h.37l.15.22h0a9.63,9.63,0,0,0,1.65-2.63,10.22,10.22,0,0,0,.79-4.38Z"/><path class="cls-70" d="M334.26,80.42a10.22,10.22,0,0,1-.79,4.38,9.63,9.63,0,0,1-1.65,2.63h0a8.79,8.79,0,0,1-1,1,9.64,9.64,0,0,1-4.08,1.88,14.16,14.16,0,0,1-2.23.28c-.37,0-.74,0-1.11,0l-1.11-.08,1.1-.06,1.1-.12a15.3,15.3,0,0,0,2.14-.43,10.6,10.6,0,0,0,3.85-1.9,9.07,9.07,0,0,0,.86-.77,9.9,9.9,0,0,0,1.79-2.59,10.44,10.44,0,0,0,.77-2,10.1,10.1,0,0,0,.28-1.21C334.19,81.06,334.23,80.74,334.26,80.42Z"/><path class="cls-70" d="M330.23,82.86a10.77,10.77,0,0,1-1.2,3A10.35,10.35,0,0,1,327,88.44a7.69,7.69,0,0,1-2.86,1.63,7.6,7.6,0,0,1-3.24.27l.8-.09a4.2,4.2,0,0,0,.79-.13l.77-.18.74-.27A8.92,8.92,0,0,0,326.61,88a12.73,12.73,0,0,0,2.06-2.38A18,18,0,0,0,330.23,82.86Z"/><path class="cls-28" d="M350.34,11.63s.23.62,1.46,3.38l0,.05.57,1.26c.7,1.56,1.63,3.62,2.87,6.32-4.79,14.33-15.1,16.85-22.75,16.5a31.41,31.41,0,0,1-9.36-1.87l-2.73-5.49h0l-2.28-4.58,22.7-11,9-4.35Z"/><path class="cls-29" d="M349.82,11.88a14.77,14.77,0,0,1,2,3.13l0,.05c.2.4.38.82.57,1.26-8.55,20-32,15.46-32,15.46h0l-2.28-4.58Z"/><path class="cls-19" d="M350.34,11.63s.23.62,1.46,3.38l0,.05.57,1.26c.7,1.56,1.63,3.62,2.87,6.32-4.79,14.33-15.1,16.85-22.75,16.5,10.08-3,5.24-13.06,5.24-13.06s1.42-4.79,3.08-9.85l9-4.35Z"/><polygon class="cls-28" points="364.49 0 337.76 26.08 313.85 27.45 299.76 28.25 326.67 1.3 364.49 0"/><path class="cls-19" d="M364.49,0,337.76,26.08l-23.91,1.37c35.3-11.1,12.81-26.15,12.81-26.15Z"/><polyline class="cls-30" points="331.78 12.74 315.07 27.7 312.95 31.9"/><path class="cls-31" d="M311.57,33.82l-7.34,10.62a1.17,1.17,0,0,0,.53,1.75l1.77.72a1.16,1.16,0,0,0,1.55-.7l4.7-13.48-1,.87A1,1,0,0,0,311.57,33.82Z"/><g class="cls-32"><path class="cls-33" d="M305.71,46.58c1-2.14,2-4.26,3.08-6.37q.73-1.5,1.5-3,1.05-2.05,2.09-4.11l.22.13.23.14h0l-.55.86h0l-1.69,2.56-.27.41c-.67,1-1.32,2-2,3L306,43.65c-.53.76-1.06,1.53-1.6,2.29l-.06-.07,1.44-2.36L307.94,40c.72-1.17,1.48-2.32,2.22-3.48l2.23-3.46.22.13.23.13v0h0L312,34.9h0c-.95,1.84-1.9,3.67-2.87,5.48-1.12,2.08-2.23,4.15-3.38,6.21Z"/></g><path class="cls-21" d="M313.08,31.26A1.5,1.5,0,0,1,314.25,33a1.5,1.5,0,1,1-1.17-1.76Z"/><path class="cls-34" d="M313.08,31.26A1.5,1.5,0,0,1,314.25,33a1.5,1.5,0,1,1-1.17-1.76Z"/><path class="cls-35" d="M331.77,11.48c1,0,1.76.56,1.76,1.25S332.76,14,331.79,14,330,13.45,330,12.75,330.8,11.49,331.77,11.48Z"/><path class="cls-20" d="M327.62,164.54c-.16,11.79-.22,23.59.05,35.38a240.64,240.64,0,0,0,2.78,33.81,135.6,135.6,0,0,0,4.36,18.62c.19.62.88.13.73-.36a156,156,0,0,1-6.17-33.32c-1-11.35-1.08-22.75-1.11-34.13q0-10.06.11-20.11c0-.66-.74-.45-.75.11Z"/><path class="cls-19" d="M262.22,103.41c-.88,2.53-1.46,5.19-2.21,7.76a16.49,16.49,0,0,1-.78,2.17,3.19,3.19,0,0,1-1.83,2c-3.24.79-4.53-.67-4.75-.95.18.38.88,1.28,1.1,1.63a30.53,30.53,0,0,0,3.62,4.63,37.84,37.84,0,0,0,7.26,6c8.4,5.39,28,25.61,29.91,30.73,3.57,9.3,3.48,19.33,1.89,29-1.74,18.59-5.1,60.77-1.94,80.17l2.83.38c1.14.1,2.56.22,4.19.32-1.15-5.16-2.67-13.38-4.18-25.87-3.1-25.54,10.45-68.9,5-86.71s-31.74-31-36.63-39.14.1-18.9.1-18.9A35.27,35.27,0,0,0,262.22,103.41Z"/><path class="cls-22" d="M321.23,120.83s5.52,1.22,9.49-1.53"/><path class="cls-24" d="M342.94,100.52a2.13,2.13,0,0,0-2.38-.75,2.86,2.86,0,0,0-1.77,2.07,2,2,0,0,0,.15,1.52,1,1,0,0,0,1.2.43,1.49,1.49,0,0,0,.94-1.07.59.59,0,0,0-.77-.63,1.63,1.63,0,0,0-1.05,1.06,4.29,4.29,0,0,0-.17,1.95c0,.3.35.21.34,0a2.82,2.82,0,0,1,.47-2.27.89.89,0,0,1,.44-.25c.16,0,.42,0,.39.21s-.23.34-.36.44a.8.8,0,0,1-.6.23c-.92-.11-.76-1.33-.5-1.93a2.26,2.26,0,0,1,1.47-1.31,1.85,1.85,0,0,1,1.95.7c.14.21.37-.17.25-.35Z"/><path class="cls-24" d="M304.64,105.32a1.73,1.73,0,0,1,1.46-1.25,2.27,2.27,0,0,1,1.94.71c.42.42,1.12,1.53.31,1.94a1.18,1.18,0,0,1-1.09-.22c-.12-.09-.24-.22-.07-.33a.7.7,0,0,1,.45,0c.95.19,1.31,1.25,1.56,2,.09.28.4.06.33-.16-.29-.93-.75-2.22-1.89-2.35a.76.76,0,0,0-.88.6c-.05.46.37.73.75.86a1,1,0,0,0,1.27-.28,1.45,1.45,0,0,0,.17-1.38,2.86,2.86,0,0,0-2.27-1.85,2.2,2.2,0,0,0-2.37,1.64c-.07.28.26.35.33.07Z"/><path class="cls-24" d="M261.84,61.7A11.37,11.37,0,0,1,260,56.88a.17.17,0,0,0-.23-.14.32.32,0,0,0-.14.32,11.83,11.83,0,0,0,2,5c.16.23.41-.19.28-.38Z"/><path class="cls-24" d="M264.1,60.36a9.71,9.71,0,0,1-1.34-4.58c0-.32-.39-.23-.38.06a10.19,10.19,0,0,0,1.39,4.81c.16.27.45-.08.33-.29Z"/><path class="cls-24" d="M265.92,59.27a10.78,10.78,0,0,0-1.14-4.89c-.13-.28-.43.07-.33.29a10.32,10.32,0,0,1,1.09,4.65c0,.33.38.23.38,0Z"/><path class="cls-10" d="M310.36,112.2s3.36-4.39-1-9.94c0,0,4.83,2.45,7.87,2.2s2.71-1.42,4.51-1.55,2.07,1,4.39,1.16,9-.14,10.84-4.52c0,0-1.94,3.94,1.68,9.87A13.31,13.31,0,0,1,325.46,121C315.08,121.42,311.4,117.81,310.36,112.2Z"/><path class="cls-25" d="M321.57,104.48c-.71,4.57-1.4,9.59,1.16,13.73.16.27.46-.08.33-.29-2.5-4-1.82-8.91-1.13-13.36.05-.3-.31-.39-.36-.08Z"/></g></g></g></svg>